<svg width="24" height="24" viewBox="0 0 24 24" fill="#1C274C" xmlns="http://www.w3.org/2000/svg">
<path d="M3.79417 12.0291C4.33134 9.34329 4.59993 8.00036 5.4874 7.13543C5.65142 6.97557 5.82887 6.8301 6.0178 6.70061C7.03998 6 8.4095 6 11.1485 6H12.8515C15.5905 6 16.96 6 17.9822 6.70061C18.1711 6.8301 18.3486 6.97557 18.5126 7.13543C19.4001 8.00036 19.6687 9.34329 20.2058 12.0291C20.977 15.8851 21.3626 17.8131 20.475 19.1793C20.3142 19.4267 20.1266 19.6555 19.9156 19.8616C18.75 21 16.7838 21 12.8515 21H11.1485C7.21616 21 5.24998 21 4.0844 19.8616C3.87336 19.6555 3.68576 19.4267 3.52503 19.1793C2.63737 17.8131 3.02297 15.8851 3.79417 12.0291Z" stroke="#1C274C" stroke-width="1.5"/>
<circle cx="15" cy="9" r="1" fill="#1C274C"/>
<circle cx="9" cy="9" r="1" fill="#1C274C"/>
<path d="M9 6V5C9 3.34315 10.3431 2 12 2C13.6569 2 15 3.34315 15 5V6" stroke="#1C274C" stroke-width="1.5" stroke-linecap="round"/>
</svg>
