<svg width="24" height="24" viewBox="0 0 24 24" fill="#1C274C" xmlns="http://www.w3.org/2000/svg">
<path d="M3.74167 20.5545C4.94129 22 7.174 22 11.6394 22H12.3606C16.826 22 19.0587 22 20.2583 20.5545M3.74167 20.5545C2.54205 19.1091 2.95351 16.9146 3.77644 12.5257C4.36166 9.40452 4.65427 7.84393 5.76517 6.92196M3.74167 20.5545C3.74167 20.5545 3.74167 20.5545 3.74167 20.5545ZM20.2583 20.5545C21.458 19.1091 21.0465 16.9146 20.2236 12.5257C19.6383 9.40452 19.3457 7.84393 18.2348 6.92196M20.2583 20.5545C20.2583 20.5545 20.2583 20.5545 20.2583 20.5545ZM18.2348 6.92196C17.1239 6 15.5362 6 12.3606 6H11.6394C8.46385 6 6.87606 6 5.76517 6.92196M18.2348 6.92196C18.2348 6.92196 18.2348 6.92196 18.2348 6.92196ZM5.76517 6.92196C5.76516 6.92196 5.76517 6.92196 5.76517 6.92196Z" stroke="#1C274C" stroke-width="1.5"/>
<path d="M9 6V5C9 3.34315 10.3431 2 12 2C13.6569 2 15 3.34315 15 5V6" stroke="#1C274C" stroke-width="1.5" stroke-linecap="round"/>
<path d="M13 16V13V10" stroke="#1C274C" stroke-width="1.5" stroke-linecap="round"/>
<circle cx="11" cy="16" r="2" stroke="#1C274C" stroke-width="1.5"/>
<path d="M15 12C13.8954 12 13 11.1046 13 10" stroke="#1C274C" stroke-width="1.5" stroke-linecap="round"/>
</svg>
