<svg width="24" height="24" viewBox="0 0 24 24" fill="#1C274C" xmlns="http://www.w3.org/2000/svg">
<path d="M9.21252 10.1732L11.2276 8.56855C12.5301 7.5313 13.1814 7.01267 13.5907 7.26882C14 7.52498 13.7875 8.31815 13.3624 9.90451L13.3223 10.0541C13.169 10.6262 13.0924 10.9123 13.2271 11.1408L13.2343 11.1526C13.374 11.3783 13.6717 11.4581 14.2672 11.6177C15.3389 11.9048 15.8747 12.0484 15.9687 12.4219C15.9703 12.4281 15.9717 12.4343 15.9731 12.4406C16.0556 12.8164 15.6329 13.153 14.7875 13.8262L12.7724 15.4309C11.4699 16.4681 10.8186 16.9868 10.4093 16.7306C9.99994 16.4744 10.2125 15.6813 10.6376 14.0949L10.6776 13.9454C10.831 13.3732 10.9076 13.0871 10.7729 12.8587L10.7657 12.8468C10.626 12.6211 10.3283 12.5413 9.73274 12.3818C8.66111 12.0946 8.12529 11.951 8.03129 11.5775C8.02973 11.5713 8.02827 11.5651 8.02691 11.5589C7.94439 11.1831 8.3671 10.8464 9.21252 10.1732Z" stroke="#1C274C" stroke-width="1.5"/>
<path d="M2 12C2 6.47715 6.47715 2 12 2C17.5228 2 22 6.47715 22 12C22 17.5228 17.5228 22 12 22C6.47715 22 2 17.5228 2 12Z" stroke="#1C274C" stroke-width="1.5"/>
</svg>
