<svg width="24" height="24" viewBox="0 0 24 24" fill="#1C274C" xmlns="http://www.w3.org/2000/svg">
<path d="M9.4809 2.04492V4.06011C9.4809 4.61659 9.00457 5.05863 8.52039 5.33292C7.60566 5.85113 6.96191 7.03942 6.96191 8.09049C6.96191 9.48169 8.0897 10.6095 9.4809 10.6095C10.8721 10.6095 11.9999 9.48169 11.9999 8.09049C11.9999 9.48169 13.1277 10.6095 14.5189 10.6095C15.9101 10.6095 17.0379 9.48169 17.0379 8.09049C17.0379 7.03942 16.3941 5.85113 15.4794 5.33292C14.9952 5.05863 14.5189 4.61659 14.5189 4.06011L14.5189 2.04492" stroke="#1C274C" stroke-width="1.5" stroke-linecap="round" stroke-linejoin="round"/>
<path d="M9.51899 22V19.9848C9.51899 19.4283 9.04266 18.9863 8.55848 18.712C7.64375 18.1938 7 17.0055 7 15.9544C7 14.5632 8.12779 13.4354 9.51899 13.4354C10.9102 13.4354 12.038 14.5632 12.038 15.9544C12.038 14.5632 13.1658 13.4354 14.557 13.4354C15.9482 13.4354 17.076 14.5632 17.076 15.9544C17.076 17.0055 16.4322 18.1938 15.5175 18.712C15.0333 18.9863 14.557 19.4283 14.557 19.9848L14.557 22" stroke="#1C274C" stroke-width="1.5" stroke-linecap="round" stroke-linejoin="round"/>
<path d="M2 12C2 7.28595 2 4.92893 3.46447 3.46447C4.92893 2 7.28595 2 12 2C16.714 2 19.0711 2 20.5355 3.46447C22 4.92893 22 7.28595 22 12C22 16.714 22 19.0711 20.5355 20.5355C19.0711 22 16.714 22 12 22C7.28595 22 4.92893 22 3.46447 20.5355C2 19.0711 2 16.714 2 12Z" stroke="#1C274C" stroke-width="1.5"/>
</svg>
