<svg width="24" height="24" viewBox="0 0 24 24" fill="#1C274C" xmlns="http://www.w3.org/2000/svg">
<circle cx="12" cy="13" r="3" stroke="#1C274C" stroke-width="1.5"/>
<path d="M10 19.9999H14C16.8089 19.9999 18.2134 19.9999 19.2223 19.3258C19.659 19.0339 20.0341 18.6589 20.3259 18.2222C21 17.2133 21 15.8088 21 12.9999C21 10.191 20.9999 8.78673 20.3257 7.77783C20.0339 7.34107 19.6589 6.96607 19.2221 6.67423C18.2132 6.00011 16.8088 6.00011 13.9999 6.00011H9.99986C7.19093 6.00011 5.78647 6.00011 4.77758 6.67423C4.34082 6.96607 3.96581 7.34107 3.67398 7.77783C3.00001 8.7865 3.00001 10.1903 3.00001 12.998L3.00001 12.9999C3.00001 15.8088 3.00001 17.2133 3.67413 18.2222C3.96596 18.6589 4.34097 19.0339 4.77773 19.3258C5.78662 19.9999 7.19108 19.9999 10 19.9999Z" stroke="#1C274C" stroke-width="1.5"/>
<path d="M18 10H17.5" stroke="#1C274C" stroke-width="1.5" stroke-linecap="round"/>
<path d="M14.5 3.5H9.5" stroke="#1C274C" stroke-width="1.5" stroke-linecap="round"/>
</svg>
