<svg width="24" height="24" viewBox="0 0 24 24" fill="#1C274C" xmlns="http://www.w3.org/2000/svg">
<path d="M6.28571 18C3.91878 18 2 16.1038 2 13.7647C2 11.4256 3.91878 9.52941 6.28571 9.52941C6.56983 9.52941 6.8475 9.55673 7.11616 9.60887M14.381 7.02721C14.9767 6.81911 15.6178 6.70588 16.2857 6.70588C16.9404 6.70588 17.5693 6.81468 18.1551 7.01498M7.11616 9.60887C6.88706 8.9978 6.7619 8.33687 6.7619 7.64706C6.7619 4.52827 9.32028 2 12.4762 2C15.4159 2 17.8371 4.19371 18.1551 7.01498M7.11616 9.60887C7.68059 9.71839 8.20528 9.9374 8.66667 10.2426M18.1551 7.01498C20.393 7.78024 22 9.88113 22 12.3529C22 15.0599 20.0726 17.3221 17.5 17.8722" stroke="#1C274C" stroke-width="1.5" stroke-linecap="round"/>
<path d="M9.62607 17.4544L10.7744 15.9008C11.5166 14.8965 11.8878 14.3944 12.234 14.5005C12.5803 14.6066 12.5803 15.2225 12.5803 16.4542V16.5703C12.5803 17.0146 12.5803 17.2367 12.7222 17.3761L12.7297 17.3833C12.8748 17.5197 13.106 17.5197 13.5683 17.5197C14.4004 17.5197 14.8165 17.5197 14.9571 17.772C14.9594 17.7762 14.9617 17.7804 14.9639 17.7847C15.0966 18.0409 14.8557 18.3668 14.3739 19.0187L13.2256 20.5723C12.4833 21.5766 12.1122 22.0787 11.7659 21.9726C11.4197 21.8665 11.4197 21.2506 11.4197 20.0188L11.4197 19.9028C11.4197 19.4585 11.4197 19.2364 11.2778 19.097L11.2703 19.0898C11.1252 18.9534 10.894 18.9534 10.4317 18.9534C9.59958 18.9534 9.18354 18.9534 9.04294 18.7011C9.04061 18.6969 9.03835 18.6927 9.03615 18.6884C8.90342 18.4322 9.1443 18.1062 9.62607 17.4544Z" stroke="#1C274C" stroke-width="1.5"/>
</svg>
