<svg width="24" height="24" viewBox="0 0 24 24" fill="#1C274C" xmlns="http://www.w3.org/2000/svg">
<circle cx="12" cy="12" r="10" stroke="#1C274C" stroke-width="1.5"/>
<path d="M13.024 14.5591C10.7142 15.483 9.5593 15.945 8.89964 15.4967C8.74324 15.3904 8.60834 15.2555 8.50206 15.0991C8.0538 14.4395 8.51575 13.2846 9.43967 10.9748C9.63673 10.4821 9.73527 10.2358 9.90474 10.0426C9.94792 9.99331 9.99429 9.94695 10.0435 9.90376C10.2368 9.73429 10.4831 9.63576 10.9758 9.43869C13.2856 8.51478 14.4405 8.05282 15.1001 8.50108C15.2565 8.60736 15.3914 8.74226 15.4977 8.89867C15.946 9.55832 15.484 10.7132 14.5601 13.023C14.363 13.5157 14.2645 13.762 14.095 13.9552C14.0518 14.0045 14.0055 14.0509 13.9562 14.094C13.763 14.2635 13.5166 14.362 13.024 14.5591Z" stroke="#1C274C" stroke-width="1.5"/>
</svg>
