<svg width="24" height="24" viewBox="0 0 24 24" fill="#1C274C" xmlns="http://www.w3.org/2000/svg">
<path d="M13.0241 14.5611C10.7143 15.485 9.55942 15.9469 8.89976 15.4987C8.74336 15.3924 8.60846 15.2575 8.50218 15.1011C8.05392 14.4414 8.51588 13.2865 9.43979 10.9768C9.63686 10.4841 9.73539 10.2378 9.90486 10.0445C9.94804 9.99526 9.99441 9.9489 10.0437 9.90571C10.2369 9.73624 10.4832 9.63771 10.9759 9.44064C13.2857 8.51673 14.4406 8.05477 15.1002 8.50303C15.2566 8.60932 15.3915 8.74421 15.4978 8.90062C15.9461 9.56027 15.4841 10.7152 14.5602 13.0249C14.3631 13.5176 14.2646 13.7639 14.0951 13.9572C14.052 14.0064 14.0056 14.0528 13.9563 14.096C13.7631 14.2655 13.5168 14.364 13.0241 14.5611Z" stroke="#1C274C" stroke-width="1.5"/>
<path d="M2 12C2 7.28595 2 4.92893 3.46447 3.46447C4.92893 2 7.28595 2 12 2C16.714 2 19.0711 2 20.5355 3.46447C22 4.92893 22 7.28595 22 12C22 16.714 22 19.0711 20.5355 20.5355C19.0711 22 16.714 22 12 22C7.28595 22 4.92893 22 3.46447 20.5355C2 19.0711 2 16.714 2 12Z" stroke="#1C274C" stroke-width="1.5"/>
</svg>
