<svg width="24" height="24" viewBox="0 0 24 24" fill="#1C274C" xmlns="http://www.w3.org/2000/svg">
<path d="M4.01207 15.7618L5.70156 10.6933C6.46758 8.39525 6.85059 7.24623 7.75684 7.03229C8.6631 6.81835 9.51953 7.67478 11.2324 9.38764L14.6114 12.7666C16.3242 14.4795 17.1807 15.3359 16.9667 16.2422C16.7528 17.1484 15.6038 17.5314 13.3057 18.2975L8.23724 19.987C5.47183 20.9088 4.08912 21.3697 3.35924 20.6398C2.62936 19.9099 3.09026 18.5272 4.01207 15.7618Z" stroke="#1C274C" stroke-width="1.5" stroke-linecap="round"/>
<path d="M12.2352 18.3461C12.2352 18.3461 11.477 16.0649 11.477 14.5552C11.477 13.0454 12.2352 10.7643 12.2352 10.7643M8.06526 19.4833C8.06526 19.4833 7.42494 16.7314 7.30709 14.9343C7.11238 11.965 8.06526 7.35254 8.06526 7.35254" stroke="#1C274C" stroke-width="1.5" stroke-linecap="round"/>
<path d="M14.5093 10.0061L14.6533 9.28614C14.7987 8.55924 15.3224 7.96597 16.0257 7.73155C16.7289 7.49714 17.2526 6.90387 17.398 6.17697L17.542 5.45703" stroke="#1C274C" stroke-width="1.5" stroke-linecap="round"/>
<path d="M17.5693 13.2533L17.7822 13.3762C18.4393 13.7556 19.2655 13.6719 19.8332 13.1685C20.3473 12.7126 21.0794 12.597 21.709 12.8723L22.0005 12.9997" stroke="#1C274C" stroke-width="1.5" stroke-linecap="round"/>
<path d="M9.79513 2.77952C9.45764 3.33157 9.54223 4.04296 9.99976 4.50049L10.0976 4.59837C10.4908 4.99153 10.6358 5.56911 10.4749 6.10134" stroke="#1C274C" stroke-width="1.5" stroke-linecap="round"/>
<path d="M6.92761 3.9403C7.13708 3.73084 7.47669 3.73084 7.68616 3.9403C7.89563 4.14977 7.89563 4.48939 7.68616 4.69886C7.47669 4.90833 7.13708 4.90833 6.92761 4.69886C6.71814 4.48939 6.71814 4.14977 6.92761 3.9403Z" fill="#1C274C"/>
<path d="M12.1571 7.1571C12.3666 6.94763 12.7062 6.94763 12.9157 7.1571C13.1251 7.36657 13.1251 7.70619 12.9157 7.91566C12.7062 8.12512 12.3666 8.12512 12.1571 7.91566C11.9476 7.70619 11.9476 7.36657 12.1571 7.1571Z" fill="#1C274C"/>
<path d="M17.1571 10.1571C17.3666 9.94763 17.7062 9.94763 17.9157 10.1571C18.1251 10.3666 18.1251 10.7062 17.9157 10.9157C17.7062 11.1251 17.3666 11.1251 17.1571 10.9157C16.9476 10.7062 16.9476 10.3666 17.1571 10.1571Z" fill="#1C274C"/>
<path d="M19.0582 15.3134C19.2677 15.1039 19.6073 15.1039 19.8168 15.3134C20.0262 15.5228 20.0262 15.8624 19.8168 16.0719C19.6073 16.2814 19.2677 16.2814 19.0582 16.0719C18.8488 15.8624 18.8488 15.5228 19.0582 15.3134Z" fill="#1C274C"/>
<path d="M19.3616 7.71388C18.6913 8.38414 19.1723 10.3275 19.1723 10.3275C19.1723 10.3275 21.1157 10.8085 21.786 10.1382C22.4959 9.42835 22.0942 8.49659 21.0003 8.49951C21.0033 7.40566 20.0715 7.00398 19.3616 7.71388Z" stroke="#1C274C" stroke-linejoin="round"/>
<path d="M15.1883 3.41748L15.1607 3.51459C15.1304 3.62126 15.1152 3.67459 15.1224 3.72695C15.1295 3.77931 15.1582 3.82476 15.2156 3.91567L15.2678 3.99844C15.4697 4.31836 15.5706 4.47831 15.5018 4.60915C15.4331 4.73998 15.2402 4.75504 14.8543 4.78517L14.7545 4.79296C14.6449 4.80152 14.59 4.8058 14.5421 4.83099C14.4942 4.85618 14.4586 4.89943 14.3874 4.98592L14.3225 5.06467C14.0719 5.36905 13.9466 5.52124 13.8037 5.50167C13.6608 5.4821 13.5949 5.30373 13.4631 4.94699L13.429 4.85469C13.3915 4.75332 13.3728 4.70263 13.336 4.66584C13.2992 4.62905 13.2485 4.61033 13.1471 4.57287L13.0549 4.53878C12.6981 4.40698 12.5197 4.34108 12.5002 4.19815C12.4806 4.05522 12.6328 3.92992 12.9372 3.67932L13.0159 3.61448C13.1024 3.54327 13.1457 3.50767 13.1709 3.45974C13.196 3.41181 13.2003 3.35699 13.2089 3.24735L13.2167 3.14753C13.2468 2.76169 13.2619 2.56877 13.3927 2.50001C13.5235 2.43124 13.6835 2.53217 14.0034 2.73403L14.0862 2.78626C14.1771 2.84362 14.2225 2.8723 14.2749 2.87947C14.3273 2.88664 14.3806 2.87148 14.4872 2.84117L14.5844 2.81358C14.9597 2.70692 15.1474 2.65359 15.2478 2.75402C15.3483 2.85445 15.2949 3.04213 15.1883 3.41748Z" stroke="#1C274C"/>
</svg>
