<svg width="24" height="24" viewBox="0 0 24 24" fill="#1C274C" xmlns="http://www.w3.org/2000/svg">
<path d="M12.9407 10.5127L12.5574 11.1516L12.9407 10.5127ZM12.4105 8.0218L13.1534 8.12516C13.2033 7.71396 12.9111 7.33434 12.5008 7.27725L12.4105 8.0218ZM12.3164 9.6443L11.5911 9.81699L12.3164 9.6443ZM16.0918 10.1696L16.7518 10.5351L16.0918 10.1696ZM15.2811 10.8383L15.4992 11.561L15.2811 10.8383ZM16.116 3.95431L16.4992 3.31533L16.116 3.95431ZM16.7403 4.82267L17.4655 4.64998L16.7403 4.82267ZM13.7756 3.62863L13.5575 2.90597L13.7756 3.62863ZM12.6689 5.89173L12.5786 6.63628C12.9888 6.69336 13.3619 6.4063 13.4117 5.9951L12.6689 5.89173ZM12.9649 4.29732L12.3049 3.93186L12.9649 4.29732ZM2.83191 9.106L2.44865 9.74498L2.83191 9.106ZM2.20764 8.23764L1.48237 8.41033L2.20764 8.23764ZM6.27901 7.16858L6.36931 6.42403C5.95905 6.36694 5.58604 6.65401 5.53617 7.06521L6.27901 7.16858ZM5.98302 8.76299L6.64302 9.12845L5.98302 8.76299ZM5.17232 9.43167L5.39044 10.1543L5.17232 9.43167ZM6.00724 2.54765L6.3905 1.90867L6.00724 2.54765ZM6.53735 5.03851L5.79451 4.93514C5.74464 5.34634 6.03679 5.72597 6.44705 5.78306L6.53735 5.03851ZM6.63152 3.41601L7.35679 3.24332L6.63152 3.41601ZM3.66683 2.22198L3.44872 1.49931L3.66683 2.22198ZM2.85614 2.89066L2.19614 2.5252L2.85614 2.89066ZM15.9463 5.98679L15.6019 8.82688L17.0875 9.03361L17.432 6.19353L15.9463 5.98679ZM14.1881 10.039C13.8683 9.99456 13.6684 9.96626 13.5181 9.93408C13.3755 9.90354 13.3348 9.8804 13.3239 9.87368L12.5574 11.1516C12.777 11.2869 13.0061 11.3563 13.2299 11.4042C13.4461 11.4505 13.7094 11.4867 14.0074 11.5281L14.1881 10.039ZM11.6677 7.91843C11.6281 8.24466 11.585 8.59921 11.5613 8.90756C11.5406 9.17728 11.5214 9.54021 11.5911 9.81699L13.0417 9.4716C13.047 9.49269 13.0395 9.47094 13.0389 9.37599C13.0384 9.2917 13.0432 9.1823 13.0535 9.04852C13.0741 8.77979 13.1127 8.46058 13.1534 8.12516L11.6677 7.91843ZM13.3239 9.87368C13.1957 9.79467 13.0878 9.65489 13.0417 9.4716L11.5911 9.81699C11.7297 10.367 12.0709 10.852 12.5574 11.1516L13.3239 9.87368ZM15.6019 8.82688C15.5606 9.16724 15.5335 9.38757 15.5023 9.55488C15.4721 9.71644 15.4467 9.77638 15.4318 9.80419L16.7518 10.5351C16.8694 10.316 16.9303 10.0871 16.9734 9.85607C17.0155 9.63082 17.0486 9.3549 17.0875 9.03361L15.6019 8.82688ZM14.0074 11.5281C14.3055 11.5696 14.5686 11.6067 14.7887 11.6211C15.0166 11.636 15.2546 11.6317 15.4992 11.561L15.063 10.1157C15.0508 10.1192 15.006 10.1304 14.8608 10.1209C14.7079 10.1109 14.5078 10.0835 14.1881 10.039L14.0074 11.5281ZM15.4318 9.80419C15.3434 9.96877 15.2058 10.0744 15.063 10.1157L15.4992 11.561C16.041 11.4044 16.4866 11.029 16.7518 10.5351L15.4318 9.80419ZM14.8686 4.42792C15.1883 4.47241 15.3883 4.50071 15.5386 4.53288C15.6812 4.56342 15.7218 4.58657 15.7327 4.59329L16.4992 3.31533C16.2796 3.18005 16.0506 3.11071 15.8267 3.06277C15.6105 3.01647 15.3472 2.9803 15.0492 2.93883L14.8686 4.42792ZM17.432 6.19353C17.471 5.87224 17.5048 5.59642 17.5179 5.36714C17.5313 5.13202 17.527 4.894 17.4655 4.64998L16.015 4.99536C16.0228 5.02634 16.0331 5.09125 16.0237 5.2557C16.014 5.426 15.9876 5.64643 15.9463 5.98679L17.432 6.19353ZM15.7327 4.59329C15.861 4.67229 15.9688 4.81207 16.015 4.99536L17.4655 4.64998C17.327 4.09992 16.9857 3.61498 16.4992 3.31533L15.7327 4.59329ZM15.0492 2.93883C14.7512 2.89737 14.488 2.86027 14.2679 2.84586C14.04 2.83094 13.8021 2.83529 13.5575 2.90597L13.9937 4.3513C14.0058 4.34779 14.0506 4.33653 14.1958 4.34604C14.3488 4.35606 14.5489 4.38343 14.8686 4.42792L15.0492 2.93883ZM13.4117 5.9951C13.4524 5.65968 13.4913 5.34052 13.5354 5.07506C13.5574 4.94291 13.5788 4.83581 13.5994 4.75446C13.6226 4.66282 13.635 4.64384 13.6249 4.66277L12.3049 3.93186C12.1715 4.18037 12.1034 4.5365 12.0591 4.80294C12.0085 5.10754 11.9656 5.46213 11.926 5.78836L13.4117 5.9951ZM13.5575 2.90597C13.0157 3.06254 12.57 3.43798 12.3049 3.93186L13.6249 4.66277C13.7132 4.4982 13.8508 4.39258 13.9937 4.3513L13.5575 2.90597ZM3.00159 7.07352L3.34604 4.23343L1.86036 4.0267L1.5159 6.86678L3.00159 7.07352ZM4.07931 8.63239C3.75959 8.5879 3.55961 8.5596 3.40934 8.52742C3.26672 8.49688 3.22608 8.47374 3.21517 8.46702L2.44865 9.74498C2.66826 9.88026 2.89732 9.9496 3.12118 9.99754C3.3374 10.0438 3.6007 10.08 3.8987 10.1215L4.07931 8.63239ZM1.5159 6.86678C1.47693 7.18807 1.44312 7.46389 1.43003 7.69317C1.41661 7.92829 1.4209 8.1663 1.48237 8.41033L2.93291 8.06495C2.9251 8.03397 2.91482 7.96906 2.92421 7.80461C2.93393 7.63431 2.9603 7.41388 3.00159 7.07352L1.5159 6.86678ZM3.21517 8.46702C3.08691 8.38802 2.97907 8.24824 2.93291 8.06495L1.48237 8.41033C1.62091 8.96039 1.96218 9.44533 2.44865 9.74498L3.21517 8.46702ZM5.53617 7.06521C5.49549 7.40063 5.45663 7.71979 5.41249 7.98525C5.39051 8.1174 5.3691 8.2245 5.3485 8.30585C5.32529 8.39749 5.31285 8.41647 5.32301 8.39754L6.64302 9.12845C6.77644 8.87994 6.84447 8.52381 6.88878 8.25737C6.93943 7.95277 6.98229 7.59818 7.02185 7.27195L5.53617 7.06521ZM3.8987 10.1215C4.19671 10.1629 4.4599 10.2 4.67999 10.2144C4.90785 10.2294 5.14584 10.225 5.39044 10.1543L4.95421 8.70901C4.94206 8.71252 4.89725 8.72378 4.75207 8.71427C4.59911 8.70425 4.39902 8.67688 4.07931 8.63239L3.8987 10.1215ZM5.32301 8.39754C5.23466 8.56211 5.09705 8.66773 4.95421 8.70901L5.39044 10.1543C5.93224 9.99777 6.37786 9.62233 6.64302 9.12845L5.32301 8.39754ZM4.75985 3.02126C5.07956 3.06575 5.27954 3.09405 5.42981 3.12623C5.57244 3.15677 5.61307 3.17991 5.62398 3.18663L6.3905 1.90867C6.17089 1.77339 5.94184 1.70405 5.71798 1.65612C5.50176 1.60981 5.23845 1.57364 4.94045 1.53218L4.75985 3.02126ZM7.2802 5.14188C7.31976 4.81565 7.36291 4.4611 7.3866 4.15274C7.40732 3.88303 7.4265 3.5201 7.35679 3.24332L5.90625 3.5887C5.90094 3.56762 5.90844 3.58937 5.90901 3.68432C5.90953 3.76861 5.90468 3.87801 5.8944 4.01179C5.87376 4.28052 5.83519 4.59972 5.79451 4.93514L7.2802 5.14188ZM5.62398 3.18663C5.75224 3.26563 5.86008 3.40541 5.90625 3.5887L7.35679 3.24332C7.21825 2.69326 6.87697 2.20832 6.3905 1.90867L5.62398 3.18663ZM4.94045 1.53218C4.64245 1.49071 4.37925 1.45362 4.15916 1.4392C3.9313 1.42428 3.69331 1.42863 3.44872 1.49931L3.88495 2.94464C3.8971 2.94113 3.9419 2.92987 4.08708 2.93938C4.24004 2.9494 4.44013 2.97677 4.75985 3.02126L4.94045 1.53218ZM3.34604 4.23343C3.38732 3.89307 3.4144 3.67274 3.44563 3.50543C3.47578 3.34387 3.50121 3.28393 3.51614 3.25611L2.19614 2.5252C2.0785 2.74431 2.01758 2.97324 1.97447 3.20424C1.93243 3.42949 1.89932 3.7054 1.86036 4.0267L3.34604 4.23343ZM3.44872 1.49931C2.90692 1.65588 2.46129 2.03132 2.19614 2.5252L3.51614 3.25611C3.60449 3.09154 3.7421 2.98592 3.88495 2.94464L3.44872 1.49931ZM6.44705 5.78306L12.5786 6.63628L12.7592 5.14719L6.62765 4.29397L6.44705 5.78306ZM12.5008 7.27725L6.36931 6.42403L6.18871 7.91312L12.3202 8.76634L12.5008 7.27725Z" fill="#1C274C"/>
<path d="M11.3306 21.0119L11.7873 21.5947L11.3306 21.0119ZM11.5486 18.4678L10.8277 18.6747C10.7272 18.2729 10.9684 17.8545 11.3666 17.7402L11.5486 18.4678ZM11.8422 20.0627L12.5799 20.1345L11.8422 20.0627ZM8.16482 21.1182L7.55944 21.5755L8.16482 21.1182ZM9.05094 21.6662L8.92745 22.4155L9.05094 21.6662ZM7.37357 14.9608L6.91684 14.378L7.37357 14.9608ZM6.86197 15.91L6.12424 15.8382L6.86197 15.91ZM9.65324 14.3066L9.77673 13.5572L9.65324 14.3066ZM11.0296 16.393L11.2116 17.1206C10.8134 17.2349 10.4092 17.0018 10.3087 16.6L11.0296 16.393ZM10.5394 14.8546L11.1447 14.3973L10.5394 14.8546ZM21.177 18.1859L21.6337 18.7687L21.6337 18.7687L21.177 18.1859ZM21.6886 17.2367L22.4263 17.3085L21.6886 17.2367ZM17.521 16.7537L17.339 16.0261C17.7371 15.9118 18.1413 16.145 18.2419 16.5468L17.521 16.7537ZM18.0112 18.2922L17.4058 18.7495L18.0112 18.2922ZM18.8973 18.8402L18.7738 19.5895L18.8973 18.8402ZM17.2199 12.1348L16.7632 11.5521L17.2199 12.1348ZM17.0019 14.6789L17.7228 14.472C17.8234 14.8738 17.5821 15.2922 17.184 15.4065L17.0019 14.6789ZM16.7083 13.084L15.9706 13.0122L16.7083 13.084ZM19.4996 11.4806L19.6231 10.7312L19.6231 10.7312L19.4996 11.4806ZM20.3857 12.0286L20.9911 11.5713L20.3857 12.0286ZM7.78999 16.9522L8.48201 19.7186L7.04022 20.1324L6.3482 17.366L7.78999 16.9522ZM10.0351 20.7167C10.3464 20.6274 10.5415 20.5709 10.6868 20.5176C10.8249 20.467 10.8631 20.4379 10.8739 20.4291L11.7873 21.5947C11.5871 21.7593 11.3695 21.8601 11.154 21.9391C10.9457 22.0155 10.6895 22.0886 10.3991 22.1719L10.0351 20.7167ZM12.2695 18.2609C12.349 18.5786 12.4355 18.9241 12.4971 19.2266C12.5509 19.4909 12.615 19.8491 12.5799 20.1345L11.1045 19.991C11.1017 20.0134 11.1065 19.9914 11.0954 19.8974C11.0856 19.8141 11.0673 19.7065 11.0406 19.5755C10.987 19.3122 10.9094 19.0015 10.8277 18.6747L12.2695 18.2609ZM10.8739 20.4291C10.9925 20.3316 11.0815 20.1775 11.1045 19.991L12.5799 20.1345C12.5103 20.701 12.2313 21.2298 11.7873 21.5947L10.8739 20.4291ZM8.48201 19.7186C8.56497 20.0502 8.61894 20.2645 8.67045 20.4256C8.72016 20.5811 8.75249 20.6362 8.77021 20.6609L7.55944 21.5755C7.41528 21.3742 7.32636 21.1552 7.25499 20.9319C7.18542 20.7143 7.11848 20.4452 7.04022 20.1324L8.48201 19.7186ZM10.3991 22.1719C10.1087 22.2552 9.85276 22.3292 9.63673 22.3746C9.4132 22.4215 9.17766 22.4508 8.92745 22.4155L9.17444 20.9168C9.18787 20.9187 9.23458 20.9234 9.3778 20.8933C9.52852 20.8617 9.7238 20.8061 10.0351 20.7167L10.3991 22.1719ZM8.77021 20.6609C8.87718 20.8102 9.02624 20.896 9.17444 20.9168L8.92745 22.4155C8.37259 22.3373 7.88416 22.0288 7.55944 21.5755L8.77021 20.6609ZM8.66907 15.256C8.35777 15.3453 8.16271 15.4018 8.0174 15.4551C7.87932 15.5057 7.84106 15.5348 7.8303 15.5436L6.91684 14.378C7.11706 14.2135 7.3347 14.1127 7.55021 14.0336C7.75848 13.9572 8.01468 13.8842 8.30506 13.8008L8.66907 15.256ZM6.3482 17.366C6.26993 17.0532 6.2023 16.7843 6.16097 16.5586C6.11857 16.327 6.09333 16.0897 6.12424 15.8382L7.59971 15.9818C7.59591 16.0127 7.59362 16.0777 7.62315 16.239C7.65375 16.4061 7.70703 16.6206 7.78999 16.9522L6.3482 17.366ZM7.8303 15.5436C7.71172 15.6411 7.62264 15.7952 7.59971 15.9818L6.12424 15.8382C6.19386 15.2717 6.47284 14.743 6.91684 14.378L7.8303 15.5436ZM8.30506 13.8008C8.59544 13.7175 8.85142 13.6435 9.06745 13.5982C9.29098 13.5512 9.52652 13.5219 9.77673 13.5572L9.52974 15.0559C9.5163 15.054 9.4696 15.0493 9.32638 15.0794C9.17566 15.1111 8.98038 15.1666 8.66907 15.256L8.30506 13.8008ZM10.3087 16.6C10.2269 16.2732 10.1491 15.9625 10.0726 15.7058C10.0345 15.5781 10.0002 15.4752 9.96979 15.3977C9.93556 15.3104 9.92113 15.2939 9.93397 15.3118L11.1447 14.3973C11.3084 14.6257 11.4201 14.9702 11.4968 15.2279C11.5847 15.5228 11.671 15.8684 11.7505 16.1861L10.3087 16.6ZM9.77673 13.5572C10.3316 13.6355 10.82 13.944 11.1447 14.3973L9.93397 15.3118C9.827 15.1625 9.67794 15.0768 9.52974 15.0559L9.77673 13.5572ZM20.7605 16.1945L20.0685 13.4282L21.5103 13.0144L22.2023 15.7807L20.7605 16.1945ZM19.8815 17.8907C20.1928 17.8014 20.3878 17.7449 20.5331 17.6916C20.6712 17.641 20.7095 17.6119 20.7202 17.6031L21.6337 18.7687C21.4335 18.9333 21.2158 19.0341 21.0003 19.1131C20.792 19.1895 20.5358 19.2626 20.2455 19.3459L19.8815 17.8907ZM22.2023 15.7807C22.2806 16.0936 22.3482 16.3625 22.3896 16.5882C22.432 16.8197 22.4572 17.057 22.4263 17.3085L20.9508 17.165C20.9546 17.134 20.9569 17.069 20.9274 16.9078C20.8968 16.7406 20.8435 16.5261 20.7605 16.1945L22.2023 15.7807ZM20.7202 17.6031C20.8388 17.5056 20.9279 17.3516 20.9508 17.165L22.4263 17.3085C22.3567 17.875 22.0777 18.4038 21.6337 18.7687L20.7202 17.6031ZM18.2419 16.5468C18.3236 16.8735 18.4015 17.1842 18.4779 17.4409C18.516 17.5687 18.5504 17.6716 18.5807 17.749C18.615 17.8364 18.6294 17.8528 18.6166 17.8349L17.4058 18.7495C17.2422 18.5211 17.1305 18.1766 17.0537 17.9188C16.9658 17.6239 16.8795 17.2783 16.8001 16.9606L18.2419 16.5468ZM20.2455 19.3459C19.9551 19.4292 19.6991 19.5032 19.4831 19.5486C19.2595 19.5955 19.024 19.6248 18.7738 19.5895L19.0208 18.0909C19.0342 18.0927 19.0809 18.0974 19.2241 18.0673C19.3749 18.0357 19.5701 17.9801 19.8815 17.8907L20.2455 19.3459ZM18.6166 17.8349C18.7235 17.9842 18.8726 18.07 19.0208 18.0909L18.7738 19.5895C18.2189 19.5113 17.7305 19.2028 17.4058 18.7495L18.6166 17.8349ZM18.5154 12.43C18.2041 12.5193 18.0091 12.5758 17.8637 12.6291C17.7257 12.6798 17.6874 12.7088 17.6767 12.7176L16.7632 11.5521C16.9634 11.3875 17.181 11.2867 17.3966 11.2076C17.6048 11.1312 17.861 11.0582 18.1514 10.9748L18.5154 12.43ZM16.281 14.8858C16.2016 14.5681 16.115 14.2226 16.0534 13.9201C15.9996 13.6558 15.9355 13.2977 15.9706 13.0122L17.4461 13.1558C17.4488 13.1334 17.444 13.1554 17.4551 13.2493C17.465 13.3327 17.4832 13.4402 17.5099 13.5712C17.5635 13.8345 17.6411 14.1453 17.7228 14.472L16.281 14.8858ZM17.6767 12.7176C17.5581 12.8151 17.469 12.9692 17.4461 13.1558L15.9706 13.0122C16.0402 12.4457 16.3192 11.917 16.7632 11.5521L17.6767 12.7176ZM18.1514 10.9748C18.4418 10.8915 18.6978 10.8176 18.9138 10.7722C19.1373 10.7252 19.3729 10.696 19.6231 10.7312L19.3761 12.2299C19.3627 12.228 19.3159 12.2233 19.1727 12.2534C19.022 12.2851 18.8267 12.3407 18.5154 12.43L18.1514 10.9748ZM20.0685 13.4282C19.9856 13.0965 19.9316 12.8823 19.8801 12.7211C19.8304 12.5656 19.798 12.5106 19.7803 12.4858L20.9911 11.5713C21.1352 11.7725 21.2242 11.9916 21.2955 12.2148C21.3651 12.4324 21.432 12.7015 21.5103 13.0144L20.0685 13.4282ZM19.6231 10.7312C20.1779 10.8095 20.6664 11.118 20.9911 11.5713L19.7803 12.4858C19.6734 12.3365 19.5243 12.2508 19.3761 12.2299L19.6231 10.7312ZM17.184 15.4065L11.2116 17.1206L10.8476 15.6655L16.8199 13.9513L17.184 15.4065ZM11.3666 17.7402L17.339 16.0261L17.703 17.4813L11.7306 19.1954L11.3666 17.7402Z" fill="#1C274C"/>
</svg>
