<svg width="24" height="24" viewBox="0 0 24 24" fill="#1C274C" xmlns="http://www.w3.org/2000/svg">
<path d="M14.4603 18.745L14.9906 19.2753L14.9906 19.2753L14.4603 18.745ZM15.2274 17.9779L14.6971 17.4475L14.6971 17.4475L15.2274 17.9779ZM18.4821 13.3751L19.2321 13.3751L18.4821 13.3751ZM6.02184 8.77225L6.55217 9.30258L6.55217 9.30258L6.02184 8.77225ZM10.6246 5.51758L10.6246 6.26758L10.6246 5.51758ZM5.2547 9.53939L4.72437 9.00906L4.72437 9.00906L5.2547 9.53939ZM2.00003 14.1422L1.25003 14.1422L2.00003 14.1422ZM5.78503 13.6119C5.49214 13.319 5.01727 13.319 4.72437 13.6119C4.43148 13.9048 4.43148 14.3796 4.72437 14.6725L5.78503 13.6119ZM9.32718 19.2753C9.62007 19.5682 10.0949 19.5682 10.3878 19.2753C10.6807 18.9824 10.6807 18.5076 10.3878 18.2147L9.32718 19.2753ZM5.78503 10.0697L6.55217 9.30258L5.49151 8.24192L4.72437 9.00906L5.78503 10.0697ZM14.6971 17.4475L13.93 18.2147L14.9906 19.2753L15.7578 18.5082L14.6971 17.4475ZM13.93 18.2147C12.8301 19.3145 12.0574 20.085 11.3959 20.5897C10.7516 21.0813 10.3017 21.2497 9.85751 21.2497L9.85751 22.7497C10.7615 22.7497 11.528 22.3756 12.3057 21.7823C13.0661 21.2021 13.9207 20.3452 14.9906 19.2753L13.93 18.2147ZM4.72437 19.2753C5.79427 20.3452 6.64892 21.2021 7.40929 21.7823C8.18696 22.3756 8.95352 22.7497 9.85751 22.7497L9.85751 21.2497C9.41336 21.2497 8.96341 21.0813 8.31916 20.5897C7.65761 20.085 6.88492 19.3145 5.78503 18.2147L4.72437 19.2753ZM14.6971 9.30258C15.797 10.4025 16.5674 11.1752 17.0722 11.8367C17.5637 12.481 17.7321 12.9309 17.7321 13.3751L19.2321 13.3751C19.2321 12.4711 18.8581 11.7045 18.2647 10.9268C17.6846 10.1665 16.8277 9.31182 15.7578 8.24192L14.6971 9.30258ZM15.7578 18.5082C16.8277 17.4383 17.6846 16.5836 18.2647 15.8233C18.8581 15.0456 19.2321 14.279 19.2321 13.3751L17.7321 13.3751C17.7321 13.8192 17.5637 14.2692 17.0722 14.9134C16.5674 15.575 15.797 16.3476 14.6971 17.4475L15.7578 18.5082ZM6.55217 9.30258C7.65205 8.2027 8.42474 7.43226 9.08629 6.92751C9.73054 6.43597 10.1805 6.26758 10.6246 6.26758L10.6246 4.76758C9.72066 4.76758 8.9541 5.14163 8.17642 5.73498C7.41605 6.31512 6.56141 7.17202 5.49151 8.24192L6.55217 9.30258ZM15.7578 8.24192C14.6879 7.17202 13.8332 6.31512 13.0729 5.73498C12.2952 5.14163 11.5286 4.76758 10.6246 4.76758L10.6246 6.26758C11.0688 6.26758 11.5187 6.43597 12.163 6.92751C12.8245 7.43226 13.5972 8.2027 14.6971 9.30258L15.7578 8.24192ZM4.72437 9.00906C3.65447 10.079 2.79757 10.9336 2.21743 11.694C1.62409 12.4716 1.25003 13.2382 1.25003 14.1422L2.75003 14.1422C2.75003 13.698 2.91842 13.2481 3.40997 12.6038C3.91471 11.9423 4.68515 11.1696 5.78503 10.0697L4.72437 9.00906ZM5.78503 18.2147C4.68515 17.1148 3.91471 16.3421 3.40996 15.6805C2.91842 15.0363 2.75003 14.5863 2.75003 14.1422L1.25003 14.1422C1.25003 15.0462 1.62409 15.8127 2.21743 16.5904C2.79757 17.3508 3.65447 18.2054 4.72437 19.2753L5.78503 18.2147ZM4.72437 14.6725L9.32718 19.2753L10.3878 18.2147L5.78503 13.6119L4.72437 14.6725Z" fill="#1C274C"/>
<path d="M19.8301 10.441L20.3647 10.967L19.8301 10.441ZM17.7613 11.4739C17.4708 11.7692 17.4746 12.244 17.7698 12.5346C18.065 12.8251 18.5399 12.8213 18.8304 12.5261L17.7613 11.4739ZM19.8301 4.20481L19.2956 4.73088L19.8301 4.20481ZM21.9999 7.32289H22.7499H21.9999ZM13.6931 4.20481L14.2276 4.73088H14.2276L13.6931 4.20481ZM16.7616 2V2.75V2ZM11.4654 5.39919C11.1748 5.69442 11.1786 6.16928 11.4739 6.45982C11.7691 6.75036 12.244 6.74656 12.5345 6.45133L11.4654 5.39919ZM19.2956 9.91489L17.7613 11.4739L18.8304 12.5261L20.3647 10.967L19.2956 9.91489ZM19.2956 4.73088C20.0336 5.48084 20.5333 5.99085 20.8577 6.42291C21.1688 6.83718 21.2499 7.09251 21.2499 7.32289H22.7499C22.7499 6.64 22.4695 6.07123 22.0572 5.52225C21.6584 4.99105 21.0732 4.39865 20.3647 3.67874L19.2956 4.73088ZM20.3647 10.967C21.0732 10.2471 21.6584 9.65472 22.0572 9.12352C22.4694 8.57454 22.7499 8.00577 22.7499 7.32289H21.2499C21.2499 7.55327 21.1688 7.8086 20.8577 8.22287C20.5333 8.65492 20.0336 9.16493 19.2956 9.91489L20.3647 10.967ZM14.2276 4.73088C14.9658 3.98075 15.4675 3.47324 15.8923 3.14393C16.3002 2.82765 16.5459 2.75 16.7616 2.75V1.25C16.0786 1.25 15.5132 1.53982 14.9732 1.95848C14.45 2.36411 13.8668 2.959 13.1585 3.67874L14.2276 4.73088ZM20.3647 3.67874C19.6564 2.959 19.0732 2.36411 18.55 1.95847C18.01 1.53982 17.4446 1.25 16.7616 1.25V2.75C16.9773 2.75 17.223 2.82765 17.6309 3.14393C18.0557 3.47324 18.5574 3.98075 19.2956 4.73088L20.3647 3.67874ZM13.1585 3.67874L11.4654 5.39919L12.5345 6.45133L14.2276 4.73088L13.1585 3.67874Z" fill="#1C274C"/>
<path d="M14.4603 18.745L14.9906 19.2753H14.9906L14.4603 18.745ZM15.2274 17.9779L14.6971 17.4475H14.6971L15.2274 17.9779ZM18.4821 13.3751H19.2321H18.4821ZM6.02181 8.77225L6.55214 9.30258V9.30258L6.02181 8.77225ZM5.25467 9.53939L4.72434 9.00906V9.00906L5.25467 9.53939ZM5.785 13.6119C5.49211 13.319 5.01724 13.319 4.72434 13.6119C4.43145 13.9048 4.43145 14.3796 4.72434 14.6725L5.785 13.6119ZM9.32715 19.2753C9.62004 19.5682 10.0949 19.5682 10.3878 19.2753C10.6807 18.9824 10.6807 18.5076 10.3878 18.2147L9.32715 19.2753ZM5.785 10.0697L6.55214 9.30258L5.49148 8.24192L4.72434 9.00906L5.785 10.0697ZM14.6971 17.4475L13.9299 18.2147L14.9906 19.2753L15.7577 18.5082L14.6971 17.4475ZM13.9299 18.2147C12.8301 19.3145 12.0574 20.085 11.3958 20.5897C10.7516 21.0813 10.3016 21.2497 9.85748 21.2497V22.7497C10.7615 22.7497 11.528 22.3756 12.3057 21.7823C13.0661 21.2021 13.9207 20.3452 14.9906 19.2753L13.9299 18.2147ZM4.72434 19.2753C5.79424 20.3452 6.64889 21.2021 7.40926 21.7823C8.18693 22.3756 8.95349 22.7497 9.85748 22.7497V21.2497C9.41333 21.2497 8.96338 21.0813 8.31913 20.5897C7.65758 20.085 6.88489 19.3145 5.785 18.2147L4.72434 19.2753ZM14.6971 9.30258C15.797 10.4025 16.5674 11.1752 17.0722 11.8367C17.5637 12.481 17.7321 12.9309 17.7321 13.3751H19.2321C19.2321 12.4711 18.858 11.7045 18.2647 10.9268C17.6845 10.1665 16.8276 9.31182 15.7577 8.24192L14.6971 9.30258ZM15.7577 18.5082C16.8276 17.4383 17.6845 16.5836 18.2647 15.8233C18.858 15.0456 19.2321 14.279 19.2321 13.3751H17.7321C17.7321 13.8192 17.5637 14.2692 17.0722 14.9134C16.5674 15.575 15.797 16.3476 14.6971 17.4475L15.7577 18.5082ZM6.55214 9.30258C7.65202 8.2027 8.42471 7.43226 9.08626 6.92751C9.73051 6.43597 10.1805 6.26758 10.6246 6.26758V4.76758C9.72063 4.76758 8.95407 5.14163 8.17639 5.73498C7.41602 6.31512 6.56138 7.17202 5.49148 8.24192L6.55214 9.30258ZM15.7577 8.24192C14.6878 7.17202 13.8332 6.31512 13.0728 5.73498C12.2952 5.14163 11.5286 4.76758 10.6246 4.76758V6.26758C11.0688 6.26758 11.5187 6.43597 12.163 6.92751C12.8245 7.43226 13.5972 8.2027 14.6971 9.30258L15.7577 8.24192ZM4.72434 9.00906C3.65444 10.079 2.79754 10.9336 2.2174 11.694C1.62406 12.4716 1.25 13.2382 1.25 14.1422H2.75C2.75 13.698 2.91839 13.2481 3.40993 12.6038C3.91468 11.9423 4.68512 11.1696 5.785 10.0697L4.72434 9.00906ZM5.785 18.2147C4.68512 17.1148 3.91468 16.3421 3.40993 15.6805C2.91839 15.0363 2.75 14.5863 2.75 14.1422H1.25C1.25 15.0462 1.62406 15.8127 2.2174 16.5904C2.79754 17.3508 3.65444 18.2054 4.72434 19.2753L5.785 18.2147ZM4.72434 14.6725L9.32715 19.2753L10.3878 18.2147L5.785 13.6119L4.72434 14.6725Z" fill="#1C274C"/>
<path d="M18.7175 7.4043L18.0104 8.1114" stroke="#1C274C" stroke-width="1.5" stroke-linecap="round"/>
<path d="M16.5962 5.2832L15.8891 5.99031" stroke="#1C274C" stroke-width="1.5" stroke-linecap="round"/>
</svg>
