<svg width="24" height="24" viewBox="0 0 24 24" fill="#1C274C" xmlns="http://www.w3.org/2000/svg">
<path d="M8.78374 21.9999C7.09854 21.2478 5.70659 20.0758 4.79169 18.5068" stroke="#1C274C" stroke-width="1.5" stroke-linecap="round"/>
<path d="M14.8252 2.18595C16.5021 1.70882 18.2333 2.16305 19.4417 3.39724" stroke="#1C274C" stroke-width="1.5" stroke-linecap="round"/>
<path d="M4.0106 8.36606L3.63846 7.7149L4.0106 8.36606ZM6.50218 8.86694L7.15007 8.48913L6.50218 8.86694ZM3.2028 10.7526L2.55491 11.1304H2.55491L3.2028 10.7526ZM7.69685 3.37204L8.34474 2.99423V2.99423L7.69685 3.37204ZM8.53873 4.81575L7.89085 5.19356L8.53873 4.81575ZM10.4165 9.52468C10.6252 9.8825 11.0844 10.0034 11.4422 9.79476C11.8 9.5861 11.9209 9.12688 11.7123 8.76906L10.4165 9.52468ZM7.53806 12.1322C7.74672 12.49 8.20594 12.6109 8.56376 12.4022C8.92158 12.1936 9.0425 11.7344 8.83384 11.3765L7.53806 12.1322ZM4.39747 5.25768L3.74958 5.63549L4.39747 5.25768ZM11.8381 2.93011L12.486 2.5523V2.5523L11.8381 2.93011ZM14.3638 7.26123L15.0117 6.88342L14.3638 7.26123ZM16.0475 10.1486L16.4197 10.7998C16.5934 10.7005 16.7202 10.536 16.772 10.3428C16.8238 10.1496 16.7962 9.94364 16.6954 9.77083L16.0475 10.1486ZM17.6632 5.3756L17.0153 5.75341L17.6632 5.3756ZM20.1888 9.70671L20.8367 9.3289V9.3289L20.1888 9.70671ZM6.99128 17.2493L7.63917 16.8714L6.99128 17.2493ZM16.9576 19.2528L16.5854 18.6017L16.9576 19.2528ZM13.784 15.2995C13.9927 15.6573 14.4519 15.7782 14.8097 15.5696C15.1676 15.3609 15.2885 14.9017 15.0798 14.5439L13.784 15.2995ZM4.38275 9.01722C5.01642 8.65506 5.64023 8.87768 5.85429 9.24476L7.15007 8.48913C6.4342 7.26154 4.82698 7.03564 3.63846 7.7149L4.38275 9.01722ZM3.63846 7.7149C2.44761 8.39548 1.83532 9.89641 2.55491 11.1304L3.85068 10.3748C3.64035 10.0141 3.75139 9.37804 4.38275 9.01722L3.63846 7.7149ZM7.04896 3.74985L7.89085 5.19356L9.18662 4.43794L8.34474 2.99423L7.04896 3.74985ZM7.89085 5.19356L10.4165 9.52468L11.7123 8.76906L9.18662 4.43794L7.89085 5.19356ZM8.83384 11.3765L7.15007 8.48913L5.85429 9.24476L7.53806 12.1322L8.83384 11.3765ZM7.15007 8.48913L5.04535 4.87987L3.74958 5.63549L5.85429 9.24476L7.15007 8.48913ZM5.57742 3.52231C6.21109 3.16016 6.8349 3.38278 7.04896 3.74985L8.34474 2.99423C7.62887 1.76664 6.02165 1.54074 4.83313 2.22L5.57742 3.52231ZM4.83313 2.22C3.64228 2.90058 3.02999 4.40151 3.74958 5.63549L5.04535 4.87987C4.83502 4.51918 4.94606 3.88314 5.57742 3.52231L4.83313 2.22ZM11.1902 3.30792L13.7159 7.63904L15.0117 6.88342L12.486 2.5523L11.1902 3.30792ZM13.7159 7.63904L15.3997 10.5265L16.6954 9.77083L15.0117 6.88342L13.7159 7.63904ZM9.71869 3.08038C10.3524 2.71823 10.9762 2.94085 11.1902 3.30792L12.486 2.5523C11.7701 1.3247 10.1629 1.09881 8.9744 1.77807L9.71869 3.08038ZM8.9744 1.77807C7.78355 2.45865 7.17126 3.95957 7.89085 5.19356L9.18662 4.43794C8.97629 4.07725 9.08733 3.44121 9.71869 3.08038L8.9744 1.77807ZM17.0153 5.75341L19.5409 10.0845L20.8367 9.3289L18.311 4.99778L17.0153 5.75341ZM15.5437 5.52587C16.1774 5.16371 16.8012 5.38633 17.0153 5.75341L18.311 4.99778C17.5952 3.77019 15.988 3.54429 14.7994 4.22355L15.5437 5.52587ZM14.7994 4.22355C13.6086 4.90413 12.9963 6.40506 13.7159 7.63904L15.0117 6.88342C14.8013 6.52273 14.9124 5.88669 15.5437 5.52587L14.7994 4.22355ZM2.55491 11.1304L6.34339 17.6271L7.63917 16.8714L3.85068 10.3748L2.55491 11.1304ZM16.5854 18.6017C13.2185 20.5259 9.24811 19.6305 7.63917 16.8714L6.34339 17.6271C8.45414 21.2467 13.4079 22.1453 17.3297 19.904L16.5854 18.6017ZM19.5409 10.0845C21.1461 12.8372 19.9501 16.6787 16.5854 18.6017L17.3297 19.904C21.2539 17.6613 22.9512 12.9549 20.8367 9.3289L19.5409 10.0845ZM15.0798 14.5439C14.4045 13.3859 14.8772 11.6813 16.4197 10.7998L15.6754 9.49748C13.5735 10.6988 12.5995 13.2682 13.784 15.2995L15.0798 14.5439Z" fill="#1C274C"/>
</svg>
