<svg width="24" height="24" viewBox="0 0 24 24" fill="#1C274C" xmlns="http://www.w3.org/2000/svg">
<path d="M2.36397 12.9579C1.98452 10.3208 1.7948 9.00229 2.33526 7.87495C2.87572 6.7476 4.02608 6.06234 6.32681 4.69181L7.71164 3.86687C9.80094 2.62229 10.8456 2 11.9999 2C13.1542 2 14.1989 2.62229 16.2881 3.86687L17.673 4.69181C19.9737 6.06234 21.1241 6.7476 21.6645 7.87495C22.205 9.00229 22.0153 10.3208 21.6358 12.9579L21.3571 14.8952C20.8696 18.2827 20.6259 19.9764 19.4509 20.9882C18.2758 22 16.5525 22 13.106 22H10.8938C7.44726 22 5.72399 22 4.54892 20.9882C3.37386 19.9764 3.13015 18.2827 2.64273 14.8952L2.36397 12.9579Z" stroke="#1C274C" stroke-width="1.5"/>
<path d="M15 13L12 13M12 13L9 13M12 13L12 10M12 13L12 16" stroke="#1C274C" stroke-width="1.5" stroke-linecap="round"/>
</svg>
