<svg width="24" height="24" viewBox="0 0 24 24" fill="#1C274C" xmlns="http://www.w3.org/2000/svg">
<path d="M9 22H15" stroke="#1C274C" stroke-width="1.5" stroke-linecap="round"/>
<path d="M12 22V15" stroke="#1C274C" stroke-width="1.5" stroke-linecap="round"/>
<path d="M4.96152 7.44451C5.57042 5.0991 5.87488 3.9264 6.66099 3.15144C6.88888 2.92678 7.14291 2.73028 7.41762 2.56616C8.36526 2 9.57684 2 12 2C14.4232 2 15.6347 2 16.5824 2.56616C16.8571 2.73028 17.1111 2.92678 17.339 3.15144C18.1251 3.9264 18.4296 5.0991 19.0385 7.44451L19.1227 7.76898C19.9505 10.9576 20.3644 12.5519 19.6126 13.6719C19.5376 13.7837 19.4552 13.8902 19.3659 13.9909C18.4707 15 16.8236 15 13.5293 15H10.4707C7.17645 15 5.5293 15 4.63408 13.9909C4.54479 13.8902 4.46237 13.7837 4.38739 13.6719C3.63557 12.5519 4.04948 10.9576 4.87728 7.76897L4.96152 7.44451Z" stroke="#1C274C" stroke-width="1.5"/>
<path d="M17.5 15V17" stroke="#1C274C" stroke-width="1.5" stroke-linecap="round"/>
</svg>
