<svg width="24" height="24" viewBox="0 0 24 24" fill="#1C274C" xmlns="http://www.w3.org/2000/svg">
<path d="M17 8V6C17 4.11438 17 3.17157 16.4142 2.58579C15.8284 2 14.8856 2 13 2H11C9.11438 2 8.17157 2 7.58579 2.58579C7 3.17157 7 4.11438 7 6V8" stroke="#1C274C" stroke-width="1.5"/>
<path d="M10.5638 5.78311C11.4591 5.29495 12.541 5.29495 13.4362 5.78311L18.2304 8.39728C19.1944 8.92292 19.7942 9.93319 19.7942 11.0312V15.9688C19.7942 17.0668 19.1944 18.0771 18.2304 18.6027L13.4362 21.2169C12.541 21.705 11.4591 21.705 10.5638 21.2169L5.76959 18.6027C4.8056 18.0771 4.20578 17.0668 4.20578 15.9688V11.0312C4.20578 9.93318 4.8056 8.92292 5.76959 8.39728L10.5638 5.78311Z" stroke="#1C274C" stroke-width="1.5"/>
<path d="M11.1459 11.5226C11.5259 10.841 11.7159 10.5001 12 10.5001C12.2841 10.5001 12.4741 10.841 12.8541 11.5226L12.9524 11.699C13.0603 11.8927 13.1143 11.9896 13.1985 12.0535C13.2827 12.1174 13.3875 12.1411 13.5972 12.1885L13.7881 12.2317C14.526 12.3987 14.895 12.4822 14.9828 12.7644C15.0706 13.0467 14.819 13.3408 14.316 13.9291L14.1858 14.0813C14.0429 14.2485 13.9714 14.332 13.9392 14.4354C13.9071 14.5388 13.9179 14.6504 13.9395 14.8734L13.9592 15.0764C14.0352 15.8613 14.0733 16.2537 13.8435 16.4282C13.6136 16.6026 13.2682 16.4436 12.5773 16.1255L12.3986 16.0432C12.2022 15.9528 12.1041 15.9076 12 15.9076C11.8959 15.9076 11.7978 15.9528 11.6014 16.0432L11.4227 16.1255C10.7318 16.4436 10.3864 16.6026 10.1565 16.4282C9.92674 16.2537 9.96476 15.8613 10.0408 15.0764L10.0605 14.8734C10.0821 14.6504 10.0929 14.5388 10.0608 14.4354C10.0286 14.332 9.95713 14.2485 9.81418 14.0813L9.68403 13.9291C9.18097 13.3408 8.92945 13.0467 9.01723 12.7644C9.10501 12.4822 9.47396 12.3987 10.2119 12.2317L10.4028 12.1885C10.6125 12.1411 10.7173 12.1174 10.8015 12.0535C10.8857 11.9896 10.9397 11.8927 11.0476 11.699L11.1459 11.5226Z" stroke="#1C274C" stroke-width="1.5"/>
</svg>
