<svg width="24" height="24" viewBox="0 0 24 24" fill="#1C274C" xmlns="http://www.w3.org/2000/svg">
<path d="M11.3356 5.47875L7.36335 9.00968C5.79473 10.404 5.01041 11.1012 5.01041 11.9993C5.01041 12.8975 5.79472 13.5946 7.36335 14.989L11.3356 18.5199C12.0517 19.1563 12.4097 19.4746 12.7048 19.342C13 19.2095 13 18.7305 13 17.7725V15.4279C16.6 15.4279 20.5 17.1422 22 19.9993C22 10.8565 16.6667 8.57075 13 8.57075V6.22616C13 5.26817 13 4.78917 12.7048 4.65662C12.4097 4.52407 12.0517 4.8423 11.3356 5.47875Z" stroke="#1C274C" stroke-width="1.5" stroke-linecap="round" stroke-linejoin="round"/>
<path d="M8.46132 4.5L3.24512 9.34362C2.45101 10.081 1.99979 11.1158 1.99979 12.1994C1.99979 13.3418 2.50101 14.4266 3.3709 15.1671L8.46132 19.5" stroke="#1C274C" stroke-width="1.5" stroke-linecap="round"/>
</svg>
