<svg width="24" height="24" viewBox="0 0 24 24" fill="#1C274C" xmlns="http://www.w3.org/2000/svg">
<path d="M9 19C9 20.6569 7.65685 22 6 22C4.34315 22 3 20.6569 3 19C3 17.3431 4.34315 16 6 16C7.65685 16 9 17.3431 9 19Z" stroke="#1C274C" stroke-width="1.5"/>
<path d="M21 17C21 18.6569 19.6569 20 18 20C16.3431 20 15 18.6569 15 17C15 15.3431 16.3431 14 18 14C19.6569 14 21 15.3431 21 17Z" stroke="#1C274C" stroke-width="1.5"/>
<path d="M9 19V8" stroke="#1C274C" stroke-width="1.5"/>
<path d="M21 17V6" stroke="#1C274C" stroke-width="1.5"/>
<path d="M15.7351 3.75564L11.7351 5.08897C10.4151 5.52898 9.75503 5.74899 9.37752 6.27276C9 6.79654 9 7.49226 9 8.8837V12.0007L21 8.00067V7.55037C21 5.01791 21 3.75168 20.1694 3.15303C19.3388 2.55439 18.1376 2.9548 15.7351 3.75564Z" stroke="#1C274C" stroke-width="1.5" stroke-linecap="round"/>
</svg>
