<svg width="24" height="24" viewBox="0 0 24 24" fill="#1C274C" xmlns="http://www.w3.org/2000/svg">
<path d="M3.03351 8.89004C2.55297 5.68645 2.3127 4.08466 3.21034 3.04233C4.10799 2 5.7277 2 8.96713 2H15.0329C18.2723 2 19.892 2 20.7897 3.04233C21.6873 4.08466 21.447 5.68646 20.9665 8.89004L19.7665 16.89C19.4009 19.3276 19.218 20.5464 18.3741 21.2732C17.5302 22 16.2977 22 13.8329 22H10.1671C7.70226 22 6.46982 22 5.62589 21.2732C4.78197 20.5464 4.59915 19.3276 4.23351 16.89L3.03351 8.89004Z" stroke="#1C274C" stroke-width="1.5"/>
<path d="M8 6L3.5 11L11 19M14 6L4 16M20 6L7 19M13 19L20.5 11L16 6M10 6L20 16M4 6L17 19" stroke="#1C274C" stroke-width="1.5" stroke-linejoin="round"/>
<path d="M21 6H3" stroke="#1C274C" stroke-width="1.5" stroke-linecap="round"/>
<path d="M19 19H5" stroke="#1C274C" stroke-width="1.5" stroke-linecap="round"/>
</svg>
