<svg width="24" height="24" viewBox="0 0 24 24" fill="#1C274C" xmlns="http://www.w3.org/2000/svg">
<path d="M14 4C14 5.10457 13.1046 6 12 6C10.8954 6 10 5.10457 10 4C10 2.89543 10.8954 2 12 2C13.1046 2 14 2.89543 14 4Z" stroke="#1C274C" stroke-width="1.5"/>
<path d="M6.04779 10.85L6.28497 10.1385H6.28497L6.04779 10.85ZM8.22309 11.5751L7.98592 12.2866H7.98592L8.22309 11.5751ZM9.01682 13.257L8.31681 12.9877H8.31681L9.01682 13.257ZM7.77003 16.4986L8.47004 16.7679H8.47004L7.77003 16.4986ZM17.9522 10.85L17.715 10.1385H17.715L17.9522 10.85ZM15.7769 11.5751L16.0141 12.2866H16.0141L15.7769 11.5751ZM14.9832 13.257L15.6832 12.9877L14.9832 13.257ZM16.23 16.4986L15.53 16.7679L16.23 16.4986ZM10.4242 17.7584L11.0754 18.1305L10.4242 17.7584ZM12 15.0007L12.6512 14.6286C12.5177 14.3949 12.2691 14.2507 12 14.2507C11.7309 14.2507 11.4823 14.3949 11.3488 14.6286L12 15.0007ZM17.1465 7.89788L16.9894 7.16453L17.1465 7.89788ZM15.249 8.3045L15.4061 9.03785V9.03785L15.249 8.3045ZM8.75102 8.3045L8.90817 7.57115V7.57115L8.75102 8.3045ZM6.85345 7.89788L6.69631 8.63123L6.85345 7.89788ZM13.5758 17.7584L12.9246 18.1305V18.1305L13.5758 17.7584ZM15.0384 8.34924L14.8865 7.61479L14.8865 7.61479L15.0384 8.34924ZM8.96161 8.34924L8.80969 9.08369L8.80969 9.08369L8.96161 8.34924ZM15.2837 11.7675L15.6777 12.4057L15.2837 11.7675ZM14.8182 12.7539L15.5613 12.6523V12.6523L14.8182 12.7539ZM8.71625 11.7675L8.3223 12.4057H8.3223L8.71625 11.7675ZM9.18177 12.7539L9.92485 12.8556V12.8556L9.18177 12.7539ZM5.81062 11.5615L7.98592 12.2866L8.46026 10.8636L6.28497 10.1385L5.81062 11.5615ZM8.31681 12.9877L7.07002 16.2294L8.47004 16.7679L9.71683 13.5262L8.31681 12.9877ZM17.715 10.1385L15.5397 10.8636L16.0141 12.2866L18.1894 11.5615L17.715 10.1385ZM14.2832 13.5262L15.53 16.7679L16.93 16.2294L15.6832 12.9877L14.2832 13.5262ZM11.0754 18.1305L12.6512 15.3728L11.3488 14.6286L9.77299 17.3863L11.0754 18.1305ZM16.9894 7.16453L15.0918 7.57115L15.4061 9.03785L17.3037 8.63123L16.9894 7.16453ZM8.90817 7.57115L7.0106 7.16453L6.69631 8.63123L8.59387 9.03786L8.90817 7.57115ZM11.3488 15.3728L12.9246 18.1305L14.227 17.3863L12.6512 14.6286L11.3488 15.3728ZM15.0918 7.57115C14.9853 7.59397 14.9356 7.60463 14.8865 7.61479L15.1903 9.08369C15.2458 9.07221 15.3016 9.06025 15.4061 9.03785L15.0918 7.57115ZM8.59387 9.03786C8.6984 9.06025 8.75416 9.07221 8.80969 9.08369L9.11353 7.61479C9.06443 7.60463 9.01468 7.59398 8.90817 7.57115L8.59387 9.03786ZM14.8865 7.61479C12.9823 8.00866 11.0177 8.00866 9.11353 7.61479L8.80969 9.08369C10.9143 9.51902 13.0857 9.51902 15.1903 9.08369L14.8865 7.61479ZM9.14506 19.2507C9.94287 19.2507 10.6795 18.8232 11.0754 18.1305L9.77299 17.3863C9.64422 17.6116 9.40459 17.7507 9.14506 17.7507V19.2507ZM15.53 16.7679C15.7122 17.2416 15.3625 17.7507 14.8549 17.7507V19.2507C16.4152 19.2507 17.4901 17.6856 16.93 16.2294L15.53 16.7679ZM15.5397 10.8636C15.3178 10.9375 15.0816 11.0109 14.8898 11.1293L15.6777 12.4057C15.6688 12.4112 15.6763 12.4047 15.7342 12.3828C15.795 12.3598 15.877 12.3323 16.0141 12.2866L15.5397 10.8636ZM15.6832 12.9877C15.6313 12.8529 15.6004 12.7721 15.5795 12.7105C15.5596 12.6519 15.5599 12.642 15.5613 12.6523L14.0751 12.8556C14.1057 13.0789 14.1992 13.3079 14.2832 13.5262L15.6832 12.9877ZM14.8898 11.1293C14.3007 11.493 13.9814 12.1697 14.0751 12.8556L15.5613 12.6523C15.5479 12.5544 15.5935 12.4577 15.6777 12.4057L14.8898 11.1293ZM18.25 9.39624C18.25 9.733 18.0345 10.032 17.715 10.1385L18.1894 11.5615C19.1214 11.2508 19.75 10.3786 19.75 9.39624H18.25ZM7.07002 16.2294C6.50994 17.6856 7.58484 19.2507 9.14506 19.2507V17.7507C8.63751 17.7507 8.28784 17.2416 8.47004 16.7679L7.07002 16.2294ZM7.98592 12.2866C8.12301 12.3323 8.20501 12.3598 8.26583 12.3828C8.32371 12.4047 8.33115 12.4112 8.3223 12.4057L9.1102 11.1293C8.91842 11.0109 8.68219 10.9375 8.46026 10.8636L7.98592 12.2866ZM9.71683 13.5262C9.80081 13.3079 9.89432 13.0789 9.92485 12.8556L8.43868 12.6523C8.44009 12.642 8.4404 12.6519 8.42051 12.7105C8.3996 12.7721 8.36869 12.8529 8.31681 12.9877L9.71683 13.5262ZM8.3223 12.4057C8.40646 12.4577 8.45208 12.5544 8.43868 12.6523L9.92485 12.8556C10.0186 12.1697 9.69929 11.493 9.1102 11.1293L8.3223 12.4057ZM4.25 9.39624C4.25 10.3786 4.87863 11.2508 5.81062 11.5615L6.28497 10.1385C5.96549 10.032 5.75 9.733 5.75 9.39624H4.25ZM5.75 9.39624C5.75 8.89815 6.20927 8.52687 6.69631 8.63123L7.0106 7.16453C5.58979 6.86007 4.25 7.94318 4.25 9.39624H5.75ZM12.9246 18.1305C13.3205 18.8232 14.0571 19.2507 14.8549 19.2507V17.7507C14.5954 17.7507 14.3558 17.6116 14.227 17.3863L12.9246 18.1305ZM19.75 9.39624C19.75 7.94318 18.4102 6.86007 16.9894 7.16453L17.3037 8.63123C17.7907 8.52687 18.25 8.89815 18.25 9.39624H19.75Z" fill="#1C274C"/>
<path d="M19.4537 14.5C21.0372 15.2961 22 16.3475 22 17.5C22 19.9853 17.5228 22 12 22C6.47715 22 2 19.9853 2 17.5C2 16.3475 2.96285 15.2961 4.54631 14.5" stroke="#1C274C" stroke-width="1.5" stroke-linecap="round"/>
</svg>
