<svg width="24" height="24" viewBox="0 0 24 24" fill="#1C274C" xmlns="http://www.w3.org/2000/svg">
<path d="M13.6315 8.22333L13.2651 7.85695C11.735 6.32687 10.97 5.56183 10.1406 5.5625C9.86971 5.56272 9.60165 5.61798 9.35273 5.72494C8.59071 6.05234 8.19063 7.05759 7.39047 9.06807L7.33256 9.21357C7.10572 9.78354 6.9923 10.0685 6.81015 10.2984C6.67197 10.4728 6.50565 10.623 6.31804 10.7426C6.07076 10.9004 5.77568 10.9841 5.18554 11.1516C4.27042 11.4113 3.81287 11.5412 3.60981 11.8181C3.4589 12.024 3.3924 12.2797 3.42392 12.5329C3.46633 12.8737 3.80265 13.21 4.47529 13.8827L7.60579 17.0132C8.27843 17.6858 8.61475 18.0221 8.95553 18.0645C9.20879 18.0961 9.46451 18.0296 9.67033 17.8787C9.94727 17.6756 10.0771 17.218 10.3369 16.3029C10.5044 15.7128 10.5881 15.4177 10.7458 15.1704C10.8655 14.9828 11.0156 14.8165 11.19 14.6783C11.4199 14.4962 11.7049 14.3827 12.2749 14.1559L12.4204 14.098C14.4309 13.2978 15.4361 12.8978 15.7635 12.1357C15.8705 11.8868 15.9257 11.6188 15.926 11.3478C15.9266 10.5185 15.1616 9.75341 13.6315 8.22333Z" stroke="#1C274C" stroke-width="1.5"/>
<path d="M3.34679 18.142L6.04053 15.4482" stroke="#1C274C" stroke-width="1.5" stroke-linecap="round"/>
<path d="M22 8H17" stroke="#1C274C" stroke-width="1.5" stroke-linecap="round"/>
<path d="M22 12.5H18" stroke="#1C274C" stroke-width="1.5" stroke-linecap="round"/>
<path d="M22 17H13" stroke="#1C274C" stroke-width="1.5" stroke-linecap="round"/>
</svg>
