<svg width="24" height="24" viewBox="0 0 24 24" fill="#1C274C" xmlns="http://www.w3.org/2000/svg">
<path d="M20 6L3 6" stroke="#1C274C" stroke-width="1.5" stroke-linecap="round"/>
<path d="M10 16H3" stroke="#1C274C" stroke-width="1.5" stroke-linecap="round"/>
<path d="M10 11H3" stroke="#1C274C" stroke-width="1.5" stroke-linecap="round"/>
<path d="M19.125 10.6857C20.767 11.6337 21.588 12.1077 21.8478 12.7349C22.0507 13.225 22.0507 13.7756 21.8478 14.2656C21.588 14.8929 20.767 15.3669 19.125 16.3148C17.483 17.2628 16.662 17.7368 15.9889 17.6482C15.4631 17.579 14.9862 17.3037 14.6633 16.8828C14.25 16.3442 14.25 15.3962 14.25 13.5003C14.25 11.6043 14.25 10.6563 14.6633 10.1177C14.9862 9.69685 15.4631 9.42154 15.9889 9.35231C16.662 9.26369 17.483 9.73769 19.125 10.6857Z" stroke="#1C274C" stroke-width="1.5"/>
</svg>
