<svg width="24" height="24" viewBox="0 0 24 24" fill="#1C274C" xmlns="http://www.w3.org/2000/svg">
<path d="M16 16.4286C16 17.8487 14.8807 19 13.5 19C12.1193 19 11 17.8487 11 16.4286C11 15.0084 12.1193 13.8571 13.5 13.8571C14.8807 13.8571 16 15.0084 16 16.4286ZM16 16.4286V10" stroke="#1C274C" stroke-width="1.5"/>
<path d="M18.675 7.11558L16.9205 7.95775C16.5788 8.12177 16.408 8.20377 16.2845 8.33018C16.1855 8.43162 16.1091 8.55297 16.0605 8.68617C16 8.85216 16 9.04167 16 9.42069C16 10.2971 16 10.7354 16.1911 10.9983C16.3421 11.2061 16.5673 11.3478 16.8201 11.394C17.1397 11.4525 17.5348 11.2629 18.325 10.8836L20.0795 10.0415C20.4212 9.87745 20.592 9.79544 20.7155 9.66903C20.8145 9.56759 20.8909 9.44624 20.9395 9.31304C21 9.14705 21 8.95754 21 8.57852C21 7.70207 21 7.26385 20.8089 7.00095C20.6579 6.79312 20.4327 6.65139 20.1799 6.60516C19.8603 6.54668 19.4652 6.73632 18.675 7.11558Z" stroke="#1C274C" stroke-width="1.5" stroke-linecap="round"/>
<path d="M15 5L3 5" stroke="#1C274C" stroke-width="1.5" stroke-linecap="round"/>
<path d="M13 9L3 9" stroke="#1C274C" stroke-width="1.5" stroke-linecap="round"/>
<path d="M9 13H3" stroke="#1C274C" stroke-width="1.5" stroke-linecap="round"/>
<path d="M8 17H3" stroke="#1C274C" stroke-width="1.5" stroke-linecap="round"/>
</svg>
