<svg width="24" height="24" viewBox="0 0 24 24" fill="#1C274C" xmlns="http://www.w3.org/2000/svg">
<path d="M20 4L3 4" stroke="#1C274C" stroke-width="1.5" stroke-linecap="round"/>
<path d="M8 14H3" stroke="#1C274C" stroke-width="1.5" stroke-linecap="round"/>
<path d="M12 9L3 9" stroke="#1C274C" stroke-width="1.5" stroke-linecap="round"/>
<path d="M16 17.4286C16 18.8487 14.8807 20 13.5 20C12.1193 20 11 18.8487 11 17.4286C11 16.0084 12.1193 14.8571 13.5 14.8571C14.8807 14.8571 16 16.0084 16 17.4286ZM16 17.4286V11" stroke="#1C274C" stroke-width="1.5"/>
<path d="M18.675 8.11558L16.9205 8.95775C16.5788 9.12177 16.408 9.20377 16.2845 9.33018C16.1855 9.43162 16.1091 9.55297 16.0605 9.68617C16 9.85216 16 10.0417 16 10.4207C16 11.2971 16 11.7354 16.1911 11.9983C16.3421 12.2061 16.5673 12.3478 16.8201 12.394C17.1397 12.4525 17.5348 12.2629 18.325 11.8836L20.0795 11.0415C20.4212 10.8774 20.592 10.7954 20.7155 10.669C20.8145 10.5676 20.8909 10.4462 20.9395 10.313C21 10.1471 21 9.95754 21 9.57852C21 8.70207 21 8.26385 20.8089 8.00095C20.6579 7.79312 20.4327 7.65139 20.1799 7.60516C19.8603 7.54668 19.4652 7.73632 18.675 8.11558Z" stroke="#1C274C" stroke-width="1.5" stroke-linecap="round"/>
</svg>
