<svg width="24" height="24" viewBox="0 0 24 24" fill="#1C274C" xmlns="http://www.w3.org/2000/svg">
<path d="M21.6593 14.5887L20.9348 14.3946L21.6593 14.5887ZM9.41182 21.6598L9.21771 22.3842L9.41182 21.6598ZM2.34075 9.41234L1.61631 9.21822L2.34075 9.41234ZM14.5882 2.34127L14.3941 3.06571L14.5882 2.34127ZM11.5282 12.5835C11.8501 12.8441 12.3224 12.7943 12.583 12.4724C12.8436 12.1504 12.7938 11.6781 12.4719 11.4176L11.5282 12.5835ZM5.00194 6.33643L5.47379 5.75346H5.47379L5.00194 6.33643ZM3.63596 6.51448L3.00875 6.10324L3.63596 6.51448ZM6.71834 2.63749C6.35758 2.84102 6.23012 3.29847 6.43365 3.65923C6.63719 4.01999 7.09463 4.14745 7.45539 3.94392L6.71834 2.63749ZM9.86584 5.59508C9.47285 5.72596 9.26036 6.15064 9.39125 6.54364C9.52213 6.93663 9.94681 7.14911 10.3398 7.01823L9.86584 5.59508ZM20.9348 14.3946C19.6126 19.3292 14.5405 22.2576 9.60593 20.9353L9.21771 22.3842C14.9525 23.9209 20.8471 20.5176 22.3837 14.7828L20.9348 14.3946ZM9.60593 20.9353C4.67137 19.6131 1.74298 14.541 3.0652 9.60645L1.61631 9.21822C0.0796827 14.953 3.48294 20.8476 9.21771 22.3842L9.60593 20.9353ZM14.3941 3.06571C19.3286 4.38793 22.257 9.46004 20.9348 14.3946L22.3837 14.7828C23.9203 9.04807 20.5171 3.15345 14.7823 1.61683L14.3941 3.06571ZM12.4719 11.4176L5.47379 5.75346L4.53009 6.91941L11.5282 12.5835L12.4719 11.4176ZM3.0652 9.60645C3.32763 8.62702 3.73716 7.72794 4.26316 6.92571L3.00875 6.10324C2.39633 7.03727 1.92057 8.0827 1.61631 9.21822L3.0652 9.60645ZM7.45539 3.94392C9.49128 2.79532 11.9587 2.41315 14.3941 3.06571L14.7823 1.61683C11.9525 0.858588 9.08235 1.30378 6.71834 2.63749L7.45539 3.94392ZM5.47379 5.75346C4.74054 5.15998 3.58276 5.22778 3.00875 6.10324L4.26316 6.92571C4.28534 6.89188 4.31611 6.87215 4.36153 6.86666C4.41141 6.86063 4.47425 6.87421 4.53009 6.91941L5.47379 5.75346ZM17.25 12.0005C17.25 14.9 14.8995 17.2505 12 17.2505V18.7505C15.7279 18.7505 18.75 15.7285 18.75 12.0005H17.25ZM12 17.2505C9.10051 17.2505 6.75001 14.9 6.75001 12.0005H5.25001C5.25001 15.7285 8.27209 18.7505 12 18.7505V17.2505ZM12 6.75053C14.8995 6.75053 17.25 9.10103 17.25 12.0005H18.75C18.75 8.27261 15.7279 5.25053 12 5.25053V6.75053ZM6.75001 12.0005C6.75001 10.7318 7.19909 9.56997 7.94773 8.66238L6.79058 7.70791C5.8285 8.87428 5.25001 10.3708 5.25001 12.0005H6.75001ZM10.3398 7.01823C10.8606 6.84477 11.4186 6.75053 12 6.75053V5.25053C11.2554 5.25053 10.5376 5.37137 9.86584 5.59508L10.3398 7.01823Z" fill="#1C274C"/>
</svg>
