<svg width="24" height="24" viewBox="0 0 24 24" fill="#1C274C" xmlns="http://www.w3.org/2000/svg">
<path d="M7.37767 11.6296H6.62767H7.37767ZM7.37767 12.5556L6.81619 13.0528C6.95148 13.2056 7.14317 13.2966 7.34706 13.3049C7.55095 13.3133 7.74943 13.2382 7.89673 13.0969L7.37767 12.5556ZM9.51916 11.5414C9.81815 11.2547 9.82814 10.7799 9.54148 10.4809C9.25481 10.182 8.78004 10.172 8.48105 10.4586L9.51916 11.5414ZM6.56159 10.5028C6.28697 10.1927 5.81297 10.1639 5.50287 10.4385C5.19278 10.7131 5.16401 11.1871 5.43863 11.4972L6.56159 10.5028ZM14.9318 9.0093C15.2131 9.31337 15.6876 9.33184 15.9916 9.05055C16.2957 8.76927 16.3142 8.29476 16.0329 7.9907L14.9318 9.0093ZM12.0438 6.25C9.05813 6.25 6.62767 8.653 6.62767 11.6296H8.12767C8.12767 9.49251 9.87542 7.75 12.0438 7.75V6.25ZM6.62767 11.6296L6.62767 12.5556H8.12767L8.12767 11.6296H6.62767ZM7.89673 13.0969L9.51916 11.5414L8.48105 10.4586L6.85862 12.0142L7.89673 13.0969ZM7.93915 12.0583L6.56159 10.5028L5.43863 11.4972L6.81619 13.0528L7.93915 12.0583ZM16.0329 7.9907C15.0433 6.9209 13.6213 6.25 12.0438 6.25V7.75C13.188 7.75 14.2155 8.23504 14.9318 9.0093L16.0329 7.9907Z" fill="#1C274C"/>
<path d="M16.6188 11.4453L17.1795 10.9472C17.0441 10.7947 16.8523 10.704 16.6485 10.6959C16.4447 10.6878 16.2464 10.7631 16.0993 10.9044L16.6188 11.4453ZM14.4805 12.4591C14.1818 12.746 14.1722 13.2208 14.4591 13.5195C14.746 13.8183 15.2208 13.8278 15.5196 13.5409L14.4805 12.4591ZM17.4394 13.4981C17.7145 13.8078 18.1885 13.8358 18.4982 13.5607C18.8078 13.2856 18.8358 12.8115 18.5607 12.5019L17.4394 13.4981ZM9.04693 15.0057C8.76348 14.7037 8.28884 14.6886 7.98681 14.9721C7.68477 15.2555 7.66971 15.7302 7.95317 16.0322L9.04693 15.0057ZM11.9349 17.7509C14.9277 17.7509 17.3688 15.3506 17.3688 12.3712H15.8688C15.8688 14.5057 14.1158 16.2509 11.9349 16.2509V17.7509ZM17.3688 12.3712V11.4453H15.8688V12.3712H17.3688ZM16.0993 10.9044L14.4805 12.4591L15.5196 13.5409L17.1383 11.9862L16.0993 10.9044ZM16.0581 11.9434L17.4394 13.4981L18.5607 12.5019L17.1795 10.9472L16.0581 11.9434ZM7.95317 16.0322C8.94548 17.0895 10.3635 17.7509 11.9349 17.7509V16.2509C10.792 16.2509 9.76551 15.7714 9.04693 15.0057L7.95317 16.0322Z" fill="#1C274C"/>
<path d="M2 12C2 7.28595 2 4.92893 3.46447 3.46447C4.92893 2 7.28595 2 12 2C16.714 2 19.0711 2 20.5355 3.46447C22 4.92893 22 7.28595 22 12C22 16.714 22 19.0711 20.5355 20.5355C19.0711 22 16.714 22 12 22C7.28595 22 4.92893 22 3.46447 20.5355C2 19.0711 2 16.714 2 12Z" stroke="#1C274C" stroke-width="1.5"/>
</svg>
