<svg width="24" height="24" viewBox="0 0 24 24" fill="#1C274C" xmlns="http://www.w3.org/2000/svg">
<path d="M4.04537 18.5083C2.68179 17.1448 2 16.463 2 15.6157C2 14.7685 2.68179 14.0867 4.04537 12.7231L12.7231 4.04537C14.0867 2.68179 14.7685 2 15.6157 2C16.463 2 17.1448 2.68179 18.5083 4.04537L19.9546 5.49167C21.3182 6.85525 22 7.53704 22 8.38426C22 9.23148 21.3182 9.91327 19.9546 11.2769L11.2769 19.9546C9.91327 21.3182 9.23148 22 8.38426 22C7.53704 22 6.85525 21.3182 5.49167 19.9546L4.04537 18.5083Z" stroke="#1C274C" stroke-width="1.5"/>
<path d="M8.46447 8.46436L9.87868 9.87857" stroke="#1C274C" stroke-width="1.5" stroke-linecap="round"/>
<path d="M12.7071 4.22192L14.1213 5.63614" stroke="#1C274C" stroke-width="1.5" stroke-linecap="round"/>
<path d="M4.22182 12.707L5.63604 14.1212" stroke="#1C274C" stroke-width="1.5" stroke-linecap="round"/>
<path d="M6.34315 10.5857L8.46447 12.707" stroke="#1C274C" stroke-width="1.5" stroke-linecap="round"/>
<path d="M10.5858 6.34326L12.7071 8.46458" stroke="#1C274C" stroke-width="1.5" stroke-linecap="round"/>
</svg>
