<svg width="24" height="24" viewBox="0 0 24 24" fill="#1C274C" xmlns="http://www.w3.org/2000/svg">
<path d="M2.01098 10C1.96726 9.12544 2.04843 8.47327 2.33527 7.87495C2.87573 6.7476 4.02609 6.06234 6.32681 4.69181L7.71165 3.86687C9.80094 2.62229 10.8456 2 11.9999 2C13.1542 2 14.1989 2.62229 16.2881 3.86687L17.673 4.69181C19.9737 6.06233 21.1241 6.7476 21.6645 7.87495C22.205 9.00229 22.0153 10.3208 21.6358 12.9579L21.3571 14.8952C20.8696 18.2827 20.6259 19.9764 19.4509 20.9882C18.3821 21.9085 16.8598 21.9917 13.9999 21.9993" stroke="#1C274C" stroke-width="1.5" stroke-linecap="round"/>
<path d="M11 22C11 17.0294 6.97056 13 2 13" stroke="#1C274C" stroke-width="1.5" stroke-linecap="round"/>
<path d="M8 22C8 18.6863 5.31371 16 2 16" stroke="#1C274C" stroke-width="1.5" stroke-linecap="round"/>
<path d="M5 22C5 20.3431 3.65685 19 2 19" stroke="#1C274C" stroke-width="1.5" stroke-linecap="round"/>
</svg>
