<svg width="24" height="24" viewBox="0 0 24 24" fill="#1C274C" xmlns="http://www.w3.org/2000/svg">
<path d="M2 8C2 5.17157 2 3.75736 2.87868 2.87868C3.75736 2 5.17157 2 8 2H9C11.8284 2 13.2426 2 14.1213 2.87868C15 3.75736 15 5.17157 15 8V16C15 18.8284 15 20.2426 14.1213 21.1213C13.2426 22 11.8284 22 9 22H8C5.17157 22 3.75736 22 2.87868 21.1213C2 20.2426 2 18.8284 2 16V8Z" stroke="#1C274C" stroke-width="1.5"/>
<path d="M17.5 10.0059C19.3597 10.0328 20.414 10.1707 21.1213 10.878C22 11.7567 22 13.1709 22 15.9993C22 18.8278 22 20.242 21.1213 21.1207C20.414 21.828 19.3597 21.9659 17.5 21.9928" stroke="#1C274C" stroke-width="1.5" stroke-linecap="round"/>
<path d="M11 5H6" stroke="#1C274C" stroke-width="1.5" stroke-linecap="round"/>
<path d="M19 18V14" stroke="#1C274C" stroke-width="1.5" stroke-linecap="round"/>
<path d="M10 17.5C10 18.3284 9.32843 19 8.5 19C7.67157 19 7 18.3284 7 17.5C7 16.6716 7.67157 16 8.5 16C9.32843 16 10 16.6716 10 17.5Z" stroke="#1C274C" stroke-width="1.5"/>
<path d="M20.5 6.98598L22 8C22 4.98532 19.8377 2.48275 17 2" stroke="#1C274C" stroke-width="1.5" stroke-linecap="round" stroke-linejoin="round"/>
</svg>
