<svg width="24" height="24" viewBox="0 0 24 24" fill="#1C274C" xmlns="http://www.w3.org/2000/svg">
<path d="M14 22C17.7712 22 19.6568 22 20.8284 20.7881C22 19.5763 22 17.6258 22 13.725V12.2039C22 9.91549 22 8.77128 21.4808 7.82274C20.9616 6.87421 20.013 6.28551 18.116 5.10812L16.116 3.86687C14.1106 2.62229 13.1079 2 12 2C10.8921 2 9.88938 2.62229 7.88402 3.86687L5.88402 5.10813C3.98694 6.28551 3.03839 6.87421 2.51919 7.82274C2.20161 8.40293 2.07829 9.05632 2.0304 10" stroke="#1C274C" stroke-width="1.5" stroke-linecap="round"/>
<path d="M11 22C11 17.0294 6.97056 13 2 13" stroke="#1C274C" stroke-width="1.5" stroke-linecap="round"/>
<path d="M8 22C8 18.6863 5.31371 16 2 16" stroke="#1C274C" stroke-width="1.5" stroke-linecap="round"/>
<path d="M5 22C5 20.3431 3.65685 19 2 19" stroke="#1C274C" stroke-width="1.5" stroke-linecap="round"/>
</svg>
