<svg width="24" height="24" viewBox="0 0 24 24" fill="#1C274C" xmlns="http://www.w3.org/2000/svg">
<path d="M22 12C22 17.5228 17.5228 22 12 22C6.47715 22 2 17.5228 2 12C2 6.47715 6.47715 2 12 2C17.5228 2 22 6.47715 22 12Z" stroke="#1C274C" stroke-width="1.5"/>
<path d="M19 19L17.5 17.5" stroke="#1C274C" stroke-width="1.5" stroke-linecap="round"/>
<path d="M19 5L17.5 6.5" stroke="#1C274C" stroke-width="1.5" stroke-linecap="round"/>
<path d="M5 19L6.5 17.5" stroke="#1C274C" stroke-width="1.5" stroke-linecap="round"/>
<path d="M5 5L6.5 6.5" stroke="#1C274C" stroke-width="1.5" stroke-linecap="round"/>
<path d="M2 12H4" stroke="#1C274C" stroke-width="1.5" stroke-linecap="round"/>
<path d="M19.9998 12L21.9998 12" stroke="#1C274C" stroke-width="1.5" stroke-linecap="round"/>
<path d="M12 4.00021L12 2.00021" stroke="#1C274C" stroke-width="1.5" stroke-linecap="round"/>
<path d="M10.1212 14.3635C8.94966 13.1919 8.94966 11.2924 10.1212 10.1209C11.2928 8.94929 13.1923 8.94929 14.3639 10.1209C14.8095 10.5665 15.1208 11.4916 15.3354 12.467C15.6563 13.9255 15.8167 14.6548 15.2359 15.2356C14.6551 15.8164 13.9259 15.6559 12.4673 15.335C11.492 15.1204 10.5669 14.8092 10.1212 14.3635Z" stroke="#1C274C" stroke-width="1.5"/>
</svg>
