<svg width="24" height="24" viewBox="0 0 24 24" fill="#1C274C" xmlns="http://www.w3.org/2000/svg">
<circle cx="12" cy="12" r="5" stroke="#1C274C" stroke-width="1.5"/>
<path d="M12 7V11" stroke="#1C274C" stroke-width="1.5" stroke-linecap="round"/>
<path d="M13 3.5C13 4.05228 12.5523 4.5 12 4.5C11.4477 4.5 11 4.05228 11 3.5C11 2.94772 11.4477 2.5 12 2.5C12.5523 2.5 13 2.94772 13 3.5Z" fill="#1C274C"/>
<path d="M20.5 13C19.9477 13 19.5 12.5523 19.5 12C19.5 11.4477 19.9477 11 20.5 11C21.0523 11 21.5 11.4477 21.5 12C21.5 12.5523 21.0523 13 20.5 13Z" fill="#1C274C"/>
<path d="M3.5 13C2.94772 13 2.5 12.5523 2.5 12C2.5 11.4477 2.94772 11 3.5 11C4.05228 11 4.5 11.4477 4.5 12C4.5 12.5523 4.05228 13 3.5 13Z" fill="#1C274C"/>
<path d="M6.6967 5.28215C7.08722 5.67268 7.08722 6.30584 6.6967 6.69636C6.30617 7.08689 5.67301 7.08689 5.28249 6.69636C4.89196 6.30584 4.89196 5.67268 5.28249 5.28215C5.67301 4.89163 6.30617 4.89163 6.6967 5.28215Z" fill="#1C274C"/>
<path d="M18.7175 17.3036C19.108 17.6942 19.108 18.3273 18.7175 18.7178C18.327 19.1084 17.6938 19.1084 17.3033 18.7178C16.9128 18.3273 16.9128 17.6942 17.3033 17.3036C17.6938 16.9131 18.327 16.9131 18.7175 17.3036Z" fill="#1C274C"/>
<path d="M18.7175 6.69636C18.327 7.08689 17.6938 7.08689 17.3033 6.69636C16.9128 6.30584 16.9128 5.67268 17.3033 5.28215C17.6938 4.89163 18.327 4.89163 18.7175 5.28215C19.108 5.67268 19.108 6.30584 18.7175 6.69636Z" fill="#1C274C"/>
<path d="M6.6967 18.7178C6.30617 19.1084 5.67301 19.1084 5.28249 18.7178C4.89196 18.3273 4.89196 17.6942 5.28249 17.3036C5.67301 16.9131 6.30617 16.9131 6.6967 17.3036C7.08722 17.6942 7.08722 18.3273 6.6967 18.7178Z" fill="#1C274C"/>
</svg>
