<svg width="24" height="24" viewBox="0 0 24 24" fill="#1C274C" xmlns="http://www.w3.org/2000/svg">
<path d="M1.53479 10.9724C1.60847 9.76353 1.64531 9.15911 1.95854 8.57776C2.24473 8.04661 2.7923 7.5314 3.33988 7.27805C3.93921 7.00076 4.62617 7.00076 6.00008 7.00076C6.51215 7.00076 6.76819 7.00076 7.0162 6.95888C7.26138 6.91748 7.50046 6.84576 7.72795 6.74536C7.95806 6.6438 8.17181 6.50287 8.59932 6.22099L8.81825 6.07664C11.3612 4.39995 12.6327 3.56161 13.7001 3.92585C13.9047 3.99568 14.1028 4.09648 14.2797 4.22081C15.2024 4.86927 15.2725 6.37797 15.4127 9.39538C15.4646 10.5126 15.5 11.4689 15.5 12.0008C15.5 12.5326 15.4646 13.4889 15.4127 14.6062C15.2725 17.6236 15.2024 19.1323 14.2797 19.7807C14.1028 19.905 13.9047 20.0058 13.7001 20.0757C12.6327 20.4399 11.3612 19.6016 8.81825 17.9249L8.59932 17.7805C8.17181 17.4987 7.95806 17.3577 7.72795 17.2562C7.50046 17.1558 7.26138 17.084 7.0162 17.0426C6.76819 17.0008 6.51215 17.0008 6.00008 17.0008C4.62617 17.0008 3.93921 17.0008 3.33988 16.7235C2.7923 16.4701 2.24473 15.9549 1.95854 15.4238C1.64531 14.8424 1.60847 14.238 1.53479 13.0292C1.51299 12.6716 1.5 12.3232 1.5 12.0008C1.5 11.6784 1.51299 11.33 1.53479 10.9724Z" stroke="#1C274C" stroke-width="1.5"/>
<path d="M18 9C18 9 18.5 9.9 18.5 12C18.5 14.1 18 15 18 15" stroke="#1C274C" stroke-width="1.5" stroke-linecap="round"/>
</svg>
