<svg width="24" height="24" viewBox="0 0 24 24" fill="#1C274C" xmlns="http://www.w3.org/2000/svg">
<path d="M1.53479 10.9704C1.60847 9.76158 1.64531 9.15716 1.95854 8.57581C2.24473 8.04466 2.7923 7.52944 3.33988 7.2761C3.93921 6.99881 4.62617 6.99881 6.00008 6.99881C6.51215 6.99881 6.76819 6.99881 7.0162 6.95693C7.26138 6.91553 7.50046 6.8438 7.72795 6.74341C7.95806 6.64185 8.17181 6.50091 8.59932 6.21904L8.81825 6.07469C11.3612 4.398 12.6327 3.55966 13.7001 3.92389C13.9047 3.99373 14.1028 4.09453 14.2797 4.21886C15.2024 4.86731 15.2725 6.37602 15.4127 9.39343C15.4646 10.5107 15.5 11.4669 15.5 11.9988C15.5 12.5307 15.4646 13.4869 15.4127 14.6042C15.2725 17.6216 15.2024 19.1303 14.2797 19.7788C14.1028 19.9031 13.9047 20.0039 13.7001 20.0737C12.6327 20.438 11.3612 19.5996 8.81825 17.9229L8.59932 17.7786C8.17181 17.4967 7.95806 17.3558 7.72795 17.2542C7.50046 17.1538 7.26138 17.0821 7.0162 17.0407C6.76819 16.9988 6.51215 16.9988 6.00008 16.9988C4.62617 16.9988 3.93921 16.9988 3.33988 16.7215C2.7923 16.4682 2.24473 15.953 1.95854 15.4218C1.64531 14.8405 1.60847 14.236 1.53479 13.0272C1.51299 12.6696 1.5 12.3212 1.5 11.9988C1.5 11.6764 1.51299 11.328 1.53479 10.9704Z" stroke="#1C274C" stroke-width="1.5"/>
<path d="M20 6C20 6 21.5 7.8 21.5 12C21.5 16.2 20 18 20 18" stroke="#1C274C" stroke-width="1.5" stroke-linecap="round"/>
<path d="M18 9C18 9 18.5 9.9 18.5 12C18.5 14.1 18 15 18 15" stroke="#1C274C" stroke-width="1.5" stroke-linecap="round"/>
</svg>
