<svg width="24" height="24" viewBox="0 0 24 24" fill="#1C274C" xmlns="http://www.w3.org/2000/svg">
<path d="M5.03479 10.9724C5.10847 9.76353 5.14531 9.15911 5.45854 8.57776C5.74473 8.04661 6.2923 7.5314 6.83988 7.27805C7.43921 7.00076 8.12617 7.00076 9.50008 7.00076C10.0122 7.00076 10.2682 7.00076 10.5162 6.95888C10.7614 6.91748 11.0005 6.84576 11.2279 6.74536C11.4581 6.6438 11.6718 6.50287 12.0993 6.22099L12.3183 6.07664C14.8612 4.39995 16.1327 3.56161 17.2001 3.92585C17.4047 3.99568 17.6028 4.09648 17.7797 4.22081C18.7024 4.86927 18.7725 6.37797 18.9127 9.39538C18.9646 10.5126 19 11.4689 19 12.0008C19 12.5326 18.9646 13.4889 18.9127 14.6062C18.7725 17.6236 18.7024 19.1323 17.7797 19.7807C17.6028 19.905 17.4047 20.0058 17.2001 20.0757C16.1327 20.4399 14.8612 19.6016 12.3183 17.9249L12.0993 17.7805C11.6718 17.4987 11.4581 17.3577 11.2279 17.2562C11.0005 17.1558 10.7614 17.084 10.5162 17.0426C10.2682 17.0008 10.0122 17.0008 9.50008 17.0008C8.12617 17.0008 7.43921 17.0008 6.83988 16.7235C6.2923 16.4701 5.74473 15.9549 5.45854 15.4238C5.14531 14.8424 5.10847 14.238 5.03479 13.0292C5.01299 12.6716 5 12.3232 5 12.0008C5 11.6784 5.01299 11.33 5.03479 10.9724Z" stroke="#1C274C" stroke-width="1.5"/>
</svg>
