<svg width="24" height="24" viewBox="0 0 24 24" fill="#1C274C" xmlns="http://www.w3.org/2000/svg">
<path d="M16.25 12.0008C16.25 11.5866 15.9142 11.2508 15.5 11.2508C15.0858 11.2508 14.75 11.5866 14.75 12.0008H16.25ZM7.0162 6.95888L7.14108 7.69841L7.0162 6.95888ZM8.59932 6.22099L8.18647 5.59485L8.18647 5.59485L8.59932 6.22099ZM7.72795 6.74536L8.03077 7.43151L7.72795 6.74536ZM3.33988 16.7235L3.02496 17.4042L3.33988 16.7235ZM1.53479 13.0292L0.786179 13.0748L1.53479 13.0292ZM1.95854 15.4238L2.6188 15.068L1.95854 15.4238ZM13.7001 20.0757L13.4578 19.3659L13.7001 20.0757ZM15.4127 14.6062L16.1619 14.641L15.4127 14.6062ZM14.2797 19.7807L14.7109 20.3943L14.2797 19.7807ZM8.81825 6.07664L9.2311 6.70279L9.2311 6.70279L8.81825 6.07664ZM13.7001 3.92585L13.4578 4.63565L13.7001 3.92585ZM14.2797 4.22081L14.7109 3.60719L14.2797 4.22081ZM3.33988 7.27805L3.02496 6.59737L3.33988 7.27805ZM1.53479 10.9724L0.786179 10.9267L1.53479 10.9724ZM1.95854 8.57776L2.6188 8.93351L1.95854 8.57776ZM9.91107 17.7462C9.56462 17.5192 9.09972 17.616 8.87269 17.9624C8.64566 18.3089 8.74247 18.7738 9.08893 19.0008L9.91107 17.7462ZM9.01216 6.84714L9.2311 6.70279L8.40541 5.45049L8.18647 5.59485L9.01216 6.84714ZM2.2834 12.9835C2.26225 12.6366 2.25 12.304 2.25 12.0008H0.75C0.75 12.3423 0.763733 12.7065 0.786179 13.0748L2.2834 12.9835ZM2.25 12.0008C2.25 11.6975 2.26225 11.365 2.2834 11.018L0.786179 10.9267C0.763733 11.295 0.75 11.6592 0.75 12.0008H2.25ZM14.75 12.0008C14.75 12.5125 14.7156 13.4518 14.6635 14.5713L16.1619 14.641C16.2137 13.526 16.25 12.5528 16.25 12.0008H14.75ZM6.00008 7.75076C6.48771 7.75076 6.81682 7.75317 7.14108 7.69841L6.89132 6.21935C6.71956 6.24836 6.5366 6.25076 6.00008 6.25076V7.75076ZM8.18647 5.59485C7.73856 5.89018 7.58448 5.98888 7.42513 6.05921L8.03077 7.43151C8.33163 7.29873 8.60506 7.11556 9.01216 6.84714L8.18647 5.59485ZM7.14108 7.69841C7.44756 7.64666 7.74641 7.557 8.03077 7.43151L7.42513 6.05921C7.25452 6.13451 7.0752 6.1883 6.89132 6.21935L7.14108 7.69841ZM6.00008 17.7508C6.5366 17.7508 6.71956 17.7532 6.89132 17.7822L7.14108 16.3031C6.81682 16.2484 6.48771 16.2508 6.00008 16.2508V17.7508ZM6.00008 16.2508C4.55641 16.2508 4.06911 16.2345 3.6548 16.0428L3.02496 17.4042C3.80931 17.767 4.69593 17.7508 6.00008 17.7508V16.2508ZM0.786179 13.0748C0.856484 14.2283 0.890091 15.0219 1.29828 15.7795L2.6188 15.068C2.40052 14.6629 2.36045 14.2477 2.2834 12.9835L0.786179 13.0748ZM3.6548 16.0428C3.25445 15.8576 2.82804 15.4564 2.6188 15.068L1.29828 15.7795C1.66141 16.4535 2.33016 17.0827 3.02496 17.4042L3.6548 16.0428ZM14.6635 14.5713C14.5924 16.1021 14.541 17.174 14.4015 17.9489C14.2626 18.7203 14.0651 19.0148 13.8485 19.1671L14.7109 20.3943C15.417 19.8981 15.7159 19.1141 15.8778 18.2147C16.0391 17.3187 16.0928 16.1276 16.1619 14.641L14.6635 14.5713ZM13.9423 20.7855C14.2142 20.6927 14.4759 20.5595 14.7109 20.3943L13.8485 19.1671C13.7297 19.2506 13.5952 19.319 13.4578 19.3659L13.9423 20.7855ZM9.2311 6.70279C10.5209 5.85237 11.426 5.25748 12.1402 4.91051C12.8525 4.5645 13.2087 4.55062 13.4578 4.63565L13.9423 3.21604C13.1241 2.93683 12.3108 3.16002 11.4848 3.56128C10.6607 3.9616 9.65858 4.62423 8.40541 5.45049L9.2311 6.70279ZM13.4578 4.63565C13.5952 4.68254 13.7297 4.75096 13.8485 4.83444L14.7109 3.60719C14.4759 3.44201 14.2142 3.30882 13.9423 3.21604L13.4578 4.63565ZM6.00008 6.25076C4.69593 6.25076 3.80931 6.23449 3.02496 6.59737L3.6548 7.95873C4.06911 7.76704 4.55641 7.75076 6.00008 7.75076V6.25076ZM2.2834 11.018C2.36045 9.75382 2.40052 9.33863 2.6188 8.93351L1.29828 8.22201C0.890091 8.9796 0.856484 9.77323 0.786179 10.9267L2.2834 11.018ZM3.02496 6.59737C2.33016 6.91883 1.66141 7.54805 1.29828 8.22201L2.6188 8.93351C2.82804 8.54516 3.25445 8.14396 3.6548 7.95873L3.02496 6.59737ZM9.08893 19.0008C10.1277 19.6815 10.9875 20.2255 11.7204 20.5497C12.4627 20.8781 13.2003 21.0387 13.9423 20.7855L13.4578 19.3659C13.2324 19.4428 12.9187 19.4396 12.3272 19.1779C11.7264 18.9122 10.9698 18.44 9.91107 17.7462L9.08893 19.0008ZM16.1231 8.54076C16.0624 7.31361 15.9963 6.30782 15.827 5.53051C15.6552 4.74208 15.3503 4.05655 14.7109 3.60719L13.8485 4.83444C14.0443 4.97209 14.2254 5.22605 14.3614 5.84985C14.4997 6.48476 14.5631 7.36395 14.6249 8.61476L16.1231 8.54076Z" fill="#1C274C"/>
<path d="M20 18C20 18 21.5 16.2 21.5 12C21.5 9.56658 20.9965 7.93882 20.5729 7" stroke="#1C274C" stroke-width="1.5" stroke-linecap="round"/>
<path d="M18 15C18 15 18.5 14.1 18.5 12C18.5 11.1381 18.4158 10.4784 18.3165 10" stroke="#1C274C" stroke-width="1.5" stroke-linecap="round"/>
<path d="M22 2L2 22" stroke="#1C274C" stroke-width="1.5" stroke-linecap="round"/>
</svg>
