<svg width="24" height="24" viewBox="0 0 24 24" fill="#1C274C" xmlns="http://www.w3.org/2000/svg">
<path d="M3 10C3 6.22876 3 4.34315 4.17157 3.17157C5.34315 2 7.22876 2 11 2H13C16.7712 2 18.6569 2 19.8284 3.17157C21 4.34315 21 6.22876 21 10V14C21 17.7712 21 19.6569 19.8284 20.8284C18.6569 22 16.7712 22 13 22H11C7.22876 22 5.34315 22 4.17157 20.8284C3 19.6569 3 17.7712 3 14V10Z" stroke="#1C274C" stroke-width="1.5"/>
<path d="M8 18H16" stroke="#1C274C" stroke-width="1.5" stroke-linecap="round"/>
<path d="M16.4115 9.97078L17.0772 8.30671C17.5513 7.12125 16.8084 5.80104 15.549 5.59114L15.1236 5.52023C13.0554 5.17555 10.9445 5.17555 8.87641 5.52023L8.45098 5.59114C7.19157 5.80104 6.44864 7.12125 6.92282 8.30671L7.58845 9.97078C7.82422 10.5602 8.45915 10.8848 9.07502 10.7309C10.9954 10.2508 13.0045 10.2508 14.925 10.7309C15.5408 10.8848 16.1758 10.5602 16.4115 9.97078Z" stroke="#1C274C" stroke-width="1.5" stroke-linecap="round"/>
<path d="M10.1796 9.92954L9.50461 8.04688" stroke="#1C274C" stroke-width="1.5" stroke-linecap="round"/>
</svg>
