<svg width="172" height="56" viewBox="0 0 172 56" fill="none" xmlns="http://www.w3.org/2000/svg">
<g opacity="0.8">
<g clip-path="url(#clip0_6543_1313)">
<path d="M3.5 15C3.5 8.37258 8.87258 3 15.5 3H157C163.627 3 169 8.37258 169 15V41C169 47.6274 163.627 53 157 53H15.5C8.87258 53 3.5 47.6274 3.5 41V15Z" fill="#3CB5CD"/>
<circle cx="86.5" cy="87" r="84" fill="white" fill-opacity="0.08"/>
<circle cx="86.5001" cy="87.0001" r="50.4" fill="white" fill-opacity="0.12"/>
<path d="M160.545 34.0106L160.45 33.9304C160.245 32.8571 159.72 31.8698 158.943 31.0971C158.165 30.3245 157.171 29.8024 156.09 29.5988V29.4088C157.171 29.2064 158.165 28.685 158.943 27.9128C159.721 27.1405 160.246 26.1534 160.45 25.0802L160.545 25L160.639 25.0802C160.844 26.1535 161.369 27.1407 162.147 27.9129C162.925 28.6851 163.919 29.2064 165 29.4088V29.5988C163.919 29.8023 162.925 30.3244 162.147 31.097C161.369 31.8696 160.844 32.857 160.639 33.9304L160.545 34.0106ZM85.4548 35.4304L85.3591 35.3502C85.1548 34.2769 84.6297 33.2895 83.8522 32.5169C83.0746 31.7443 82.0807 31.2221 81 31.0186V30.8287C82.0807 30.6263 83.0748 30.1049 83.8525 29.3327C84.6302 28.5604 85.1552 27.5732 85.3591 26.5L85.4548 26.4199L85.5489 26.5C85.7531 27.5733 86.2785 28.5605 87.0564 29.3328C87.8343 30.105 88.8286 30.6263 89.9095 30.8287V31.0186C88.8286 31.2221 87.8345 31.7442 87.0567 32.5168C86.2789 33.2894 85.7535 34.2768 85.5489 35.3502L85.4548 35.4304ZM122.714 53L122.618 52.9198C122.414 51.8465 121.889 50.8592 121.111 50.0865C120.334 49.3139 119.34 48.7917 118.259 48.5882V48.3982C119.34 48.1958 120.334 47.6744 121.111 46.9021C121.889 46.1299 122.414 45.1427 122.618 44.0695L122.714 43.9894L122.808 44.0695C123.012 45.1428 123.537 46.13 124.315 46.9022C125.093 47.6745 126.088 48.1958 127.168 48.3982V48.5881C126.088 48.7916 125.093 49.3137 124.316 50.0863C123.538 50.8589 123.012 51.8463 122.808 52.9197L122.714 53Z" fill="#77CBDC"/>
<path d="M-6.54524 9.0106L-6.44956 8.93043C-6.24533 7.85711 -5.72023 6.86977 -4.94268 6.09712C-4.16514 5.32447 -3.17122 4.80235 -2.09049 4.59882V4.40883C-3.17122 4.2064 -4.16534 3.68501 -4.943 2.91278C-5.72066 2.14054 -6.24571 1.15336 -6.44956 0.0801735L-6.54524 0L-6.63944 0.0801735C-6.84361 1.15346 -7.36895 2.14067 -8.14687 2.91289C-8.92477 3.68511 -9.91911 4.20645 -11 4.40883V4.59882C-9.9191 4.80231 -8.92498 5.32438 -8.14719 6.09701C-7.36939 6.86964 -6.84399 7.857 -6.63944 8.93043L-6.54524 9.0106ZM68.5452 10.4304L68.6409 10.3502C68.8452 9.27689 69.3703 8.28955 70.1478 7.5169C70.9254 6.74425 71.9193 6.22213 73 6.0186V5.8287C71.9193 5.62627 70.9252 5.10489 70.1475 4.33265C69.3698 3.56042 68.8448 2.57323 68.6409 1.50005L68.5452 1.41987L68.4511 1.50005C68.2469 2.57334 67.7215 3.56054 66.9436 4.33276C66.1657 5.10498 65.1714 5.62632 64.0905 5.8287V6.0186C65.1714 6.22209 66.1655 6.74416 66.9433 7.51679C67.7211 8.28942 68.2465 9.27678 68.4511 10.3502L68.5452 10.4304ZM31.2864 28L31.382 27.9198C31.5863 26.8465 32.1114 25.8592 32.8889 25.0865C33.6665 24.3139 34.6604 23.7917 35.7411 23.5882V23.3982C34.6604 23.1958 33.6663 22.6744 32.8886 21.9021C32.1109 21.1299 31.5859 20.1427 31.382 19.0695L31.2864 18.9894L31.1922 19.0695C30.988 20.1428 30.4627 21.13 29.6847 21.9022C28.9068 22.6745 27.9125 23.1958 26.8316 23.3982V23.5881C27.9125 23.7916 28.9066 24.3137 29.6844 25.0863C30.4622 25.8589 30.9876 26.8463 31.1922 27.9197L31.2864 28Z" fill="#77CBDC"/>
<path d="M16.508 35V24.57H23.466V26.25H18.412V29.134H22.836V30.814H18.412V35H16.508ZM24.5571 35V24.402H26.3911V35H24.5571ZM31.6965 35.168C29.3585 35.168 27.7765 33.404 27.7765 31.178C27.7765 28.896 29.4145 27.216 31.5565 27.216C33.9225 27.216 35.2665 28.91 35.2665 30.94C35.2665 31.22 35.2385 31.5 35.1685 31.71H29.6805C29.7925 32.83 30.6045 33.558 31.7105 33.558C32.5505 33.558 33.1385 33.166 33.4745 32.578L34.9585 33.306C34.4965 34.398 33.2505 35.168 31.6965 35.168ZM31.5565 28.728C30.6325 28.728 29.9325 29.302 29.7225 30.31H33.3065C33.2225 29.372 32.5225 28.728 31.5565 28.728ZM36.6567 35V24.402H38.4907V30.408L41.3747 27.384H43.6567L40.8427 30.45L43.7127 35H41.6127L39.4707 31.612L38.4907 32.676V35H36.6567ZM47.3791 35V24.57H49.2831V29.12H53.7211V24.57H55.6391V35H53.7211V30.8H49.2831V35H47.3791ZM57.4927 26.53V24.57H59.3267V26.53H57.4927ZM57.4927 35V27.384H59.3267V35H57.4927ZM64.492 35.084C62.77 35.084 61.79 34.09 61.79 32.382V29.022H60.474V27.384H60.614C61.356 27.384 61.79 26.978 61.79 26.236V25.648H63.624V27.384H65.374V29.022H63.624V32.284C63.624 33.054 64.016 33.474 64.912 33.474C65.038 33.474 65.22 33.46 65.402 33.432V35C65.136 35.042 64.772 35.084 64.492 35.084ZM69.0722 35.168C67.4762 35.168 66.4542 34.328 66.4542 32.984C66.4542 31.724 67.2942 30.842 69.0862 30.548L71.3542 30.184V29.932C71.3542 29.274 70.7942 28.784 69.9542 28.784C69.1562 28.784 68.5262 29.246 68.2462 29.932L66.7482 29.204C67.1962 28.014 68.4982 27.216 70.0242 27.216C71.8862 27.216 73.1882 28.336 73.1882 29.932V35H71.4522V34.188C70.8642 34.832 70.0802 35.168 69.0722 35.168ZM68.3582 32.914C68.3582 33.446 68.7922 33.768 69.4082 33.768C70.5702 33.768 71.3542 32.942 71.3542 31.892V31.584L69.4362 31.906C68.7082 32.046 68.3582 32.368 68.3582 32.914ZM74.8833 35V27.384H76.6053V28.336C76.9973 27.594 77.7813 27.216 78.7333 27.216C79.7553 27.216 80.6373 27.692 81.0853 28.448C81.6033 27.622 82.4433 27.216 83.4513 27.216C85.0613 27.216 86.2653 28.392 86.2653 30.1V35H84.4313V30.534C84.4313 29.526 83.8573 28.896 82.9613 28.896C82.0793 28.896 81.4913 29.54 81.4913 30.534V35H79.6573V30.534C79.6573 29.526 79.0833 28.896 78.1873 28.896C77.3053 28.896 76.7173 29.54 76.7173 30.534V35H74.8833Z" fill="white"/>
<rect x="133" y="16" width="24" height="24" rx="8" fill="#ECF8FA"/>
<path d="M151.5 35.75C151.5 35.1742 151.081 34.6837 150.512 34.594L146.75 34V32.2758H143.25V34L139.488 34.594C138.919 34.6837 138.5 35.1742 138.5 35.75H151.5ZM140.75 26.75C140.336 26.75 140 27.086 140 27.5002V27.9998C140 28.414 140.336 28.75 140.75 28.75H141.194M149.25 26.75C149.664 26.75 150 27.086 150 27.5002V27.9998C150 28.414 149.664 28.75 149.25 28.75H148.806" fill="#EEB9AD"/>
<path d="M140.75 26.75V25C140.75 22.5148 142.765 20.5 145.25 20.5C146.062 20.5 146.851 20.7632 147.5 21.25L147.871 21.409C148.708 21.7675 149.25 22.59 149.25 23.5L149.25 26.75H140.75Z" fill="#134D61"/>
<path d="M147.871 21.409L147.5 21.25C146.925 20.819 146.24 20.5642 145.528 20.5112C143.147 20.628 141.25 22.5897 141.25 25V26.75H149.25L149.25 23.5C149.25 22.59 148.708 21.7675 147.871 21.409Z" fill="#427181"/>
<path d="M147.703 22.0925L147.793 21.3757L147.5 21.25C147.442 21.2062 147.382 21.1657 147.321 21.1257L147.252 21.7145L147.208 22.0215C147.088 22.8637 146.601 23.5977 145.871 24.0355L146.128 24.4642C146.988 23.9487 147.562 23.0842 147.703 22.0925Z" fill="#134D61"/>
<path d="M149.25 26.75L148.749 29.0033C148.428 30.4485 147.577 31.721 146.365 32.57C145.964 32.8497 145.488 33 145 33C144.512 33 144.036 32.8497 143.635 32.57C142.423 31.721 141.572 30.4485 141.251 29.0033L140.75 26.75L140.836 26.7368C142.871 26.4238 144.714 25.3578 146 23.75C146.302 25.259 147.494 26.4308 149.008 26.7063L149.25 26.75Z" fill="#EEB9AD"/>
<path d="M144.135 32.5699C144.467 32.8017 144.851 32.9384 145.25 32.9809C145.649 32.9387 146.034 32.8017 146.365 32.5699C147.577 31.7209 148.428 30.4484 148.749 29.0032L149.25 26.7499L149.008 26.7059C147.645 26.4582 146.545 25.4827 146.118 24.1897C144.861 25.5509 143.178 26.4532 141.335 26.7367L141.25 26.7499L141.751 29.0032C142.072 30.4484 142.923 31.7209 144.135 32.5699Z" fill="#FFE2D5"/>
<path d="M146.75 27.4999C146.346 27.4999 145.983 27.2757 145.803 26.9144L145.776 26.8619L146.224 26.6382L146.25 26.6909C146.345 26.8814 146.537 26.9999 146.75 26.9999C146.963 26.9999 147.155 26.8814 147.25 26.6909L147.276 26.6382L147.723 26.8619L147.697 26.9147C147.517 27.2757 147.154 27.4999 146.75 27.4999ZM143.25 27.4999C142.846 27.4999 142.483 27.2757 142.303 26.9144L142.276 26.8619L142.724 26.6382L142.75 26.6909C142.845 26.8814 143.037 26.9999 143.25 26.9999C143.463 26.9999 143.655 26.8814 143.75 26.6909L143.776 26.6382L144.223 26.8619L144.197 26.9147C144.017 27.2757 143.654 27.4999 143.25 27.4999ZM144.823 30.1767L144.323 29.6767C144.266 29.6197 144.24 29.5392 144.253 29.4599C144.266 29.3807 144.316 29.3124 144.388 29.2764C144.611 29.1647 144.75 28.9404 144.75 28.6909V27.4999H145.25V28.6909C145.25 29.0169 145.116 29.3184 144.886 29.5329L145.177 29.8232L144.823 30.1767ZM145 31.2499C144.46 31.2499 143.936 31.0914 143.487 30.7917L143.361 30.7079L143.638 30.2919L143.764 30.3757C144.499 30.8654 145.501 30.8654 146.235 30.3757L146.361 30.2919L146.638 30.7079L146.513 30.7917C146.063 31.0914 145.54 31.2499 145 31.2499Z" fill="#EEB9AD"/>
<path d="M148.537 29.7501H148.404C148.271 29.7501 148.137 29.7416 148.006 29.7249L148.07 29.2289C148.18 29.2431 148.292 29.2501 148.404 29.2501H148.537V29.7501ZM147.476 29.6099C147.304 29.5566 147.136 29.4879 146.974 29.4051L147.202 28.9604C147.338 29.0299 147.479 29.0876 147.624 29.1321L147.476 29.6099ZM146.514 29.1174C146.37 29.0086 146.234 28.8864 146.111 28.7544L146.476 28.4131C146.58 28.5241 146.694 28.6269 146.815 28.7186L146.514 29.1174ZM145.776 28.3271C145.677 28.1756 145.591 28.0146 145.52 27.8486L145.98 27.6519C146.04 27.7914 146.112 27.9266 146.195 28.0541L145.776 28.3271ZM141.596 29.7501H141.463V29.2501H141.596C141.708 29.2501 141.821 29.2431 141.931 29.2289L141.994 29.7249C141.863 29.7416 141.729 29.7501 141.596 29.7501ZM142.524 29.6099L142.376 29.1319C142.521 29.0874 142.663 29.0299 142.798 28.9601L143.026 29.4049C142.865 29.4879 142.696 29.5569 142.524 29.6099ZM143.486 29.1174L143.185 28.7184C143.306 28.6269 143.42 28.5241 143.524 28.4129L143.889 28.7541C143.766 28.8864 143.63 29.0086 143.486 29.1174ZM144.224 28.3271L143.805 28.0541C143.888 27.9266 143.961 27.7914 144.02 27.6519L144.48 27.8486C144.409 28.0144 144.323 28.1756 144.224 28.3271Z" fill="#F43F5E"/>
<path d="M150.25 26L150.298 25.7607C150.421 25.1435 150.889 24.6528 151.5 24.5C150.889 24.3472 150.421 23.8565 150.298 23.2392L150.25 23L150.202 23.2392C150.079 23.8565 149.611 24.3472 149 24.5C149.611 24.6528 150.079 25.1435 150.202 25.7607L150.25 26ZM140.25 33.25L140.308 33.0165C140.428 32.539 140.783 32.1558 141.249 32C140.783 31.8445 140.428 31.461 140.308 30.9838L140.25 30.7498L140.191 30.983C140.072 31.4607 139.717 31.8442 139.25 32L139.25 32.0002C139.717 32.156 140.073 32.5393 140.192 33.0168L140.25 33.25Z" fill="#3CB5CD"/>
<path d="M150.512 34.594L146.75 34V32.5222C146.625 32.6257 146.498 32.7262 146.365 32.82C145.964 33.0997 145.488 33.25 145 33.25C144.512 33.25 144.036 33.0997 143.635 32.82C143.502 32.7265 143.374 32.6257 143.25 32.5222V34L139.488 34.594C138.919 34.6837 138.5 35.1742 138.5 35.75H151.5C151.5 35.1742 151.081 34.6837 150.512 34.594Z" fill="#FFE2D5"/>
</g>
<path d="M15.5 1.5C8.04416 1.5 2 7.54416 2 15V41C2 48.4558 8.04416 54.5 15.5 54.5H157C164.456 54.5 170.5 48.4558 170.5 41V15C170.5 7.54416 164.456 1.5 157 1.5H15.5Z" stroke="#D8F0F5" stroke-width="3"/>
</g>
<defs>
<clipPath id="clip0_6543_1313">
<path d="M3.5 15C3.5 8.37258 8.87258 3 15.5 3H157C163.627 3 169 8.37258 169 15V41C169 47.6274 163.627 53 157 53H15.5C8.87258 53 3.5 47.6274 3.5 41V15Z" fill="white"/>
</clipPath>
</defs>
</svg>
