<svg width="32" height="32" viewBox="0 0 32 32" fill="none" xmlns="http://www.w3.org/2000/svg">
<rect x="0.5" y="0.5" width="31" height="31" rx="7.5" fill="#F8FAFC"/>
<rect x="0.5" y="0.5" width="31" height="31" rx="7.5" stroke="#EBF0F5"/>
<path fill-rule="evenodd" clip-rule="evenodd" d="M15.9998 24.3337C12.0715 24.3337 10.1073 24.3337 8.88689 23.1133C7.6665 21.8929 7.6665 19.9287 7.6665 16.0003C7.6665 12.072 7.6665 10.1078 8.88689 8.88738C10.1073 7.66699 12.0715 7.66699 15.9998 7.66699C19.9282 7.66699 21.8924 7.66699 23.1128 8.88738C24.3332 10.1078 24.3332 12.072 24.3332 16.0003C24.3332 19.9287 24.3332 21.8929 23.1128 23.1133C21.8924 24.3337 19.9282 24.3337 15.9998 24.3337ZM15.9998 20.792C16.345 20.792 16.6248 20.5122 16.6248 20.167V15.167C16.6248 14.8218 16.345 14.542 15.9998 14.542C15.6547 14.542 15.3748 14.8218 15.3748 15.167V20.167C15.3748 20.5122 15.6547 20.792 15.9998 20.792ZM15.9998 11.8337C16.4601 11.8337 16.8332 12.2068 16.8332 12.667C16.8332 13.1272 16.4601 13.5003 15.9998 13.5003C15.5396 13.5003 15.1665 13.1272 15.1665 12.667C15.1665 12.2068 15.5396 11.8337 15.9998 11.8337Z" fill="#134D61"/>
</svg>
