<svg width="32" height="32" viewBox="0 0 32 32" fill="none" xmlns="http://www.w3.org/2000/svg">
<rect x="0.5" y="0.5" width="31" height="31" rx="7.5" fill="#F8FAFC"/>
<rect x="0.5" y="0.5" width="31" height="31" rx="7.5" stroke="#EBF0F5"/>
<path fill-rule="evenodd" clip-rule="evenodd" d="M17.5024 10.4448C17.5024 8.91065 18.7517 7.66699 20.2928 7.66699C21.8339 7.66699 23.0832 8.91065 23.0832 10.4448C23.0832 11.9789 21.8339 13.2225 20.2928 13.2225C19.5146 13.2225 18.8113 12.9053 18.3057 12.3949L14.4429 15.025C14.4786 15.2024 14.4973 15.3857 14.4973 15.573C14.4973 15.9438 14.424 16.2983 14.2912 16.6223L18.5268 19.4052C19.0075 19.0137 19.6226 18.7781 20.2928 18.7781C21.8339 18.7781 23.0832 20.0218 23.0832 21.5559C23.0832 23.09 21.8339 24.3337 20.2928 24.3337C18.7517 24.3337 17.5024 23.09 17.5024 21.5559C17.5024 21.1541 17.5884 20.7716 17.7429 20.4263L13.5416 17.6659C13.0515 18.0919 12.4095 18.3508 11.7069 18.3508C10.1658 18.3508 8.9165 17.1071 8.9165 15.573C8.9165 14.0389 10.1658 12.7952 11.7069 12.7952C12.5931 12.7952 13.3819 13.2064 13.8927 13.8463L17.6364 11.2973C17.5494 11.0283 17.5024 10.7417 17.5024 10.4448Z" fill="#134D61"/>
</svg>
