<svg width="32" height="32" viewBox="0 0 32 32" fill="none" xmlns="http://www.w3.org/2000/svg">
<rect x="0.5" y="0.5" width="31" height="31" rx="7.5" fill="#F8FAFC"/>
<rect x="0.5" y="0.5" width="31" height="31" rx="7.5" stroke="#EBF0F5"/>
<path fill-rule="evenodd" clip-rule="evenodd" d="M8.9165 14.473V18.527C8.9165 20.4381 8.9165 21.3937 9.51785 21.9874C10.0642 22.5268 10.913 22.5761 12.5152 22.5806C12.4306 22.0187 12.4129 21.3473 12.4084 20.5574C12.4065 20.2216 12.6807 19.9478 13.0209 19.946C13.3611 19.9441 13.6384 20.2148 13.6403 20.5507C13.6453 21.4373 13.6686 22.0657 13.7573 22.5427C13.8428 23.0023 13.9801 23.2683 14.1801 23.4657C14.4073 23.6901 14.7265 23.8364 15.3291 23.9164C15.9494 23.9987 16.7716 24 17.9504 24H18.7716C19.9505 24 20.7726 23.9987 21.3929 23.9164C21.9956 23.8364 22.3147 23.6901 22.542 23.4657C22.7693 23.2413 22.9174 22.9262 22.9985 22.3313C23.0819 21.7188 23.0832 20.9071 23.0832 19.7432V13.2568C23.0832 12.0929 23.0819 11.2812 22.9985 10.6687C22.9174 10.0738 22.7693 9.75873 22.542 9.53433C22.3147 9.30993 21.9956 9.16362 21.3929 9.08363C20.7726 9.00129 19.9505 9 18.7716 9H17.9504C16.7716 9 15.9494 9.00129 15.3291 9.08363C14.7265 9.16362 14.4073 9.30993 14.1801 9.53433C13.9801 9.73173 13.8428 9.99773 13.7573 10.4573C13.6686 10.9343 13.6453 11.5627 13.6403 12.4493C13.6384 12.7852 13.3611 13.0559 13.0209 13.054C12.6807 13.0522 12.4065 12.7784 12.4084 12.4426C12.4129 11.6527 12.4306 10.9813 12.5152 10.4194C10.913 10.4239 10.0642 10.4732 9.51785 11.0126C8.9165 11.6063 8.9165 12.5619 8.9165 14.473ZM10.9447 16.93C10.7042 16.6925 10.7042 16.3075 10.9447 16.07L12.5872 14.4484C12.8277 14.2109 13.2177 14.2109 13.4583 14.4484C13.6988 14.6859 13.6988 15.0709 13.4583 15.3084L12.8672 15.8919L18.7715 15.8919C19.1116 15.8919 19.3874 16.1642 19.3874 16.5C19.3874 16.8358 19.1116 17.1081 18.7715 17.1081L12.8672 17.1081L13.4583 17.6916C13.6988 17.9291 13.6988 18.3141 13.4583 18.5516C13.2177 18.7891 12.8277 18.7891 12.5872 18.5516L10.9447 16.93Z" fill="#F43F5E"/>
</svg>
