<svg width="32" height="32" viewBox="0 0 32 32" fill="none" xmlns="http://www.w3.org/2000/svg">
<rect x="0.5" y="0.5" width="31" height="31" rx="7.5" fill="#F8FAFC"/>
<rect x="0.5" y="0.5" width="31" height="31" rx="7.5" stroke="#EBF0F5"/>
<path fill-rule="evenodd" clip-rule="evenodd" d="M8.7085 24.333C8.7085 23.9878 8.98832 23.708 9.3335 23.708H22.6668C23.012 23.708 23.2918 23.9878 23.2918 24.333C23.2918 24.6782 23.012 24.958 22.6668 24.958H9.3335C8.98832 24.958 8.7085 24.6782 8.7085 24.333Z" fill="#134D61"/>
<path d="M14.8109 19.1837C15.0231 19.0183 15.2155 18.8259 15.6002 18.4411L20.5308 13.5105C19.8597 13.2312 19.0649 12.7725 18.3133 12.0208C17.5615 11.269 17.1027 10.474 16.8234 9.80293L11.8927 14.7336L11.8927 14.7336C11.5079 15.1184 11.3155 15.3108 11.1501 15.5229C10.9549 15.7731 10.7876 16.0439 10.6511 16.3303C10.5353 16.5732 10.4493 16.8313 10.2772 17.3475L9.3698 20.0698C9.28511 20.3238 9.35123 20.6039 9.54058 20.7932C9.72993 20.9826 10.01 21.0487 10.2641 20.964L12.9863 20.0566C13.5025 19.8845 13.7606 19.7985 14.0035 19.6828C14.29 19.5462 14.5607 19.3789 14.8109 19.1837Z" fill="#134D61"/>
<path d="M21.899 12.1424C22.9228 11.1186 22.9228 9.45865 21.899 8.43484C20.8752 7.41104 19.2153 7.41104 18.1915 8.43484L17.6001 9.0262C17.6082 9.05066 17.6166 9.07545 17.6253 9.10056C17.8421 9.72532 18.251 10.5443 19.0204 11.3137C19.7897 12.083 20.6087 12.492 21.2335 12.7087C21.2585 12.7174 21.2832 12.7258 21.3075 12.7338L21.899 12.1424Z" fill="#134D61"/>
</svg>
