<svg width="32" height="32" viewBox="0 0 32 32" fill="none" xmlns="http://www.w3.org/2000/svg">
<rect x="0.5" y="0.5" width="31" height="31" rx="7.5" fill="#F8FAFC"/>
<rect x="0.5" y="0.5" width="31" height="31" rx="7.5" stroke="#EBF0F5"/>
<path d="M15.9998 24.3337C12.0715 24.3337 10.1073 24.3337 8.88689 23.1133C7.6665 21.8929 7.6665 19.9287 7.6665 16.0003C7.6665 12.072 7.6665 10.1078 8.88689 8.88738C10.1073 7.66699 12.0715 7.66699 15.9998 7.66699C17.1655 7.66699 18.1582 7.66699 19.0098 7.69887C18.4328 8.35839 18.0832 9.22186 18.0832 10.167C18.0832 12.2381 19.7621 13.917 21.8332 13.917C22.7783 13.917 23.6418 13.5673 24.3013 12.9903C24.3332 13.842 24.3332 14.8347 24.3332 16.0003C24.3332 19.9287 24.3332 21.8929 23.1128 23.1133C21.8924 24.3337 19.9282 24.3337 15.9998 24.3337Z" fill="#134D61"/>
<path d="M24.3332 10.167C24.3332 11.5477 23.2139 12.667 21.8332 12.667C20.4525 12.667 19.3332 11.5477 19.3332 10.167C19.3332 8.78628 20.4525 7.66699 21.8332 7.66699C23.2139 7.66699 24.3332 8.78628 24.3332 10.167Z" fill="#134D61"/>
</svg>
