<svg width="32" height="32" viewBox="0 0 32 32" fill="none" xmlns="http://www.w3.org/2000/svg">
<rect x="0.5" y="0.5" width="31" height="31" rx="7.5" fill="#F8FAFC"/>
<rect x="0.5" y="0.5" width="31" height="31" rx="7.5" stroke="#EBF0F5"/>
<path fill-rule="evenodd" clip-rule="evenodd" d="M13.9935 8.66722C13.7906 8.84016 13.6891 8.92664 13.5807 8.99927C13.3323 9.16578 13.0533 9.28134 12.7599 9.33926C12.6319 9.36453 12.499 9.37514 12.2332 9.39635C11.5654 9.44964 11.2315 9.47629 10.9529 9.57468C10.3086 9.80227 9.80178 10.3091 9.57419 10.9534C9.4758 11.232 9.44915 11.5659 9.39586 12.2337C9.37465 12.4995 9.36404 12.6324 9.33877 12.7604C9.28085 13.0538 9.16529 13.3328 8.99879 13.5812C8.92615 13.6896 8.83968 13.7911 8.66673 13.994C8.2322 14.5039 8.01492 14.7589 7.88752 15.0254C7.59283 15.642 7.59283 16.3587 7.88752 16.9752C8.01493 17.2418 8.23219 17.4968 8.66673 18.0067C8.83966 18.2096 8.92615 18.3111 8.99879 18.4194C9.16529 18.6679 9.28085 18.9468 9.33877 19.2402C9.36404 19.3682 9.37465 19.5011 9.39586 19.7669C9.44915 20.4347 9.4758 20.7687 9.57419 21.0472C9.80178 21.6916 10.3086 22.1984 10.9529 22.426C11.2315 22.5244 11.5654 22.551 12.2332 22.6043C12.499 22.6255 12.6319 22.6361 12.7599 22.6614C13.0533 22.7193 13.3323 22.8349 13.5807 23.0014C13.6891 23.074 13.7906 23.1605 13.9935 23.3334C14.5034 23.768 14.7584 23.9852 15.0249 24.1126C15.6415 24.4073 16.3582 24.4073 16.9747 24.1126C17.2413 23.9852 17.4963 23.768 18.0062 23.3334C18.2091 23.1605 18.3106 23.074 18.419 23.0014C18.6674 22.8349 18.9464 22.7193 19.2398 22.6614C19.3677 22.6361 19.5006 22.6255 19.7664 22.6043C20.4343 22.551 20.7682 22.5244 21.0467 22.426C21.6911 22.1984 22.1979 21.6916 22.4255 21.0472C22.5239 20.7687 22.5505 20.4347 22.6038 19.7669C22.625 19.5011 22.6356 19.3682 22.6609 19.2402C22.7188 18.9468 22.8344 18.6679 23.0009 18.4194C23.0735 18.3111 23.16 18.2096 23.3329 18.0067C23.7675 17.4968 23.9847 17.2418 24.1122 16.9752C24.4068 16.3587 24.4068 15.642 24.1122 15.0254C23.9847 14.7589 23.7675 14.5039 23.3329 13.994C23.16 13.7911 23.0735 13.6896 23.0009 13.5812C22.8344 13.3328 22.7188 13.0538 22.6609 12.7604C22.6356 12.6324 22.625 12.4995 22.6038 12.2337C22.5505 11.5659 22.5239 11.232 22.4255 10.9534C22.1979 10.3091 21.6911 9.80227 21.0467 9.57468C20.7682 9.47628 20.4343 9.44964 19.7664 9.39635C19.5006 9.37514 19.3677 9.36453 19.2398 9.33926C18.9464 9.28134 18.6674 9.16578 18.419 8.99927C18.3106 8.92664 18.2091 8.84017 18.0062 8.66722C17.4963 8.23268 17.2413 8.01541 16.9747 7.88801C16.3582 7.59332 15.6415 7.59332 15.0249 7.88801C14.7584 8.01541 14.5034 8.23269 13.9935 8.66722ZM19.1923 12.8083C19.4571 13.0732 19.4571 13.5026 19.1923 13.7675L13.7665 19.1932C13.5017 19.4581 13.0722 19.4581 12.8074 19.1932C12.5425 18.9283 12.5425 18.4989 12.8074 18.2341L18.2331 12.8083C18.498 12.5435 18.9274 12.5435 19.1923 12.8083ZM19.1648 18.2615C19.1648 18.7609 18.76 19.1658 18.2605 19.1658C17.7611 19.1658 17.3563 18.7609 17.3563 18.2615C17.3563 17.7621 17.7611 17.3572 18.2605 17.3572C18.76 17.3572 19.1648 17.7621 19.1648 18.2615ZM13.7391 14.6443C14.2385 14.6443 14.6434 14.2395 14.6434 13.74C14.6434 13.2406 14.2385 12.8357 13.7391 12.8357C13.2397 12.8357 12.8348 13.2406 12.8348 13.74C12.8348 14.2395 13.2397 14.6443 13.7391 14.6443Z" fill="#134D61"/>
</svg>
