<svg width="161" height="160" viewBox="0 0 161 160" fill="none" xmlns="http://www.w3.org/2000/svg">
<path d="M60.4998 62.4375V36.1875C60.3559 33.3853 61.3268 30.6399 63.2005 28.5512C65.0742 26.4625 67.6984 25.2002 70.4998 25.04H145.5C148.301 25.2002 150.925 26.4625 152.799 28.5512C154.673 30.6399 155.644 33.3853 155.5 36.1875V94.7125C155.558 96.0546 155.34 97.3943 154.862 98.6495C154.384 99.9047 153.654 101.049 152.718 102.012C151.781 102.975 150.658 103.737 149.417 104.251C148.176 104.765 146.843 105.02 145.5 105H140.5L140.552 120.345C140.552 125.455 136.117 126.643 133.052 122.845L118 105H77.9998L60.4998 62.4375Z" fill="#EBF0F5"/>
<path d="M5.5 108.97V71.8625C5.5292 70.5895 5.81295 69.3352 6.33452 68.1736C6.85609 67.012 7.60492 65.9665 8.53689 65.0989C9.46885 64.2312 10.5651 63.5589 11.761 63.1216C12.9568 62.6843 14.2282 62.4908 15.5 62.5525L57.8225 62.5H69.15C70.3531 62.5097 71.5419 62.7624 72.645 63.2429C73.7481 63.7234 74.7428 64.4218 75.5693 65.2961C76.3958 66.1705 77.0371 67.2029 77.4548 68.3312C77.8725 69.4596 78.058 70.6607 78 71.8625V108.97C78 114.803 73 117.5 68 117.5H40.5L33 132.305C31.125 135.805 27.0825 135.993 25.5 132.305L18 117.5H15.5C10.5 117.5 5.5 114.803 5.5 108.97Z" fill="#3CB5CD"/>
<path opacity="0.3" d="M69.15 62.5H57.8225L15.5 62.5525C14.6568 62.5651 13.8179 62.675 13 62.88V93C13 97.5087 14.7911 101.833 17.9792 105.021C21.1673 108.209 25.4913 110 30 110H77.8875C77.9449 109.659 77.9824 109.315 78 108.97V71.8625C78.058 70.6607 77.8725 69.4596 77.4548 68.3312C77.0371 67.2029 76.3958 66.1705 75.5693 65.2961C74.7428 64.4218 73.7481 63.7234 72.645 63.2429C71.5419 62.7624 70.3531 62.5097 69.15 62.5Z" fill="white"/>
<path d="M70.5 75H25.5V80H70.5V75Z" fill="white"/>
<path d="M43 85H13V90H43V85Z" fill="white"/>
<path d="M70.5 85H48V90H70.5V85Z" fill="white"/>
<path d="M58 95H13V100H58V95Z" fill="white"/>
<path opacity="0.4" d="M145.5 25.0298H81.1101C78.9592 25.0298 76.8964 25.8842 75.3755 27.4051C73.8545 28.9261 73.0001 30.9889 73.0001 33.1398V47.4998C72.9879 48.4769 73.1691 49.4469 73.5334 50.3537C73.8977 51.2605 74.4378 52.0863 75.1226 52.7834C75.8075 53.4805 76.6235 54.0353 77.5236 54.4157C78.4238 54.7961 79.3904 54.9946 80.3676 54.9998C81.3636 54.9822 82.3531 55.1632 83.2784 55.5322C84.2037 55.9012 85.0462 56.4509 85.7568 57.1491C86.4673 57.8473 87.0316 58.68 87.4168 59.5987C87.802 60.5174 88.0002 61.5036 88.0001 62.4998V80.8423C88.0001 85.2601 89.7551 89.497 92.879 92.6209C96.0028 95.7448 100.24 97.4998 104.658 97.4998H155.125C155.365 96.5863 155.491 95.6467 155.5 94.7023V36.1773C155.644 33.375 154.673 30.6296 152.799 28.5409C150.926 26.4522 148.301 25.1899 145.5 25.0298Z" fill="white"/>
<path d="M93 37.4999C94.9891 37.4999 96.8968 38.2901 98.3033 39.6966C99.7098 41.1031 100.5 43.0108 100.5 44.9999C100.5 46.989 99.7098 48.8967 98.3033 50.3032C96.8968 51.7097 94.9891 52.4999 93 52.4999C92.337 52.4999 91.7011 52.7633 91.2322 53.2321C90.7634 53.701 90.5 54.3369 90.5 54.9999V64.9999H95.5V57.2499C97.8173 56.7769 99.9528 55.6562 101.659 54.0179C103.364 52.3796 104.57 50.2911 105.137 47.9948C105.703 45.6984 105.606 43.2886 104.857 41.0452C104.108 38.8018 102.739 36.8168 100.907 35.3208C99.0749 33.8248 96.8562 32.8792 94.5084 32.5938C92.1606 32.3084 89.78 32.6949 87.6431 33.7085C85.5063 34.722 83.7008 36.321 82.4363 38.3197C81.1719 40.3184 80.5005 42.6348 80.5 44.9999H85.5C85.5 43.0108 86.2902 41.1031 87.6967 39.6966C89.1032 38.2901 91.0109 37.4999 93 37.4999Z" fill="#003768"/>
<path d="M95.5 67.5H90.5V72.5H95.5V67.5Z" fill="#003768"/>
<path d="M148 40H113V45H148V40Z" fill="#003768"/>
<path d="M140.5 50H110.5V55H140.5V50Z" fill="#003768"/>
<path d="M115.5 80H85.5V85H115.5V80Z" fill="#003768"/>
<path d="M145.5 80H120.5V85H145.5V80Z" fill="#003768"/>
</svg>
