<svg width="172" height="56" viewBox="0 0 172 56" fill="none" xmlns="http://www.w3.org/2000/svg">
<g opacity="0.8">
<g clip-path="url(#clip0_6543_929)">
<path d="M3 15C3 8.37258 8.37258 3 15 3H156.5C163.127 3 168.5 8.37258 168.5 15V41C168.5 47.6274 163.127 53 156.5 53H15C8.37258 53 3 47.6274 3 41V15Z" fill="#3CB5CD"/>
<circle cx="86" cy="87" r="84" fill="white" fill-opacity="0.08"/>
<circle cx="86.0001" cy="87.0001" r="50.4" fill="white" fill-opacity="0.12"/>
<path d="M159.545 34.0106L159.45 33.9304C159.245 32.8571 158.72 31.8698 157.943 31.0971C157.165 30.3245 156.171 29.8024 155.09 29.5988V29.4088C156.171 29.2064 157.165 28.685 157.943 27.9128C158.721 27.1405 159.246 26.1534 159.45 25.0802L159.545 25L159.639 25.0802C159.844 26.1535 160.369 27.1407 161.147 27.9129C161.925 28.6851 162.919 29.2064 164 29.4088V29.5988C162.919 29.8023 161.925 30.3244 161.147 31.097C160.369 31.8696 159.844 32.857 159.639 33.9304L159.545 34.0106ZM84.4548 35.4304L84.3591 35.3502C84.1548 34.2769 83.6297 33.2895 82.8522 32.5169C82.0746 31.7443 81.0807 31.2221 80 31.0186V30.8287C81.0807 30.6263 82.0748 30.1049 82.8525 29.3327C83.6302 28.5604 84.1552 27.5732 84.3591 26.5L84.4548 26.4199L84.5489 26.5C84.7531 27.5733 85.2785 28.5605 86.0564 29.3328C86.8343 30.105 87.8286 30.6263 88.9095 30.8287V31.0186C87.8286 31.2221 86.8345 31.7442 86.0567 32.5168C85.2789 33.2894 84.7535 34.2768 84.5489 35.3502L84.4548 35.4304ZM121.714 53L121.618 52.9198C121.414 51.8465 120.889 50.8592 120.111 50.0865C119.334 49.3139 118.34 48.7917 117.259 48.5882V48.3982C118.34 48.1958 119.334 47.6744 120.111 46.9021C120.889 46.1299 121.414 45.1427 121.618 44.0695L121.714 43.9894L121.808 44.0695C122.012 45.1428 122.537 46.13 123.315 46.9022C124.093 47.6745 125.088 48.1958 126.168 48.3982V48.5881C125.088 48.7916 124.093 49.3137 123.316 50.0863C122.538 50.8589 122.012 51.8463 121.808 52.9197L121.714 53Z" fill="#77CBDC"/>
<path d="M-7.54524 9.0106L-7.44956 8.93043C-7.24533 7.85711 -6.72023 6.86977 -5.94268 6.09712C-5.16514 5.32447 -4.17122 4.80235 -3.09049 4.59882V4.40883C-4.17122 4.2064 -5.16534 3.68501 -5.943 2.91278C-6.72066 2.14054 -7.24571 1.15336 -7.44956 0.0801735L-7.54524 0L-7.63944 0.0801735C-7.84361 1.15346 -8.36895 2.14067 -9.14687 2.91289C-9.92477 3.68511 -10.9191 4.20645 -12 4.40883V4.59882C-10.9191 4.80231 -9.92498 5.32438 -9.14719 6.09701C-8.36939 6.86964 -7.84399 7.857 -7.63944 8.93043L-7.54524 9.0106ZM67.5452 10.4304L67.6409 10.3502C67.8452 9.27689 68.3703 8.28955 69.1478 7.5169C69.9254 6.74425 70.9193 6.22213 72 6.0186V5.8287C70.9193 5.62627 69.9252 5.10489 69.1475 4.33265C68.3698 3.56042 67.8448 2.57323 67.6409 1.50005L67.5452 1.41987L67.4511 1.50005C67.2469 2.57334 66.7215 3.56054 65.9436 4.33276C65.1657 5.10498 64.1714 5.62632 63.0905 5.8287V6.0186C64.1714 6.22209 65.1655 6.74416 65.9433 7.51679C66.7211 8.28942 67.2465 9.27678 67.4511 10.3502L67.5452 10.4304ZM30.2864 28L30.382 27.9198C30.5863 26.8465 31.1114 25.8592 31.8889 25.0865C32.6665 24.3139 33.6604 23.7917 34.7411 23.5882V23.3982C33.6604 23.1958 32.6663 22.6744 31.8886 21.9021C31.1109 21.1299 30.5859 20.1427 30.382 19.0695L30.2864 18.9894L30.1922 19.0695C29.988 20.1428 29.4627 21.13 28.6847 21.9022C27.9068 22.6745 26.9125 23.1958 25.8316 23.3982V23.5881C26.9125 23.7916 27.9066 24.3137 28.6844 25.0863C29.4622 25.8589 29.9876 26.8463 30.1922 27.9197L30.2864 28Z" fill="#77CBDC"/>
<path d="M16.008 35V24.57H17.912V29.204L21.832 24.57H24.226L20.614 28.854L24.352 35H22.112L19.312 30.408L17.912 32.074V35H16.008ZM28.072 35.168C26.28 35.168 25.202 33.908 25.202 32.046V27.384H27.036V31.892C27.036 32.858 27.666 33.488 28.576 33.488C29.472 33.488 30.116 32.858 30.116 31.85V27.384H31.95V35H30.214V34.09C29.794 34.804 29.024 35.168 28.072 35.168ZM33.6548 35V24.402H35.4888V35H33.6548ZM37.1821 26.53V24.57H39.0161V26.53H37.1821ZM37.1821 35V27.384H39.0161V35H37.1821ZM44.1815 35.084C42.4595 35.084 41.4795 34.09 41.4795 32.382V29.022H40.1635V27.384H40.3035C41.0455 27.384 41.4795 26.978 41.4795 26.236V25.648H43.3135V27.384H45.0635V29.022H43.3135V32.284C43.3135 33.054 43.7055 33.474 44.6015 33.474C44.7275 33.474 44.9095 33.46 45.0915 33.432V35C44.8255 35.042 44.4615 35.084 44.1815 35.084ZM49.135 35V24.57H53.531C55.589 24.57 56.835 25.676 56.835 27.51C56.835 28.224 56.569 28.868 55.995 29.386C56.933 29.988 57.255 30.856 57.255 31.808C57.255 33.81 55.855 35 53.531 35H49.135ZM51.039 28.616H53.629C54.413 28.616 54.917 28.112 54.917 27.384C54.917 26.656 54.413 26.194 53.629 26.194H51.039V28.616ZM51.039 33.32H53.727C54.707 33.32 55.351 32.718 55.351 31.808C55.351 30.884 54.707 30.282 53.727 30.282H51.039V33.32ZM62.2726 35.168C59.9346 35.168 58.3526 33.404 58.3526 31.178C58.3526 28.896 59.9906 27.216 62.1326 27.216C64.4986 27.216 65.8426 28.91 65.8426 30.94C65.8426 31.22 65.8146 31.5 65.7446 31.71H60.2566C60.3686 32.83 61.1806 33.558 62.2866 33.558C63.1266 33.558 63.7146 33.166 64.0506 32.578L65.5346 33.306C65.0726 34.398 63.8266 35.168 62.2726 35.168ZM62.1326 28.728C61.2086 28.728 60.5086 29.302 60.2986 30.31H63.8826C63.7986 29.372 63.0986 28.728 62.1326 28.728ZM67.2329 35V27.384H68.9549V28.462C69.3469 27.594 70.0749 27.3 71.0129 27.3H71.4609V28.924H70.8029C69.7669 28.924 69.0669 29.596 69.0669 30.758V35H67.2329ZM72.4692 26.53V24.57H74.3032V26.53H72.4692ZM71.4192 38.094C71.1812 38.094 70.8872 38.08 70.7192 38.038V36.442C70.8732 36.47 71.0412 36.484 71.2232 36.484C72.0072 36.484 72.4692 36.12 72.4692 35.378V27.384H74.3032V35.378C74.3032 37.128 73.1832 38.094 71.4192 38.094ZM79.6086 35.168C77.2706 35.168 75.6886 33.404 75.6886 31.178C75.6886 28.896 77.3266 27.216 79.4686 27.216C81.8346 27.216 83.1786 28.91 83.1786 30.94C83.1786 31.22 83.1506 31.5 83.0806 31.71H77.5926C77.7046 32.83 78.5166 33.558 79.6226 33.558C80.4626 33.558 81.0506 33.166 81.3866 32.578L82.8706 33.306C82.4086 34.398 81.1626 35.168 79.6086 35.168ZM79.4686 28.728C78.5446 28.728 77.8446 29.302 77.6346 30.31H81.2186C81.1346 29.372 80.4346 28.728 79.4686 28.728ZM84.5688 35V27.384H86.2908V28.462C86.6828 27.594 87.4108 27.3 88.3488 27.3H88.7968V28.924H88.1388C87.1028 28.924 86.4028 29.596 86.4028 30.758V35H84.5688ZM92.1152 35.168C90.5192 35.168 89.4972 34.328 89.4972 32.984C89.4972 31.724 90.3372 30.842 92.1292 30.548L94.3972 30.184V29.932C94.3972 29.274 93.8372 28.784 92.9972 28.784C92.1992 28.784 91.5692 29.246 91.2892 29.932L89.7912 29.204C90.2392 28.014 91.5412 27.216 93.0672 27.216C94.9292 27.216 96.2312 28.336 96.2312 29.932V35H94.4952V34.188C93.9072 34.832 93.1232 35.168 92.1152 35.168ZM91.4012 32.914C91.4012 33.446 91.8352 33.768 92.4512 33.768C93.6132 33.768 94.3972 32.942 94.3972 31.892V31.584L92.4792 31.906C91.7512 32.046 91.4012 32.368 91.4012 32.914ZM99.8443 35L97.2263 27.384H99.1583L100.754 32.186L102.448 27.384H104.072L105.752 32.172L107.348 27.384H109.28L106.662 35H105.024L103.26 29.862L101.468 35H99.8443ZM112.322 35.168C110.726 35.168 109.704 34.328 109.704 32.984C109.704 31.724 110.544 30.842 112.336 30.548L114.604 30.184V29.932C114.604 29.274 114.044 28.784 113.204 28.784C112.406 28.784 111.776 29.246 111.496 29.932L109.998 29.204C110.446 28.014 111.748 27.216 113.274 27.216C115.136 27.216 116.438 28.336 116.438 29.932V35H114.702V34.188C114.114 34.832 113.33 35.168 112.322 35.168ZM111.608 32.914C111.608 33.446 112.042 33.768 112.658 33.768C113.82 33.768 114.604 32.942 114.604 31.892V31.584L112.686 31.906C111.958 32.046 111.608 32.368 111.608 32.914ZM121.469 35.084C119.747 35.084 118.767 34.09 118.767 32.382V29.022H117.451V27.384H117.591C118.333 27.384 118.767 26.978 118.767 26.236V25.648H120.601V27.384H122.351V29.022H120.601V32.284C120.601 33.054 120.993 33.474 121.889 33.474C122.015 33.474 122.197 33.46 122.379 33.432V35C122.113 35.042 121.749 35.084 121.469 35.084Z" fill="white"/>
<rect x="132.5" y="16" width="24" height="24" rx="8" fill="#ECF8FA"/>
<path d="M144.5 34.0256H141V35.7499H144.5V34.0256Z" fill="#EEB9AD"/>
<path d="M147.312 30.2118C148.07 29.437 148.5 28.3923 148.5 27.2975V26.559C148.5 26.1913 148.415 25.8288 148.25 25.5L148.151 24.0088C148.064 22.7015 147.052 21.6448 145.75 21.5L145.498 21.3323C144.685 20.7895 143.728 20.5 142.75 20.5C141.772 20.5 140.815 20.7895 140.001 21.3323L139.75 21.5C138.448 21.6448 137.437 22.7015 137.35 24.0088L137.25 25.5C137.086 25.8288 137 26.1915 137 26.559V27.2975C137 28.3923 137.43 29.437 138.188 30.212" fill="#3CB5CD"/>
<path d="M147.312 30.2118C148.07 29.4371 148.5 28.3923 148.5 27.2976V26.5591C148.5 26.1916 148.415 25.8288 148.25 25.5001L148.151 24.0088C148.064 22.7016 147.052 21.6448 145.75 21.5001L145.498 21.3323C145.308 21.2056 145.11 21.0938 144.906 20.9951C144.452 20.8603 143.979 20.7883 143.5 20.7883C142.522 20.7883 141.565 21.0778 140.752 21.6206L140.5 21.7883C139.198 21.9331 138.186 22.9898 138.099 24.2971L138 25.7883C137.836 26.1171 137.75 26.4798 137.75 26.8473V27.5858C137.75 28.5503 138.085 29.4756 138.682 30.2121L147.312 30.2118Z" fill="#50BCD2"/>
<path d="M143.75 24.4535H143.25V24.25C143.25 23.6 143.196 22.9455 143.089 22.3047L143.003 21.7912L143.497 21.709L143.582 22.2225C143.694 22.8905 143.75 23.5725 143.75 24.25V24.4535ZM142.445 24.6L142.208 24.2627C141.909 23.8132 141.75 23.2902 141.75 22.75H142.25C142.25 23.1912 142.38 23.6182 142.624 23.9852L142.85 24.307L142.445 24.6ZM138.496 26.093L138.418 26.0007C138.146 25.651 138 25.225 138 24.7927V24.75H138.5V24.7927C138.5 25.1147 138.609 25.4317 138.806 25.686L138.877 25.7697L138.496 26.093ZM148.366 25.776C148.333 25.682 148.295 25.5895 148.25 25.5L148.221 25.0572L148.042 25.3612L147.958 25.4872C147.772 25.7657 147.475 25.9495 147.14 25.9915L146.795 26.0397L146.864 26.5347L147.205 26.487C147.677 26.4282 148.099 26.169 148.366 25.776Z" fill="#134D61"/>
<path d="M146.281 31.5308C147.208 30.7408 147.75 29.5798 147.75 28.3495C147.75 26.0852 145.915 24.25 143.65 24.25H141.849C139.585 24.25 137.75 26.0852 137.75 28.3495C137.75 29.587 138.298 30.7545 139.236 31.5448" fill="#8AD3E1"/>
<path d="M142.75 25.25C144.682 25.25 146.388 26.51 146.956 28.3562L147 28.5L146.499 30.7533C146.178 32.1985 145.327 33.471 144.115 34.32C143.714 34.5997 143.238 34.75 142.75 34.75C142.262 34.75 141.786 34.5997 141.385 34.32C140.173 33.471 139.322 32.1985 139.001 30.7533L138.5 28.5L138.544 28.3562C139.112 26.51 140.818 25.25 142.75 25.25Z" fill="#EEB9AD"/>
<path d="M141.885 34.32C142.217 34.5518 142.601 34.6885 143 34.731C143.399 34.6888 143.784 34.5518 144.115 34.32C145.327 33.471 146.178 32.1985 146.499 30.7533L147 28.5L146.956 28.3563C146.412 26.5903 144.827 25.3638 143 25.2603C141.173 25.3638 139.588 26.5903 139.044 28.3563L139 28.5L139.501 30.7533C139.822 32.1985 140.673 33.471 141.885 34.32Z" fill="#FFE2D5"/>
<path d="M144.5 29.2499C144.096 29.2499 143.733 29.0257 143.553 28.6644L143.526 28.6119L143.974 28.3882L144 28.4409C144.095 28.6314 144.287 28.7499 144.5 28.7499C144.713 28.7499 144.905 28.6314 145 28.4409L145.026 28.3882L145.473 28.6119L145.447 28.6647C145.267 29.0257 144.904 29.2499 144.5 29.2499ZM141 29.2499C140.596 29.2499 140.233 29.0257 140.053 28.6644L140.026 28.6119L140.474 28.3882L140.5 28.4409C140.595 28.6314 140.787 28.7499 141 28.7499C141.213 28.7499 141.405 28.6314 141.5 28.4409L141.526 28.3882L141.973 28.6119L141.947 28.6647C141.767 29.0257 141.404 29.2499 141 29.2499ZM142.573 31.9267L142.073 31.4267C142.016 31.3699 141.99 31.2892 142.003 31.2099C142.016 31.1307 142.066 31.0624 142.138 31.0264C142.361 30.9147 142.5 30.6904 142.5 30.4409V29.2499H143V30.4412C143 30.7672 142.866 31.0687 142.636 31.2832L142.927 31.5734L142.573 31.9267ZM142.75 32.9999C142.21 32.9999 141.686 32.8414 141.237 32.5417L141.111 32.4579L141.388 32.0419L141.514 32.1257C142.249 32.6152 143.251 32.6152 143.985 32.1257L144.111 32.0419L144.388 32.4579L144.263 32.5417C143.813 32.8414 143.29 32.9999 142.75 32.9999Z" fill="#EEB9AD"/>
<path d="M144.115 34.57C143.714 34.8497 143.238 35 142.75 35C142.306 35 141.875 34.8702 141.5 34.6375C141.5 35.2517 141.998 35.75 142.613 35.75H144.5V34.2722C144.375 34.3757 144.248 34.4765 144.115 34.57Z" fill="#FFE2D5"/>
<path d="M150.25 24.75L149.125 25.875L149.875 26.6251L151 25.5L150.25 24.75Z" fill="#134D61"/>
<path d="M146.308 28.6921L145.5 29.4999L146.25 30.2499L147.058 29.4421" fill="#134D61"/>
<path d="M145.698 29.6982L144.573 30.8232L144.927 31.1768L146.052 30.0518L145.698 29.6982Z" fill="#B8CAD0"/>
<path d="M149.875 25.1249L149.125 25.875L149.875 26.6251L150.625 25.875L149.875 25.1249Z" fill="#2B5F71"/>
<path d="M150.75 23.7497L150 24.4998L151.25 25.7497L152 24.9996L150.75 23.7497Z" fill="#B8CAD0"/>
<path d="M150.75 23.7498L150.25 24.2498L151.5 25.4997L152 24.9998L150.75 23.7498Z" fill="#E7EDEF"/>
<path d="M146.25 28.375C146.25 28.615 146.346 28.8455 146.515 29.0153L146.735 29.235C146.904 29.4045 147.135 29.5 147.375 29.5C147.615 29.5 147.846 29.4045 148.015 29.2347L150.25 27L148.75 25.5L146.515 27.7347C146.346 27.9045 146.25 28.135 146.25 28.375Z" fill="#B8CAD0"/>
<path d="M146.515 27.7347C146.438 27.8117 146.379 27.9025 146.334 28C146.379 28.0972 146.438 28.188 146.515 28.2653L146.735 28.485C146.905 28.6545 147.135 28.75 147.375 28.75C147.615 28.75 147.846 28.6545 148.015 28.4847L149.875 26.625L148.75 25.5L146.515 27.7347Z" fill="#E7EDEF"/>
<path d="M146.802 27.4482L146.448 27.8018L147.073 28.4268L147.427 28.0733L146.802 27.4482Z" fill="white"/>
<path d="M147.552 26.6982L147.198 27.0518L147.573 27.4267L147.927 27.0731L147.552 26.6982Z" fill="white"/>
<path d="M148.302 25.9482L147.948 26.3018L148.573 26.9268L148.927 26.5733L148.302 25.9482Z" fill="white"/>
<path d="M146.265 29.2652C146.173 29.1724 146.104 29.0609 146.059 28.9404L145.5 29.4999L146.25 30.2499L146.809 29.6904C146.689 29.6454 146.577 29.5774 146.485 29.4847L146.265 29.2652Z" fill="#2B5F71"/>
</g>
<path d="M15 1.5C7.54416 1.5 1.5 7.54416 1.5 15V41C1.5 48.4558 7.54416 54.5 15 54.5H156.5C163.956 54.5 170 48.4558 170 41V15C170 7.54416 163.956 1.5 156.5 1.5H15Z" stroke="#D8F0F5" stroke-width="3"/>
</g>
<defs>
<clipPath id="clip0_6543_929">
<path d="M3 15C3 8.37258 8.37258 3 15 3H156.5C163.127 3 168.5 8.37258 168.5 15V41C168.5 47.6274 163.127 53 156.5 53H15C8.37258 53 3 47.6274 3 41V15Z" fill="white"/>
</clipPath>
</defs>
</svg>
