<svg width="172" height="56" viewBox="0 0 172 56" fill="none" xmlns="http://www.w3.org/2000/svg">
<g opacity="0.8">
<g clip-path="url(#clip0_6543_1284)">
<path d="M3 15C3 8.37258 8.37258 3 15 3H156.5C163.127 3 168.5 8.37258 168.5 15V41C168.5 47.6274 163.127 53 156.5 53H15C8.37258 53 3 47.6274 3 41V15Z" fill="#3CB5CD"/>
<circle cx="86" cy="87" r="84" fill="white" fill-opacity="0.08"/>
<circle cx="86.0001" cy="87.0001" r="50.4" fill="white" fill-opacity="0.12"/>
<path d="M159.545 34.0106L159.45 33.9304C159.245 32.8571 158.72 31.8698 157.943 31.0971C157.165 30.3245 156.171 29.8024 155.09 29.5988V29.4088C156.171 29.2064 157.165 28.685 157.943 27.9128C158.721 27.1405 159.246 26.1534 159.45 25.0802L159.545 25L159.639 25.0802C159.844 26.1535 160.369 27.1407 161.147 27.9129C161.925 28.6851 162.919 29.2064 164 29.4088V29.5988C162.919 29.8023 161.925 30.3244 161.147 31.097C160.369 31.8696 159.844 32.857 159.639 33.9304L159.545 34.0106ZM84.4548 35.4304L84.3591 35.3502C84.1548 34.2769 83.6297 33.2895 82.8522 32.5169C82.0746 31.7443 81.0807 31.2221 80 31.0186V30.8287C81.0807 30.6263 82.0748 30.1049 82.8525 29.3327C83.6302 28.5604 84.1552 27.5732 84.3591 26.5L84.4548 26.4199L84.5489 26.5C84.7531 27.5733 85.2785 28.5605 86.0564 29.3328C86.8343 30.105 87.8286 30.6263 88.9095 30.8287V31.0186C87.8286 31.2221 86.8345 31.7442 86.0567 32.5168C85.2789 33.2894 84.7535 34.2768 84.5489 35.3502L84.4548 35.4304ZM121.714 53L121.618 52.9198C121.414 51.8465 120.889 50.8592 120.111 50.0865C119.334 49.3139 118.34 48.7917 117.259 48.5882V48.3982C118.34 48.1958 119.334 47.6744 120.111 46.9021C120.889 46.1299 121.414 45.1427 121.618 44.0695L121.714 43.9894L121.808 44.0695C122.012 45.1428 122.537 46.13 123.315 46.9022C124.093 47.6745 125.088 48.1958 126.168 48.3982V48.5881C125.088 48.7916 124.093 49.3137 123.316 50.0863C122.538 50.8589 122.012 51.8463 121.808 52.9197L121.714 53Z" fill="#77CBDC"/>
<path d="M-7.54524 9.0106L-7.44956 8.93043C-7.24533 7.85711 -6.72023 6.86977 -5.94268 6.09712C-5.16514 5.32447 -4.17122 4.80235 -3.09049 4.59882V4.40883C-4.17122 4.2064 -5.16534 3.68501 -5.943 2.91278C-6.72066 2.14054 -7.24571 1.15336 -7.44956 0.0801735L-7.54524 0L-7.63944 0.0801735C-7.84361 1.15346 -8.36895 2.14067 -9.14687 2.91289C-9.92477 3.68511 -10.9191 4.20645 -12 4.40883V4.59882C-10.9191 4.80231 -9.92498 5.32438 -9.14719 6.09701C-8.36939 6.86964 -7.84399 7.857 -7.63944 8.93043L-7.54524 9.0106ZM67.5452 10.4304L67.6409 10.3502C67.8452 9.27689 68.3703 8.28955 69.1478 7.5169C69.9254 6.74425 70.9193 6.22213 72 6.0186V5.8287C70.9193 5.62627 69.9252 5.10489 69.1475 4.33265C68.3698 3.56042 67.8448 2.57323 67.6409 1.50005L67.5452 1.41987L67.4511 1.50005C67.2469 2.57334 66.7215 3.56054 65.9436 4.33276C65.1657 5.10498 64.1714 5.62632 63.0905 5.8287V6.0186C64.1714 6.22209 65.1655 6.74416 65.9433 7.51679C66.7211 8.28942 67.2465 9.27678 67.4511 10.3502L67.5452 10.4304ZM30.2864 28L30.382 27.9198C30.5863 26.8465 31.1114 25.8592 31.8889 25.0865C32.6665 24.3139 33.6604 23.7917 34.7411 23.5882V23.3982C33.6604 23.1958 32.6663 22.6744 31.8886 21.9021C31.1109 21.1299 30.5859 20.1427 30.382 19.0695L30.2864 18.9894L30.1922 19.0695C29.988 20.1428 29.4627 21.13 28.6847 21.9022C27.9068 22.6745 26.9125 23.1958 25.8316 23.3982V23.5881C26.9125 23.7916 27.9066 24.3137 28.6844 25.0863C29.4622 25.8589 29.9876 26.8463 30.1922 27.9197L30.2864 28Z" fill="#77CBDC"/>
<path d="M16.008 35V24.57H17.912V29.204L21.832 24.57H24.226L20.614 28.854L24.352 35H22.112L19.312 30.408L17.912 32.074V35H16.008ZM28.072 35.168C26.28 35.168 25.202 33.908 25.202 32.046V27.384H27.036V31.892C27.036 32.858 27.666 33.488 28.576 33.488C29.472 33.488 30.116 32.858 30.116 31.85V27.384H31.95V35H30.214V34.09C29.794 34.804 29.024 35.168 28.072 35.168ZM33.6548 35V24.402H35.4888V35H33.6548ZM37.1821 26.53V24.57H39.0161V26.53H37.1821ZM37.1821 35V27.384H39.0161V35H37.1821ZM44.1815 35.084C42.4595 35.084 41.4795 34.09 41.4795 32.382V29.022H40.1635V27.384H40.3035C41.0455 27.384 41.4795 26.978 41.4795 26.236V25.648H43.3135V27.384H45.0635V29.022H43.3135V32.284C43.3135 33.054 43.7055 33.474 44.6015 33.474C44.7275 33.474 44.9095 33.46 45.0915 33.432V35C44.8255 35.042 44.4615 35.084 44.1815 35.084ZM49.135 35V24.57H51.039V29.204L54.959 24.57H57.353L53.741 28.854L57.479 35H55.239L52.439 30.408L51.039 32.074V35H49.135ZM61.8215 35.168C59.4835 35.168 57.9015 33.404 57.9015 31.178C57.9015 28.896 59.5395 27.216 61.6815 27.216C64.0475 27.216 65.3915 28.91 65.3915 30.94C65.3915 31.22 65.3635 31.5 65.2935 31.71H59.8055C59.9175 32.83 60.7295 33.558 61.8355 33.558C62.6755 33.558 63.2635 33.166 63.5995 32.578L65.0835 33.306C64.6215 34.398 63.3755 35.168 61.8215 35.168ZM61.6815 28.728C60.7575 28.728 60.0575 29.302 59.8475 30.31H63.4315C63.3475 29.372 62.6475 28.728 61.6815 28.728ZM66.7817 35V27.384H68.5037V28.322C68.9097 27.594 69.7077 27.216 70.6597 27.216C72.3397 27.216 73.5297 28.392 73.5297 30.1V35H71.6957V30.534C71.6957 29.526 71.0657 28.896 70.1557 28.896C69.2457 28.896 68.6157 29.54 68.6157 30.534V35H66.7817ZM78.6226 35.168C76.4106 35.168 74.7726 33.432 74.7726 31.192C74.7726 28.952 76.4386 27.216 78.6086 27.216C79.5886 27.216 80.4006 27.552 80.9466 28.154V24.402H82.7806V35H81.0446V34.16C80.4846 34.818 79.6026 35.168 78.6226 35.168ZM78.8186 33.488C80.0506 33.488 80.9466 32.536 80.9466 31.192C80.9466 29.862 80.0506 28.896 78.8186 28.896C77.5726 28.896 76.6766 29.876 76.6766 31.192C76.6766 32.522 77.5726 33.488 78.8186 33.488ZM87.2028 35.168C85.4108 35.168 84.3328 33.908 84.3328 32.046V27.384H86.1668V31.892C86.1668 32.858 86.7968 33.488 87.7068 33.488C88.6028 33.488 89.2468 32.858 89.2468 31.85V27.384H91.0808V35H89.3448V34.09C88.9248 34.804 88.1548 35.168 87.2028 35.168ZM92.7856 35V27.384H94.5076V28.462C94.8996 27.594 95.6276 27.3 96.5656 27.3H97.0136V28.924H96.3556C95.3196 28.924 94.6196 29.596 94.6196 30.758V35H92.7856Z" fill="white"/>
<rect x="132.5" y="16" width="24" height="24" rx="8" fill="#ECF8FA"/>
<path d="M146.25 34.0256H142.75V35.7499H146.25V34.0256Z" fill="#EEB9AD"/>
<path d="M149.062 30.2118C149.82 29.437 150.25 28.3923 150.25 27.2975V26.559C150.25 26.1912 150.165 25.8288 150 25.5L149.901 24.0087C149.814 22.7015 148.802 21.6447 147.5 21.5L147.248 21.3322C146.435 20.7895 145.478 20.5 144.5 20.5C143.522 20.5 142.565 20.7895 141.752 21.3322L141.5 21.5C140.198 21.6447 139.186 22.7015 139.099 24.0087L139 25.5C138.836 25.8288 138.75 26.1915 138.75 26.559V27.2975C138.75 28.3923 139.18 29.437 139.938 30.212" fill="#3CB5CD"/>
<path d="M149.062 30.2118C149.82 29.4371 150.25 28.3923 150.25 27.2976V26.5591C150.25 26.1916 150.165 25.8288 150 25.5001L149.901 24.0088C149.814 22.7016 148.802 21.6448 147.5 21.5001L147.248 21.3323C147.058 21.2056 146.86 21.0938 146.656 20.9951C146.202 20.8603 145.729 20.7883 145.25 20.7883C144.272 20.7883 143.315 21.0778 142.502 21.6206L142.25 21.7883C140.948 21.9331 139.936 22.9898 139.849 24.2971L139.75 25.7883C139.586 26.1171 139.5 26.4798 139.5 26.8473V27.5858C139.5 28.5503 139.835 29.4756 140.432 30.2121L149.062 30.2118Z" fill="#50BCD2"/>
<path d="M145.5 24.4535H145V24.25C145 23.6 144.946 22.9455 144.839 22.3047L144.753 21.7912L145.247 21.709L145.332 22.2225C145.443 22.8905 145.5 23.5725 145.5 24.25V24.4535ZM144.194 24.6L143.958 24.2627C143.659 23.8132 143.5 23.2902 143.5 22.75H144C144 23.1912 144.129 23.6182 144.374 23.9852L144.6 24.307L144.194 24.6ZM140.246 26.093L140.168 26.0007C139.896 25.651 139.75 25.225 139.75 24.7927V24.75H140.25V24.7927C140.25 25.1147 140.359 25.4317 140.556 25.686L140.627 25.7697L140.246 26.093Z" fill="#134D61"/>
<path d="M148.031 31.5308C148.958 30.7408 149.5 29.5797 149.5 28.3495C149.5 26.0852 147.665 24.25 145.401 24.25H143.599C141.335 24.25 139.5 26.0852 139.5 28.3495C139.5 29.587 140.048 30.7545 140.985 31.5448" fill="#77CBDC"/>
<path d="M144.5 25.25C146.432 25.25 148.138 26.51 148.706 28.3562L148.75 28.5L148.249 30.7533C147.928 32.1985 147.077 33.471 145.865 34.32C145.464 34.5997 144.988 34.75 144.5 34.75C144.012 34.75 143.536 34.5997 143.135 34.32C141.923 33.471 141.072 32.1985 140.751 30.7533L140.25 28.5L140.294 28.3562C140.862 26.51 142.568 25.25 144.5 25.25Z" fill="#EEB9AD"/>
<path d="M143.635 34.32C143.967 34.5518 144.351 34.6885 144.75 34.731C145.149 34.6888 145.534 34.5518 145.865 34.32C147.077 33.471 147.928 32.1985 148.249 30.7533L148.75 28.5L148.706 28.3563C148.162 26.5903 146.577 25.3638 144.75 25.2603C142.923 25.3638 141.338 26.5903 140.794 28.3563L140.75 28.5L141.251 30.7533C141.572 32.1985 142.423 33.471 143.635 34.32Z" fill="#FFE2D5"/>
<path d="M146.25 29.2499C145.846 29.2499 145.483 29.0257 145.303 28.6644L145.276 28.6119L145.724 28.3882L145.75 28.4409C145.845 28.6314 146.037 28.7499 146.25 28.7499C146.463 28.7499 146.655 28.6314 146.75 28.4409L146.776 28.3882L147.223 28.6119L147.197 28.6647C147.017 29.0257 146.654 29.2499 146.25 29.2499ZM142.75 29.2499C142.346 29.2499 141.983 29.0257 141.803 28.6644L141.776 28.6119L142.224 28.3882L142.25 28.4409C142.345 28.6314 142.537 28.7499 142.75 28.7499C142.963 28.7499 143.155 28.6314 143.25 28.4409L143.276 28.3882L143.723 28.6119L143.697 28.6647C143.517 29.0257 143.154 29.2499 142.75 29.2499ZM144.323 31.9267L143.823 31.4267C143.766 31.3699 143.74 31.2892 143.753 31.2099C143.766 31.1307 143.816 31.0624 143.888 31.0264C144.111 30.9147 144.25 30.6904 144.25 30.4409V29.2499H144.75V30.4412C144.75 30.7672 144.616 31.0687 144.386 31.2832L144.677 31.5734L144.323 31.9267ZM144.5 32.9999C143.96 32.9999 143.436 32.8414 142.987 32.5417L142.861 32.4579L143.138 32.0419L143.264 32.1257C143.999 32.6152 145.001 32.6152 145.735 32.1257L145.861 32.0419L146.138 32.4579L146.013 32.5417C145.563 32.8414 145.04 32.9999 144.5 32.9999Z" fill="#EEB9AD"/>
<path d="M148.037 31.5001H147.904C147.771 31.5001 147.637 31.4916 147.506 31.4749L147.57 30.9791C147.68 30.9931 147.792 31.0001 147.904 31.0001H148.037V31.5001ZM146.976 31.3599C146.804 31.3064 146.635 31.2376 146.474 31.1554L146.702 30.7104C146.837 30.7796 146.979 30.8376 147.124 30.8824L146.976 31.3599ZM146.014 30.8671C145.87 30.7584 145.735 30.6364 145.611 30.5044L145.977 30.1629C146.08 30.2739 146.194 30.3764 146.316 30.4681L146.014 30.8671ZM145.276 30.0769C145.177 29.9254 145.091 29.7644 145.02 29.5984L145.48 29.4016C145.54 29.5411 145.612 29.6764 145.695 29.8039L145.276 30.0769ZM141.096 31.5001H140.963V31.0001H141.096C141.208 31.0001 141.321 30.9931 141.431 30.9791L141.494 31.4749C141.363 31.4916 141.229 31.5001 141.096 31.5001ZM142.024 31.3599L141.876 30.8824C142.021 30.8374 142.163 30.7794 142.298 30.7104L142.526 31.1554C142.366 31.2376 142.197 31.3064 142.024 31.3599ZM142.986 30.8671L142.685 30.4681C142.806 30.3764 142.92 30.2739 143.024 30.1629L143.389 30.5044C143.266 30.6361 143.13 30.7584 142.986 30.8671ZM143.724 30.0769L143.305 29.8039C143.388 29.6764 143.461 29.5411 143.52 29.4016L143.98 29.5984C143.909 29.7646 143.823 29.9254 143.724 30.0769ZM143.045 34.3126L142.708 33.9426C142.845 33.8186 142.994 33.7089 143.152 33.6161L143.405 34.0479C143.276 34.1231 143.155 34.2121 143.045 34.3126ZM145.914 34.2759C145.801 34.1781 145.677 34.0921 145.547 34.0204L145.789 33.5826C145.949 33.6711 146.101 33.7771 146.241 33.8976L145.914 34.2759ZM143.812 33.8624L143.653 33.3884C143.827 33.3301 144.008 33.2896 144.191 33.2684L144.249 33.7649C144.101 33.7821 143.954 33.8151 143.812 33.8624ZM145.135 33.8454C144.993 33.8016 144.845 33.7724 144.696 33.7591L144.741 33.2611C144.924 33.2776 145.107 33.3136 145.282 33.3676L145.135 33.8454Z" fill="#F43F5E"/>
<path d="M145.865 34.57C145.464 34.8497 144.988 35 144.5 35C144.056 35 143.625 34.8702 143.25 34.6375C143.25 35.2517 143.748 35.75 144.363 35.75H146.25V34.2722C146.125 34.3757 145.998 34.4765 145.865 34.57Z" fill="#FFE2D5"/>
<path d="M145.389 28.208L145.112 27.792L145.238 27.708C145.343 27.6375 145.455 27.5738 145.571 27.5182L145.787 27.969C145.693 28.0142 145.601 28.0665 145.515 28.124L145.389 28.208ZM147.559 27.8422C147.417 27.7987 147.269 27.7703 147.121 27.7578L147.163 27.2595C147.346 27.275 147.529 27.3102 147.705 27.364L147.559 27.8422ZM146.209 27.8168L146.088 27.3317C146.265 27.2872 146.448 27.2605 146.632 27.2527L146.653 27.7523C146.504 27.7588 146.354 27.7805 146.209 27.8168ZM143.611 28.208L143.485 28.124C143.399 28.0665 143.308 28.0142 143.213 27.969L143.43 27.5182C143.545 27.5738 143.657 27.6375 143.763 27.708L143.889 27.792L143.611 28.208ZM141.441 27.8422L141.295 27.364C141.472 27.3102 141.654 27.2753 141.837 27.2595L141.88 27.7578C141.731 27.7703 141.584 27.7987 141.441 27.8422ZM142.791 27.8168C142.646 27.7803 142.497 27.7588 142.347 27.7523L142.369 27.2527C142.552 27.2605 142.735 27.2872 142.913 27.3317L142.791 27.8168ZM144.75 28.75H144.25V28.25H144.75V28.75ZM144.75 27.75H144.25V27.25H144.75V27.75ZM144.75 26.75H144.25V26.25H144.75V26.75Z" fill="#F43F5E"/>
<path d="M149.25 32.25L150.25 30.75L151.25 32.25H150.75C150.75 33.2165 149.966 34 149 34V33C149.414 33 149.75 32.6643 149.75 32.25H149.25Z" fill="#77CBDC"/>
<path d="M150.25 30.75V32.25C150.25 32.9402 149.69 33.5 149 33.5V34C149.966 34 150.75 33.2165 150.75 32.25H151.25L150.25 30.75Z" fill="#3CB5CD"/>
<path d="M139.75 32.25L138.75 30.75L137.75 32.25H138.25C138.25 33.2165 139.033 34 140 34V33C139.586 33 139.25 32.6643 139.25 32.25H139.75Z" fill="#77CBDC"/>
<path d="M138.75 30.75V32.25C138.75 32.9402 139.31 33.5 140 33.5V34C139.033 34 138.25 33.2165 138.25 32.25H137.75L138.75 30.75Z" fill="#3CB5CD"/>
</g>
<path d="M15 1.5C7.54416 1.5 1.5 7.54416 1.5 15V41C1.5 48.4558 7.54416 54.5 15 54.5H156.5C163.956 54.5 170 48.4558 170 41V15C170 7.54416 163.956 1.5 156.5 1.5H15Z" stroke="#D8F0F5" stroke-width="3"/>
</g>
<defs>
<clipPath id="clip0_6543_1284">
<path d="M3 15C3 8.37258 8.37258 3 15 3H156.5C163.127 3 168.5 8.37258 168.5 15V41C168.5 47.6274 163.127 53 156.5 53H15C8.37258 53 3 47.6274 3 41V15Z" fill="white"/>
</clipPath>
</defs>
</svg>
