<svg width="172" height="56" viewBox="0 0 172 56" fill="none" xmlns="http://www.w3.org/2000/svg">
<g opacity="0.8">
<g clip-path="url(#clip0_6543_1254)">
<path d="M3.5 15C3.5 8.37258 8.87258 3 15.5 3H157C163.627 3 169 8.37258 169 15V41C169 47.6274 163.627 53 157 53H15.5C8.87258 53 3.5 47.6274 3.5 41V15Z" fill="#3CB5CD"/>
<circle cx="86.5" cy="87" r="84" fill="white" fill-opacity="0.08"/>
<circle cx="86.5001" cy="87.0001" r="50.4" fill="white" fill-opacity="0.12"/>
<path d="M160.545 34.0106L160.45 33.9304C160.245 32.8571 159.72 31.8698 158.943 31.0971C158.165 30.3245 157.171 29.8024 156.09 29.5988V29.4088C157.171 29.2064 158.165 28.685 158.943 27.9128C159.721 27.1405 160.246 26.1534 160.45 25.0802L160.545 25L160.639 25.0802C160.844 26.1535 161.369 27.1407 162.147 27.9129C162.925 28.6851 163.919 29.2064 165 29.4088V29.5988C163.919 29.8023 162.925 30.3244 162.147 31.097C161.369 31.8696 160.844 32.857 160.639 33.9304L160.545 34.0106ZM85.4548 35.4304L85.3591 35.3502C85.1548 34.2769 84.6297 33.2895 83.8522 32.5169C83.0746 31.7443 82.0807 31.2221 81 31.0186V30.8287C82.0807 30.6263 83.0748 30.1049 83.8525 29.3327C84.6302 28.5604 85.1552 27.5732 85.3591 26.5L85.4548 26.4199L85.5489 26.5C85.7531 27.5733 86.2785 28.5605 87.0564 29.3328C87.8343 30.105 88.8286 30.6263 89.9095 30.8287V31.0186C88.8286 31.2221 87.8345 31.7442 87.0567 32.5168C86.2789 33.2894 85.7535 34.2768 85.5489 35.3502L85.4548 35.4304ZM122.714 53L122.618 52.9198C122.414 51.8465 121.889 50.8592 121.111 50.0865C120.334 49.3139 119.34 48.7917 118.259 48.5882V48.3982C119.34 48.1958 120.334 47.6744 121.111 46.9021C121.889 46.1299 122.414 45.1427 122.618 44.0695L122.714 43.9894L122.808 44.0695C123.012 45.1428 123.537 46.13 124.315 46.9022C125.093 47.6745 126.088 48.1958 127.168 48.3982V48.5881C126.088 48.7916 125.093 49.3137 124.316 50.0863C123.538 50.8589 123.012 51.8463 122.808 52.9197L122.714 53Z" fill="#77CBDC"/>
<path d="M-6.54524 9.0106L-6.44956 8.93043C-6.24533 7.85711 -5.72023 6.86977 -4.94268 6.09712C-4.16514 5.32447 -3.17122 4.80235 -2.09049 4.59882V4.40883C-3.17122 4.2064 -4.16534 3.68501 -4.943 2.91278C-5.72066 2.14054 -6.24571 1.15336 -6.44956 0.0801735L-6.54524 0L-6.63944 0.0801735C-6.84361 1.15346 -7.36895 2.14067 -8.14687 2.91289C-8.92477 3.68511 -9.91911 4.20645 -11 4.40883V4.59882C-9.9191 4.80231 -8.92498 5.32438 -8.14719 6.09701C-7.36939 6.86964 -6.84399 7.857 -6.63944 8.93043L-6.54524 9.0106ZM68.5452 10.4304L68.6409 10.3502C68.8452 9.27689 69.3703 8.28955 70.1478 7.5169C70.9254 6.74425 71.9193 6.22213 73 6.0186V5.8287C71.9193 5.62627 70.9252 5.10489 70.1475 4.33265C69.3698 3.56042 68.8448 2.57323 68.6409 1.50005L68.5452 1.41987L68.4511 1.50005C68.2469 2.57334 67.7215 3.56054 66.9436 4.33276C66.1657 5.10498 65.1714 5.62632 64.0905 5.8287V6.0186C65.1714 6.22209 66.1655 6.74416 66.9433 7.51679C67.7211 8.28942 68.2465 9.27678 68.4511 10.3502L68.5452 10.4304ZM31.2864 28L31.382 27.9198C31.5863 26.8465 32.1114 25.8592 32.8889 25.0865C33.6665 24.3139 34.6604 23.7917 35.7411 23.5882V23.3982C34.6604 23.1958 33.6663 22.6744 32.8886 21.9021C32.1109 21.1299 31.5859 20.1427 31.382 19.0695L31.2864 18.9894L31.1922 19.0695C30.988 20.1428 30.4627 21.13 29.6847 21.9022C28.9068 22.6745 27.9125 23.1958 26.8316 23.3982V23.5881C27.9125 23.7916 28.9066 24.3137 29.6844 25.0863C30.4622 25.8589 30.9876 26.8463 31.1922 27.9197L31.2864 28Z" fill="#77CBDC"/>
<path d="M16.508 35V24.57H18.412V29.204L22.332 24.57H24.726L21.114 28.854L24.852 35H22.612L19.812 30.408L18.412 32.074V35H16.508ZM28.572 35.168C26.78 35.168 25.702 33.908 25.702 32.046V27.384H27.536V31.892C27.536 32.858 28.166 33.488 29.076 33.488C29.972 33.488 30.616 32.858 30.616 31.85V27.384H32.45V35H30.714V34.09C30.294 34.804 29.524 35.168 28.572 35.168ZM34.1548 35V24.402H35.9888V35H34.1548ZM37.6821 26.53V24.57H39.5161V26.53H37.6821ZM37.6821 35V27.384H39.5161V35H37.6821ZM44.6815 35.084C42.9595 35.084 41.9795 34.09 41.9795 32.382V29.022H40.6635V27.384H40.8035C41.5455 27.384 41.9795 26.978 41.9795 26.236V25.648H43.8135V27.384H45.5635V29.022H43.8135V32.284C43.8135 33.054 44.2055 33.474 45.1015 33.474C45.2275 33.474 45.4095 33.46 45.5915 33.432V35C45.3255 35.042 44.9615 35.084 44.6815 35.084ZM49.635 35V24.57H51.539V29.204L55.459 24.57H57.853L54.241 28.854L57.979 35H55.739L52.939 30.408L51.539 32.074V35H49.635ZM61.6989 35.168C59.9069 35.168 58.8289 33.908 58.8289 32.046V27.384H60.6629V31.892C60.6629 32.858 61.2929 33.488 62.2029 33.488C63.0989 33.488 63.7429 32.858 63.7429 31.85V27.384H65.5769V35H63.8409V34.09C63.4209 34.804 62.6509 35.168 61.6989 35.168ZM70.1797 35.168C68.5557 35.168 67.2677 34.328 66.8197 33.012L68.1917 32.354C68.5977 33.208 69.3257 33.726 70.1797 33.726C70.8377 33.726 71.2717 33.418 71.2717 32.914C71.2717 32.48 70.8797 32.256 70.3897 32.116L69.1437 31.766C67.8557 31.402 67.1837 30.604 67.1837 29.554C67.1837 28.154 68.3457 27.216 69.9977 27.216C71.4257 27.216 72.6017 27.958 73.0777 29.19L71.6777 29.848C71.4257 29.162 70.7537 28.714 69.9837 28.714C69.3677 28.714 68.9897 29.022 68.9897 29.47C68.9897 29.904 69.3537 30.114 69.8857 30.268L71.1037 30.632C72.3637 30.996 73.0637 31.78 73.0637 32.844C73.0637 34.23 71.9017 35.168 70.1797 35.168ZM76.7831 35.168C75.1871 35.168 74.1651 34.328 74.1651 32.984C74.1651 31.724 75.0051 30.842 76.7971 30.548L79.0651 30.184V29.932C79.0651 29.274 78.5051 28.784 77.6651 28.784C76.8671 28.784 76.2371 29.246 75.9571 29.932L74.4591 29.204C74.9071 28.014 76.2091 27.216 77.7351 27.216C79.5971 27.216 80.8991 28.336 80.8991 29.932V35H79.1631V34.188C78.5751 34.832 77.7911 35.168 76.7831 35.168ZM76.0691 32.914C76.0691 33.446 76.5031 33.768 77.1191 33.768C78.2811 33.768 79.0651 32.942 79.0651 31.892V31.584L77.1471 31.906C76.4191 32.046 76.0691 32.368 76.0691 32.914ZM82.5942 35V27.384H84.3162V28.336C84.7082 27.594 85.4922 27.216 86.4442 27.216C87.4662 27.216 88.3482 27.692 88.7962 28.448C89.3142 27.622 90.1542 27.216 91.1622 27.216C92.7722 27.216 93.9762 28.392 93.9762 30.1V35H92.1422V30.534C92.1422 29.526 91.5682 28.896 90.6722 28.896C89.7902 28.896 89.2022 29.54 89.2022 30.534V35H87.3682V30.534C87.3682 29.526 86.7942 28.896 85.8982 28.896C85.0162 28.896 84.4282 29.54 84.4282 30.534V35H82.5942Z" fill="white"/>
<rect x="133" y="16" width="24" height="24" rx="8" fill="#ECF8FA"/>
<g clip-path="url(#clip1_6543_1254)">
<path d="M145 33.7847H141.64V35.4399H145V33.7847Z" fill="#EEB9AD"/>
<path d="M147.699 30.1233C148.427 29.3796 148.84 28.3766 148.84 27.3256V26.6167C148.84 26.2636 148.758 25.9156 148.6 25.6L148.504 24.1684C148.421 22.9135 147.45 21.899 146.2 21.76L145.958 21.599C145.177 21.078 144.259 20.8 143.32 20.8C142.381 20.8 141.462 21.078 140.681 21.599L140.44 21.76C139.19 21.899 138.219 22.9135 138.135 24.1684L138.04 25.6C137.882 25.9156 137.8 26.2639 137.8 26.6167V27.3256C137.8 28.3766 138.213 29.3796 138.94 30.1236" fill="#3CB5CD"/>
<path d="M147.7 30.1235C148.427 29.3797 148.84 28.3767 148.84 27.3258V26.6168C148.84 26.264 148.758 25.9158 148.6 25.6002L148.504 24.1686C148.421 22.9136 147.45 21.8991 146.2 21.7602L145.959 21.5991C145.776 21.4775 145.585 21.3702 145.389 21.2754C144.953 21.146 144.5 21.0769 144.04 21.0769C143.101 21.0769 142.183 21.3548 141.401 21.8759L141.16 22.0369C139.91 22.1759 138.939 23.1903 138.856 24.4453L138.76 25.8769C138.602 26.1925 138.52 26.5407 138.52 26.8935V27.6025C138.52 28.5284 138.841 29.4167 139.415 30.1237L147.7 30.1235Z" fill="#50BCD2"/>
<path d="M144.28 24.5954H143.8V24.4001C143.8 23.7761 143.748 23.1477 143.645 22.5326L143.563 22.0397L144.036 21.9607L144.119 22.4537C144.226 23.0949 144.28 23.7497 144.28 24.4001V24.5954ZM143.026 24.7361L142.799 24.4123C142.512 23.9808 142.36 23.4787 142.36 22.9601H142.84C142.84 23.3837 142.964 23.7936 143.199 24.1459L143.416 24.4548L143.026 24.7361ZM139.235 26.1693L139.161 26.0808C138.9 25.745 138.76 25.3361 138.76 24.9211V24.8801H139.24V24.9211C139.24 25.2302 139.344 25.5345 139.533 25.7786L139.602 25.859L139.235 26.1693ZM148.711 25.865C148.679 25.7748 148.643 25.686 148.6 25.6001L148.571 25.175L148.4 25.4669L148.319 25.5878C148.141 25.8552 147.856 26.0316 147.534 26.0719L147.202 26.1182L147.269 26.5934L147.597 26.5476C148.05 26.4912 148.454 26.2423 148.711 25.865Z" fill="#134D61"/>
<path d="M146.71 31.3897C147.6 30.6313 148.12 29.5167 148.12 28.3357C148.12 26.162 146.358 24.4001 144.184 24.4001H142.455C140.282 24.4001 138.52 26.162 138.52 28.3357C138.52 29.5237 139.046 30.6445 139.946 31.4031" fill="#77CBDC"/>
<path d="M143.32 25.3601C145.174 25.3601 146.812 26.5697 147.357 28.3421L147.4 28.4801L146.919 30.6432C146.611 32.0307 145.794 33.2523 144.63 34.0673C144.246 34.3359 143.788 34.4801 143.32 34.4801C142.851 34.4801 142.394 34.3359 142.01 34.0673C140.846 33.2523 140.029 32.0307 139.72 30.6432L139.24 28.4801L139.282 28.3421C139.828 26.5697 141.465 25.3601 143.32 25.3601Z" fill="#EEB9AD"/>
<path d="M142.49 34.0672C142.808 34.2897 143.176 34.421 143.56 34.4618C143.943 34.4212 144.312 34.2897 144.63 34.0672C145.794 33.2522 146.611 32.0306 146.919 30.6432L147.4 28.48L147.357 28.342C146.835 26.6467 145.314 25.4692 143.56 25.3699C141.806 25.4692 140.284 26.6467 139.762 28.342L139.72 28.48L140.2 30.6432C140.509 32.0306 141.326 33.2522 142.49 34.0672Z" fill="#FFE2D5"/>
<path d="M145 29.2001C144.612 29.2001 144.264 28.9848 144.09 28.638L144.065 28.5876L144.494 28.3728L144.52 28.4234C144.611 28.6063 144.795 28.7201 145 28.7201C145.204 28.7201 145.388 28.6063 145.48 28.4234L145.505 28.3728L145.934 28.5876L145.909 28.6382C145.736 28.9848 145.387 29.2001 145 29.2001ZM141.64 29.2001C141.252 29.2001 140.904 28.9848 140.73 28.638L140.705 28.5876L141.134 28.3728L141.16 28.4234C141.251 28.6063 141.435 28.7201 141.64 28.7201C141.844 28.7201 142.028 28.6063 142.12 28.4234L142.145 28.3728L142.574 28.5876L142.549 28.6382C142.376 28.9848 142.027 29.2001 141.64 29.2001ZM143.15 31.7698L142.67 31.2898C142.615 31.2353 142.59 31.1578 142.603 31.0817C142.615 31.0056 142.663 30.9401 142.732 30.9055C142.946 30.7982 143.08 30.583 143.08 30.3434V29.2001H143.56V30.3437C143.56 30.6566 143.431 30.9461 143.211 31.152L143.489 31.4306L143.15 31.7698ZM143.32 32.8001C142.801 32.8001 142.299 32.6479 141.867 32.3602L141.746 32.2798L142.013 31.8804L142.133 31.9608C142.838 32.4307 143.801 32.4307 144.506 31.9608L144.626 31.8804L144.893 32.2798L144.772 32.3602C144.341 32.6479 143.838 32.8001 143.32 32.8001Z" fill="#EEB9AD"/>
<path d="M144.63 34.3073C144.246 34.5759 143.788 34.7201 143.32 34.7201C142.894 34.7201 142.48 34.5956 142.12 34.3721C142.12 34.9618 142.598 35.4401 143.188 35.4401H145V34.0215C144.88 34.1208 144.758 34.2176 144.63 34.3073Z" fill="#FFE2D5"/>
<path d="M150.52 24.8802L149.44 25.9602L150.16 26.6803L151.24 25.6002L150.52 24.8802Z" fill="#134D61"/>
<path d="M146.735 28.6646L145.96 29.44L146.68 30.16L147.455 29.3846" fill="#134D61"/>
<path d="M146.15 29.6304L145.07 30.7104L145.41 31.0499L146.49 29.9698L146.15 29.6304Z" fill="#B8CAD0"/>
<path d="M150.16 25.2401L149.44 25.9602L150.16 26.6803L150.88 25.9602L150.16 25.2401Z" fill="#2B5F71"/>
<path d="M151 23.9198L150.28 24.6399L151.48 25.8399L152.2 25.1198L151 23.9198Z" fill="#B8CAD0"/>
<path d="M151 23.92L150.52 24.3999L151.72 25.5999L152.2 25.1199L151 23.92Z" fill="#E7EDEF"/>
<path d="M146.68 28.3601C146.68 28.5905 146.772 28.8118 146.935 28.9747L147.146 29.1857C147.308 29.3484 147.53 29.4401 147.76 29.4401C147.991 29.4401 148.212 29.3484 148.375 29.1855L150.52 27.0401L149.08 25.6001L146.935 27.7455C146.772 27.9084 146.68 28.1297 146.68 28.3601Z" fill="#B8CAD0"/>
<path d="M146.935 27.7455C146.861 27.8194 146.803 27.9065 146.761 28.0001C146.803 28.0935 146.861 28.1806 146.935 28.2547L147.145 28.4657C147.308 28.6284 147.529 28.7201 147.76 28.7201C147.99 28.7201 148.212 28.6284 148.375 28.4655L150.16 26.6801L149.08 25.6001L146.935 27.7455Z" fill="#E7EDEF"/>
<path d="M147.21 27.4704L146.87 27.8098L147.47 28.4099L147.81 28.0705L147.21 27.4704Z" fill="white"/>
<path d="M147.93 26.7504L147.59 27.0898L147.95 27.4498L148.29 27.1104L147.93 26.7504Z" fill="white"/>
<path d="M148.649 26.0305L148.31 26.3699L148.91 26.9699L149.25 26.6305L148.649 26.0305Z" fill="white"/>
<path d="M146.695 29.2148C146.606 29.1258 146.54 29.0188 146.497 28.9031L145.96 29.4402L146.68 30.1602L147.217 29.6231C147.101 29.5799 146.994 29.5146 146.905 29.4256L146.695 29.2148Z" fill="#2B5F71"/>
</g>
</g>
<path d="M15.5 1.5C8.04416 1.5 2 7.54416 2 15V41C2 48.4558 8.04416 54.5 15.5 54.5H157C164.456 54.5 170.5 48.4558 170.5 41V15C170.5 7.54416 164.456 1.5 157 1.5H15.5Z" stroke="#D8F0F5" stroke-width="3"/>
</g>
<defs>
<clipPath id="clip0_6543_1254">
<path d="M3.5 15C3.5 8.37258 8.87258 3 15.5 3H157C163.627 3 169 8.37258 169 15V41C169 47.6274 163.627 53 157 53H15.5C8.87258 53 3.5 47.6274 3.5 41V15Z" fill="white"/>
</clipPath>
<clipPath id="clip1_6543_1254">
<rect width="15.36" height="15.36" fill="white" transform="translate(137.32 20.3201)"/>
</clipPath>
</defs>
</svg>
