<svg width="160" height="160" viewBox="0 0 160 160" fill="#CBD5E1" xmlns="http://www.w3.org/2000/svg">
<path d="M127.5 5H145C150.523 5 155 9.4775 155 15V20H127.5V5Z" fill="#CBD5E1"/>
<path d="M25 155V17.5V15C25 9.4775 29.4775 5 35 5H137.5C131.978 5 127.5 9.4775 127.5 15V145C127.5 150.523 123.022 155 117.5 155H107.5H25Z" fill="#E2E8F0"/>
<path d="M25 15V17.5V42.2525C39.17 88.18 78.855 122.892 127.5 129.882V15C127.5 9.4775 131.978 5 137.5 5H35C29.4775 5 25 9.4775 25 15ZM107.5 155C101.978 155 97.5 150.523 97.5 145V140H5V145C5 150.523 9.4775 155 15 155H107.5Z" fill="#EBF0F5"/>
<path d="M60 25H35V50H60V25Z" fill="#335F86"/>
<path d="M120 25H75V30H120V25Z" fill="#CBD5E1"/>
<path d="M120 35H67.5V40H120V35Z" fill="#CBD5E1"/>
<path d="M120 45H67.5V50H120V45Z" fill="#CBD5E1"/>
<path d="M60 60H35V85H60V60Z" fill="#335F86"/>
<path d="M35 85H48.01C43.1075 79.0275 38.7525 72.5875 35 65.7725V85Z" fill="#003768"/>
<path d="M107.5 60H75V65H107.5V60Z" fill="#CBD5E1"/>
<path d="M95 70H67.5V75H95V70Z" fill="#CBD5E1"/>
<path d="M87.5 80H67.5V85H87.5V80Z" fill="#CBD5E1"/>
<path d="M60 95H35V120H60V95Z" fill="#003768"/>
<path d="M90 95H67.5V100H90V95Z" fill="#CBD5E1"/>
<path d="M92.5 105H67.5V110H92.5V105Z" fill="#CBD5E1"/>
<path d="M95 115H67.5V120H95V115Z" fill="#CBD5E1"/>
<path d="M117.5 132.5C138.211 132.5 155 115.711 155 95C155 74.2893 138.211 57.5 117.5 57.5C96.7893 57.5 80 74.2893 80 95C80 115.711 96.7893 132.5 117.5 132.5Z" fill="#3CB5CD"/>
<path d="M117.5 57.5C108.737 57.5 100.698 60.5275 94.315 65.565C89.28 71.9475 86.25 79.99 86.25 88.75C86.25 109.46 103.04 126.25 123.75 126.25C132.513 126.25 140.552 123.222 146.935 118.185C151.972 111.802 155 103.763 155 95C155 74.29 138.21 57.5 117.5 57.5Z" fill="#63C4D7"/>
<path d="M92.5 100L100 92.5L110 102.5L135 77.5L142.5 85L110 117.5L92.5 100Z" fill="white"/>
</svg>
