<svg width="24" height="24" viewBox="0 0 24 24" fill="#1C274C" xmlns="http://www.w3.org/2000/svg">
<path d="M2 5C2 4.05719 2 3.58579 2.29289 3.29289C2.58579 3 3.05719 3 4 3H20C20.9428 3 21.4142 3 21.7071 3.29289C22 3.58579 22 4.05719 22 5C22 5.94281 22 6.41421 21.7071 6.70711C21.4142 7 20.9428 7 20 7H4C3.05719 7 2.58579 7 2.29289 6.70711C2 6.41421 2 5.94281 2 5Z" fill="#1C274C"/>
<path d="M20.0689 8.50006C20.2101 8.50011 20.3551 8.50017 20.5 8.49817V13C20.5 16.7713 20.5 18.6569 19.3284 19.8284C18.183 20.9738 16.3552 20.9994 12.75 21L12.75 13.9545L14.4425 15.8351C14.7196 16.1429 15.1938 16.1679 15.5017 15.8908C15.8096 15.6137 15.8346 15.1395 15.5575 14.8316L12.5575 11.4983C12.4152 11.3402 12.2126 11.25 12 11.25C11.7874 11.25 11.5848 11.3402 11.4425 11.4983L8.44254 14.8316C8.16544 15.1395 8.1904 15.6137 8.49828 15.8908C8.80617 16.1679 9.28038 16.1429 9.55748 15.8351L11.25 13.9545L11.25 21C7.64485 20.9994 5.81697 20.9738 4.67157 19.8284C3.5 18.6569 3.5 16.7713 3.5 13V8.49817C3.64488 8.50017 3.78999 8.50011 3.93114 8.50006H20.0689Z" fill="#1C274C"/>
</svg>
