<svg width="24" height="24" viewBox="0 0 24 24" fill="#1C274C" xmlns="http://www.w3.org/2000/svg">
<path fill-rule="evenodd" clip-rule="evenodd" d="M9.97929 4.87931C10.9655 4.2931 11.4586 4 12 4C12.5415 4 13.0346 4.2931 14.0207 4.87931L16.9793 6.63792C17.6848 7.05728 18.1379 7.32663 18.4378 7.62274L21.5641 5.3897C21.9011 5.14894 22.3696 5.22701 22.6103 5.56407C22.8511 5.90113 22.773 6.36954 22.4359 6.6103L18.9823 9.07722C19 9.39104 19 9.76853 19 10.2414V13.7586C19 14.931 19 15.5172 18.7293 16C18.4586 16.4828 17.9655 16.7759 16.9793 17.3621L14.0207 19.1207C13.0346 19.7069 12.5415 20 12 20C11.4586 20 10.9655 19.7069 9.97929 19.1207L7.02074 17.3621C6.3849 16.9841 5.95403 16.728 5.65559 16.4643L2.41604 18.624C2.0714 18.8538 1.60575 18.7607 1.37598 18.416C1.14622 18.0714 1.23935 17.6057 1.58399 17.376L5.02864 15.0795C5.00002 14.7363 5.00002 14.313 5.00002 13.7586V10.2414C5.00002 9.68703 5.00002 9.26374 5.02864 8.92047L1.58399 6.62404C1.23935 6.39427 1.14622 5.92862 1.37598 5.58397C1.60575 5.23933 2.0714 5.1462 2.41604 5.37596L5.65559 7.53566C5.95403 7.27199 6.3849 7.01588 7.02074 6.63792L9.97929 4.87931ZM16.6443 14.116C16.8563 14.4718 16.7398 14.9322 16.384 15.1442L12.384 17.5283C12.0282 17.7404 11.5678 17.6239 11.3558 17.268C11.1437 16.9122 11.2602 16.4519 11.616 16.2398L15.616 13.8558C15.9718 13.6437 16.4322 13.7602 16.6443 14.116Z" fill="#1C274C"/>
</svg>
