<svg width="24" height="24" viewBox="0 0 24 24" fill="#1C274C" xmlns="http://www.w3.org/2000/svg">
<path d="M16.7426 15.1587L12.3019 12.0052L12.3079 12.001L12.3013 11.9964L16.7426 8.84247C17.2829 8.45885 17.7547 8.12381 18.0842 7.80869C18.435 7.47321 18.75 7.04417 18.75 6.45932C18.75 5.87447 18.435 5.44542 18.0842 5.10994C17.7547 4.79483 17.2829 4.45979 16.7426 4.07618L14.9098 2.77464C14.1803 2.25657 13.5644 1.81914 13.0535 1.55856C12.5333 1.29321 11.8982 1.09352 11.263 1.41849C10.6261 1.74439 10.4191 2.37748 10.3337 2.95438C10.2499 3.51985 10.25 4.27295 10.25 5.16363L10.25 10.5605L6.43016 7.88662C6.09082 7.64908 5.62318 7.73161 5.38564 8.07094C5.1481 8.41028 5.23063 8.87793 5.56997 9.11547L9.69222 12.001L5.56997 14.8866C5.23063 15.1242 5.1481 15.5918 5.38564 15.9311C5.62318 16.2705 6.09082 16.353 6.43016 16.1155L10.25 13.4416L10.25 18.8375C10.25 19.7282 10.2499 20.4813 10.3337 21.0468C10.4191 21.6237 10.6261 22.2568 11.2631 22.5827C11.8982 22.9076 12.5333 22.7079 13.0535 22.4426C13.5644 22.182 14.1803 21.7446 14.9098 21.2265L16.7425 19.925C17.2828 19.5414 17.7547 19.2063 18.0842 18.8912C18.435 18.5557 18.75 18.1267 18.75 17.5418C18.75 16.957 18.435 16.5279 18.0842 16.1925C17.7547 15.8773 17.2829 15.5423 16.7426 15.1587Z" fill="#1C274C"/>
</svg>
