<svg width="24" height="24" viewBox="0 0 24 24" fill="#1C274C" xmlns="http://www.w3.org/2000/svg">
<path d="M2 11.9996C2 7.28556 2 4.92854 3.46447 3.46407C4.6409 2.28764 6.39332 2.05625 9.4809 2.01075V4.0602C9.4809 4.61668 9.00457 5.05872 8.52039 5.33301C7.60566 5.85122 6.96191 7.03951 6.96191 8.09059C6.96191 9.48178 8.0897 10.6096 9.4809 10.6096C10.8721 10.6096 11.9999 9.48178 11.9999 8.09059C11.9999 9.48178 13.1277 10.6096 14.5189 10.6096C15.9101 10.6096 17.0379 9.48178 17.0379 8.09059C17.0379 7.03951 16.3941 5.85122 15.4794 5.33301C14.9952 5.05872 14.5189 4.61668 14.5189 4.0602V2.01074C17.6066 2.05624 19.3591 2.28761 20.5355 3.46407C22 4.92854 22 7.28556 22 11.9996C22 16.7136 22 19.0707 20.5355 20.5351C19.3639 21.7068 17.621 21.941 14.557 21.9879L14.557 19.9844C14.557 19.4279 15.0333 18.9859 15.5175 18.7116C16.4322 18.1934 17.076 17.0051 17.076 15.954C17.076 14.5628 15.9482 13.435 14.557 13.435C13.1658 13.435 12.038 14.5628 12.038 15.954C12.038 14.5628 10.9102 13.435 9.51899 13.435C8.12779 13.435 7 14.5628 7 15.954C7 17.0051 7.64375 18.1934 8.55848 18.7116C9.04266 18.9859 9.51899 19.4279 9.51899 19.9844V21.989C6.40771 21.9448 4.64573 21.7164 3.46447 20.5351C2 19.0707 2 16.7136 2 11.9996Z" fill="#1C274C"/>
</svg>
