<svg width="24" height="24" viewBox="0 0 24 24" fill="#1C274C" xmlns="http://www.w3.org/2000/svg">
<path d="M10.1861 2.13939C10.5395 2.35544 10.6508 2.81707 10.4348 3.17048C10.278 3.42693 10.3173 3.75739 10.5298 3.96993L10.6277 4.06781C11.2164 4.65647 11.4334 5.52124 11.1926 6.31812C11.0727 6.71461 10.6541 6.93888 10.2576 6.81903C9.86114 6.69918 9.63688 6.28059 9.75673 5.8841C9.83761 5.61652 9.76472 5.32614 9.56706 5.12847L9.46918 5.03059C8.76666 4.32807 8.63678 3.23577 9.15499 2.3881C9.37104 2.03469 9.83267 1.92334 10.1861 2.13939Z" fill="#1C274C"/>
<path d="M17.6891 4.72186C18.0952 4.80309 18.3586 5.19821 18.2774 5.60438L18.1334 6.32432C17.9353 7.31513 17.2214 8.1238 16.2628 8.44333C15.8149 8.59264 15.4813 8.97051 15.3887 9.43349L15.2447 10.1534C15.1635 10.5596 14.7684 10.823 14.3622 10.7418C13.956 10.6605 13.6926 10.2654 13.7738 9.85925L13.9178 9.13932C14.116 8.1485 14.8299 7.33983 15.7885 7.0203C16.2364 6.871 16.57 6.49313 16.6626 6.03014L16.8065 5.31021C16.8878 4.90404 17.2829 4.64062 17.6891 4.72186Z" fill="#1C274C"/>
<path d="M21.4085 13.5597C21.0468 13.4016 20.6262 13.468 20.3308 13.7299C19.5215 14.4475 18.3439 14.5668 17.4072 14.026L17.1943 13.9031C16.8356 13.696 16.7127 13.2373 16.9198 12.8786C17.1269 12.5199 17.5856 12.397 17.9443 12.6041L18.1572 12.727C18.5347 12.9449 19.0094 12.8969 19.3356 12.6076C20.0684 11.9578 21.112 11.793 22.0094 12.1854L22.3009 12.3128C22.6804 12.4787 22.8536 12.9209 22.6876 13.3005C22.5217 13.68 22.0795 13.8531 21.7 13.6872L21.4085 13.5597Z" fill="#1C274C"/>
<path d="M6.92761 3.94106C7.13708 3.73159 7.47669 3.73159 7.68616 3.94106C7.89563 4.15052 7.89563 4.49014 7.68616 4.69961C7.47669 4.90908 7.13708 4.90908 6.92761 4.69961C6.71814 4.49014 6.71814 4.15052 6.92761 3.94106Z" fill="#1C274C"/>
<path d="M12.9157 7.15736C12.7062 6.9479 12.3666 6.9479 12.1571 7.15736C11.9476 7.36683 11.9476 7.70645 12.1571 7.91592C12.3666 8.12539 12.7062 8.12539 12.9157 7.91592C13.1251 7.70645 13.1251 7.36683 12.9157 7.15736Z" fill="#1C274C"/>
<path d="M17.1571 10.1574C17.3666 9.9479 17.7062 9.9479 17.9157 10.1574C18.1251 10.3668 18.1251 10.7064 17.9157 10.9159C17.7062 11.1254 17.3666 11.1254 17.1571 10.9159C16.9476 10.7064 16.9476 10.3668 17.1571 10.1574Z" fill="#1C274C"/>
<path d="M19.8165 15.3136C19.6071 15.1041 19.2674 15.1041 19.058 15.3136C18.8485 15.5231 18.8485 15.8627 19.058 16.0722C19.2674 16.2816 19.6071 16.2816 19.8165 16.0722C20.026 15.8627 20.026 15.5231 19.8165 15.3136Z" fill="#1C274C"/>
<path d="M7.47151 20.2417C5.20995 20.9873 4.01839 21.2993 3.35924 20.6402C2.62936 19.9103 3.09026 18.5276 4.01207 15.7622L5.70156 10.6937C6.33358 8.79763 6.70486 7.68377 7.32442 7.23193L7.31921 7.25774C7.31199 7.29366 7.30156 7.34613 7.28842 7.41363C7.26215 7.54862 7.22504 7.74383 7.18122 7.987C7.09363 8.47302 6.97894 9.15222 6.87035 9.92611C6.65521 11.4593 6.45595 13.4183 6.5586 14.9837C6.62072 15.931 6.81779 17.106 6.99367 18.0242C7.08243 18.4876 7.16741 18.8937 7.23023 19.1842C7.26166 19.3295 7.2876 19.4461 7.30576 19.5267L7.3269 19.6199L7.47151 20.2417Z" fill="#1C274C"/>
<path d="M13.0389 18.3868L13.3057 18.2978C15.6038 17.5318 16.7528 17.1488 16.9667 16.2426C17.1807 15.3363 16.3242 14.4799 14.6114 12.767L12.9221 11.0777L12.9174 11.0925C12.8978 11.1543 12.8694 11.2454 12.8352 11.3598C12.7666 11.589 12.6751 11.9099 12.5837 12.2757C12.3967 13.0245 12.227 13.8976 12.227 14.5556C12.227 15.2135 12.3967 16.0866 12.5837 16.8354C12.6751 17.2013 12.7666 17.5222 12.8352 17.7513C12.8694 17.8657 12.8978 17.9568 12.9174 18.0186C12.9272 18.0495 12.9348 18.073 12.9398 18.0885L12.9454 18.1056L12.9467 18.1093L13.0389 18.3868Z" fill="#1C274C"/>
<path d="M8.79967 7.50462L8.85034 7.25934C9.46308 7.61871 10.1888 8.3444 11.2324 9.38802L11.7352 9.89086L11.5225 10.5309L11.5134 10.5588C11.5073 10.5774 11.4986 10.6044 11.4877 10.6388C11.4658 10.7076 11.435 10.8066 11.3982 10.9296C11.3246 11.1754 11.2266 11.5191 11.1284 11.9123C10.9363 12.6815 10.727 13.7038 10.727 14.5556C10.727 15.4074 10.9363 16.4297 11.1284 17.1989C11.2266 17.5921 11.3246 17.9358 11.3982 18.1815C11.435 18.3046 11.4658 18.4035 11.4877 18.4724C11.4986 18.5068 11.5073 18.5337 11.5134 18.5524L11.6159 18.8611L8.90092 19.7661L8.7941 19.307L8.78901 19.2849L8.7691 19.1971C8.75178 19.1203 8.72677 19.0078 8.69633 18.8671C8.63541 18.5854 8.55293 18.1912 8.46689 17.742C8.29314 16.835 8.11112 15.7355 8.05539 14.8856C7.96334 13.4818 8.14317 11.6499 8.35579 10.1345C8.46109 9.38415 8.57244 8.72465 8.65744 8.25304C8.6999 8.01738 8.73572 7.82905 8.7608 7.70019C8.77333 7.63577 8.78318 7.58625 8.78983 7.55315L8.79734 7.51601L8.79917 7.50703L8.79967 7.50462Z" fill="#1C274C"/>
<path d="M14.9535 2.21069C15.1052 2.19057 15.3817 2.18091 15.6015 2.40067C15.8212 2.62044 15.8116 2.89692 15.7915 3.0486C15.7724 3.19194 15.7236 3.36368 15.677 3.52728L15.6412 3.65329L15.7059 3.75575C15.7934 3.89431 15.8874 4.04318 15.945 4.1756C16.0099 4.32496 16.0837 4.57709 15.9445 4.84197C15.808 5.10181 15.5635 5.18732 15.4079 5.22269C15.2664 5.25487 15.0893 5.26862 14.921 5.2817L14.7935 5.29165L14.7829 5.29249L14.691 5.40405C14.5814 5.53735 14.4676 5.67568 14.3603 5.77379C14.2467 5.87772 14.0332 6.03795 13.736 5.99725C13.4286 5.95516 13.2692 5.73257 13.192 5.59346C13.1222 5.46751 13.061 5.30171 13.004 5.14721L12.9638 5.03834L12.8549 4.99813C12.7004 4.94112 12.5346 4.87996 12.4087 4.8101C12.2696 4.73296 12.047 4.57358 12.0049 4.26618C11.9642 3.96894 12.1244 3.75547 12.2284 3.64185C12.3265 3.53459 12.4648 3.42078 12.5981 3.31111L12.7097 3.21926L12.7105 3.20864L12.7204 3.08113C12.7335 2.91279 12.7473 2.73577 12.7795 2.59422C12.8148 2.43866 12.9003 2.19419 13.1602 2.05762C13.4251 1.9184 13.6772 1.99226 13.8265 2.05718C13.959 2.11474 14.1078 2.20877 14.2464 2.2963L14.3489 2.36094L14.4748 2.32513C14.6385 2.27857 14.8102 2.2297 14.9535 2.21069Z" fill="#1C274C"/>
<path d="M22.1397 10.4925C22.6068 10.0254 22.7795 9.39656 22.5236 8.84266C22.3295 8.42248 21.9368 8.1492 21.4545 8.04627C21.3516 7.56398 21.0783 7.1712 20.6581 6.97712C20.1042 6.72127 19.4753 6.89394 19.0082 7.36107C18.7373 7.63195 18.6146 7.99496 18.5571 8.31823C18.4983 8.64893 18.4972 8.99849 18.5168 9.30474C18.5366 9.61398 18.5788 9.89756 18.6157 10.1026C18.6342 10.2056 18.6516 10.2901 18.6645 10.3497C18.671 10.3795 18.6764 10.4032 18.6803 10.4199C18.7249 10.6 18.8723 10.7691 19.0523 10.8136L19.0535 10.8139L19.0809 10.8204C19.0975 10.8243 19.1212 10.8297 19.151 10.8362C19.2106 10.8492 19.2951 10.8666 19.3982 10.8851C19.6032 10.9219 19.8868 10.9642 20.196 10.984C20.5023 11.0036 20.8518 11.0024 21.1825 10.9436C21.5058 10.8861 21.8688 10.7634 22.1397 10.4925Z" fill="#1C274C"/>
</svg>
