<svg width="24" height="24" viewBox="0 0 24 24" fill="#1C274C" xmlns="http://www.w3.org/2000/svg">
<path d="M2 12.5C2 12.2239 2.22386 12 2.5 12H7.5C7.77614 12 8 12.2239 8 12.5V18C8 19.6569 6.65685 21 5 21C3.34315 21 2 19.6569 2 18V12.5Z" fill="#1C274C"/>
<path d="M3 10.5005H7V6.00031C7 5.25693 6.21769 4.77344 5.55279 5.10589L3.55279 6.10589C3.214 6.27528 3 6.62154 3 7.00031V10.5005Z" fill="#1C274C"/>
<path d="M11 10.5C11 7.46243 13.4624 5 16.5 5C19.5376 5 22 7.46243 22 10.5C22 13.5376 19.5376 16 16.5 16C13.4624 16 11 13.5376 11 10.5Z" fill="#1C274C"/>
<path d="M15.75 17.7108C15.9964 17.737 16.2466 17.7505 16.5 17.7505C16.7534 17.7505 17.0036 17.737 17.25 17.7108V19.5005H19.5C19.9142 19.5005 20.25 19.8363 20.25 20.2505C20.25 20.6647 19.9142 21.0005 19.5 21.0005H13.5C13.0858 21.0005 12.75 20.6647 12.75 20.2505C12.75 19.8363 13.0858 19.5005 13.5 19.5005H15.75V17.7108Z" fill="#1C274C"/>
</svg>
