<svg width="24" height="24" viewBox="0 0 24 24" fill="#1C274C" xmlns="http://www.w3.org/2000/svg">
<path fill-rule="evenodd" clip-rule="evenodd" d="M1.60603 6.08111C2.11366 5.86356 2.70154 6.09871 2.9191 6.60634L1.99995 7.00026C2.9191 6.60634 2.91924 6.60666 2.9191 6.60634L2.91858 6.60514C2.9183 6.60449 2.91851 6.60496 2.91858 6.60514L2.9225 6.614C2.92651 6.62302 2.93339 6.63833 2.94319 6.65954C2.96278 6.70196 2.99397 6.76784 3.03696 6.85382C3.12302 7.02595 3.25594 7.27771 3.43737 7.58252C3.80137 8.19404 4.35439 9.0085 5.10775 9.81981C5.28532 10.011 5.47324 10.2013 5.67173 10.3883C5.68003 10.3958 5.68823 10.4036 5.69633 10.4114C7.18102 11.8017 9.25227 13.0003 12 13.0003C13.2089 13.0003 14.2783 12.7694 15.2209 12.3984C16.4469 11.9159 17.4745 11.1894 18.3156 10.4C19.2652 9.50864 19.9627 8.55029 20.4232 7.81125C20.6526 7.44317 20.8207 7.13343 20.9299 6.91934C20.9844 6.81241 21.0241 6.72968 21.0491 6.67586C21.0617 6.64897 21.0706 6.62932 21.0758 6.61753L21.0808 6.60634C21.2985 6.09898 21.8864 5.86361 22.3939 6.08111C22.9015 6.29867 23.1367 6.88655 22.9191 7.39418L22 7.00026C22.9191 7.39418 22.9192 7.39395 22.9191 7.39418L22.9169 7.3992L22.9134 7.40742L22.9019 7.43326C22.8924 7.45459 22.879 7.48403 22.8618 7.52097C22.8274 7.59482 22.7774 7.6988 22.7115 7.82799C22.5799 8.08615 22.384 8.44633 22.1206 8.86893C21.718 9.51508 21.152 10.3165 20.4096 11.1245L21.2071 11.922C21.5976 12.3125 21.5976 12.9457 21.2071 13.3362C20.8165 13.7267 20.1834 13.7267 19.7928 13.3362L18.9527 12.496C18.3884 12.9518 17.757 13.3816 17.0558 13.7525L17.8381 14.9549C18.1393 15.4178 18.0083 16.0372 17.5453 16.3384C17.0824 16.6397 16.463 16.5086 16.1618 16.0456L15.1763 14.5311C14.4973 14.7393 13.772 14.8868 13 14.9559V16.5003C13 17.0525 12.5522 17.5003 12 17.5003C11.4477 17.5003 11 17.0525 11 16.5003V14.9561C10.2253 14.8869 9.50014 14.7391 8.82334 14.5315L7.83814 16.0456C7.53693 16.5086 6.91748 16.6397 6.45457 16.3384C5.99165 16.0372 5.86056 15.4178 6.16177 14.9549L6.94417 13.7524C6.24405 13.3819 5.61245 12.952 5.04746 12.4958L4.20706 13.3362C3.81654 13.7267 3.18337 13.7267 2.79285 13.3362C2.40232 12.9457 2.40232 12.3125 2.79285 11.922L3.59029 11.1245C2.74529 10.2048 2.12772 9.29249 1.71879 8.60549C1.5096 8.25405 1.35345 7.95894 1.2481 7.74825C1.19539 7.64283 1.15529 7.55832 1.12752 7.4982C1.11363 7.46814 1.10282 7.44415 1.09505 7.42667L1.08566 7.40539L1.08267 7.3985L1.0816 7.39602L1.08117 7.39502C1.08098 7.39458 1.08081 7.39418 1.99995 7.00026L1.08117 7.39502C0.863613 6.88739 1.0984 6.29867 1.60603 6.08111Z" fill="#1C274C"/>
</svg>
