<svg width="24" height="24" viewBox="0 0 24 24" fill="#1C274C" xmlns="http://www.w3.org/2000/svg">
<path d="M17.8144 21.2361L17.5433 21.6941C17.3017 22.1022 16.6982 22.1022 16.4567 21.6941L16.1856 21.2361C15.9754 20.881 15.8702 20.7034 15.7014 20.6051C15.5325 20.5069 15.32 20.5033 14.8948 20.496C14.2671 20.4851 13.8734 20.4467 13.5433 20.3099C12.9307 20.0562 12.444 19.5695 12.1903 18.9569C12 18.4975 12 17.9151 12 16.7502V16.2502C12 14.6135 12 13.7951 12.3684 13.1939C12.5745 12.8576 12.8574 12.5747 13.1938 12.3686C13.7949 12.0002 14.6133 12.0002 16.25 12.0002H17.75C19.3867 12.0002 20.2051 12.0002 20.8062 12.3686C21.1426 12.5747 21.4255 12.8576 21.6316 13.1939C22 13.7951 22 14.6135 22 16.2502V16.7502C22 17.9151 22 18.4975 21.8097 18.9569C21.556 19.5695 21.0693 20.0562 20.4567 20.3099C20.1266 20.4467 19.7329 20.4851 19.1052 20.496C18.68 20.5033 18.4674 20.5069 18.2986 20.6051C18.1297 20.7034 18.0246 20.881 17.8144 21.2361Z" fill="#1C274C"/>
<path fill-rule="evenodd" clip-rule="evenodd" d="M10.2007 2.27755C10.5998 2.38841 10.8335 2.80182 10.7226 3.20092L9.32006 8.25019H16.7633L18.2774 2.79946C18.3882 2.40036 18.8016 2.16669 19.2007 2.27755C19.5998 2.38841 19.8335 2.80182 19.7226 3.20092L18.3201 8.25019H22C22.4142 8.25019 22.75 8.58598 22.75 9.00019C22.75 9.4144 22.4142 9.75019 22 9.75019H17.9016C17.7716 10.119 17.3761 10.329 16.9937 10.2228C16.7488 10.1548 16.5662 9.97285 16.4873 9.75019H8.9034L7.37562 15.2502H9C9.41421 15.2502 9.75 15.586 9.75 16.0002C9.75 16.4144 9.41421 16.7502 9 16.7502H6.95895L5.72264 21.2009C5.61178 21.6 5.19837 21.8337 4.79927 21.7228C4.40016 21.612 4.1665 21.1986 4.27736 20.7995L5.40216 16.7502H2C1.58579 16.7502 1.25 16.4144 1.25 16.0002C1.25 15.586 1.58579 15.2502 2 15.2502H5.81882L7.3466 9.75019H4C3.58579 9.75019 3.25 9.4144 3.25 9.00019C3.25 8.58598 3.58579 8.25019 4 8.25019H7.76327L9.27736 2.79946C9.38822 2.40036 9.80163 2.16669 10.2007 2.27755Z" fill="#1C274C"/>
</svg>
