<svg width="24" height="24" viewBox="0 0 24 24" fill="#1C274C" xmlns="http://www.w3.org/2000/svg">
<path fill-rule="evenodd" clip-rule="evenodd" d="M10.7226 3.20092C10.8335 2.80182 10.5998 2.38841 10.2007 2.27755C9.80163 2.16669 9.38822 2.40036 9.27736 2.79946L7.76327 8.25019H4C3.58579 8.25019 3.25 8.58598 3.25 9.00019C3.25 9.4144 3.58579 9.75019 4 9.75019H7.3466L5.81882 15.2502H2C1.58579 15.2502 1.25 15.586 1.25 16.0002C1.25 16.4144 1.58579 16.7502 2 16.7502H5.40216L4.27736 20.7995C4.1665 21.1986 4.40016 21.612 4.79927 21.7228C5.19837 21.8337 5.61178 21.6 5.72264 21.2009L6.95895 16.7502H14.4022L13.2774 20.7995C13.1665 21.1986 13.4002 21.612 13.7993 21.7228C14.1984 21.8337 14.6118 21.6 14.7226 21.2009L15.959 16.7502H20C20.4142 16.7502 20.75 16.4144 20.75 16.0002C20.75 15.586 20.4142 15.2502 20 15.2502H16.3756L17.9034 9.75019H22C22.4142 9.75019 22.75 9.4144 22.75 9.00019C22.75 8.58598 22.4142 8.25019 22 8.25019H18.3201L19.7226 3.20092C19.8335 2.80182 19.5998 2.38841 19.2007 2.27755C18.8016 2.16669 18.3882 2.40036 18.2774 2.79946L16.7633 8.25019H9.32006L10.7226 3.20092ZM14.8188 15.2502L16.3466 9.75019H8.9034L7.37562 15.2502H14.8188Z" fill="#1C274C"/>
</svg>
