<svg width="24" height="24" viewBox="0 0 24 24" fill="#1C274C" xmlns="http://www.w3.org/2000/svg">
<path d="M9.62048 18.9807C10.5967 19.0892 11.5693 18.748 12.2639 18.0534L14.9194 15.3979C17.3148 15.8114 19.874 15.0945 21.7285 13.24C21.8217 13.1468 21.912 13.0518 21.9995 12.9551C21.9928 17.0397 21.8976 19.1739 20.5355 20.536C19.0711 22.0005 16.714 22.0005 12 22.0005C7.28595 22.0005 4.92893 22.0005 3.46447 20.536C2 19.0715 2 16.7145 2 12.0005C2 7.28643 2 4.92941 3.46447 3.46494C4.82655 2.10286 6.96075 2.00763 11.0454 2.00098C10.9487 2.08846 10.8537 2.1788 10.7605 2.27202C8.906 4.12649 8.18914 6.68569 8.60254 9.08113L5.94704 11.7366C5.2525 12.4312 4.91133 13.4038 5.0198 14.38L5.21319 16.1205C5.28396 16.7574 5.56939 17.3513 6.02253 17.8044L6.19604 17.9779C6.64919 18.4311 7.24309 18.7165 7.88 18.7873L9.62048 18.9807Z" fill="#1C274C"/>
<path fill-rule="evenodd" clip-rule="evenodd" d="M21.9626 8.4128C21.8202 9.65987 21.2708 10.8693 20.3143 11.8258C18.8218 13.3183 16.7136 13.8197 14.8074 13.3302C14.5 13.2513 14.1677 13.3211 13.9433 13.5456L12.4136 15.0753L12.4107 15.0724L10.9532 13.6308C10.6587 13.3395 10.1838 13.3421 9.89256 13.6366C9.60128 13.9311 9.60389 14.406 9.89839 14.6973L11.3529 16.1359L10.8496 16.6392C10.5847 16.9042 10.2137 17.0343 9.84135 16.9929L8.10086 16.7995C7.9153 16.7789 7.74228 16.6958 7.61026 16.5637L7.43675 16.3902C7.30473 16.2582 7.22157 16.0852 7.20095 15.8996L7.00756 14.1591C6.96619 13.7868 7.09633 13.4158 7.36126 13.1508L10.4547 10.0574C10.6791 9.83299 10.7492 9.50051 10.6703 9.19307C10.1808 7.28686 10.6822 5.17869 12.1747 3.68624C13.1312 2.7297 14.3407 2.18024 15.5878 2.03784C16.4945 2.07116 17.2684 2.13421 17.9361 2.25349C18.8063 2.5202 19.6258 2.99778 20.3143 3.68624C21.0027 4.37467 21.4803 5.19411 21.747 6.0643C21.8663 6.73201 21.9293 7.50601 21.9626 8.4128ZM14.9882 6.65538C15.639 6.00451 16.6943 6.00451 17.3452 6.65538C17.9961 7.30625 17.9961 8.36153 17.3452 9.0124C16.6943 9.66328 15.639 9.66328 14.9882 9.0124C14.3373 8.36153 14.3373 7.30625 14.9882 6.65538Z" fill="#1C274C"/>
</svg>
