<svg width="24" height="24" viewBox="0 0 24 24" fill="#1C274C" xmlns="http://www.w3.org/2000/svg">
<path d="M2.43627 5.14588C2 5.64247 2 6.4939 2 8.19675V17.59C2 18.796 2 19.399 2.3146 19.853C2.62919 20.3069 3.17921 20.4976 4.27924 20.879L5.57343 21.3277C6.27436 21.5707 6.81371 21.7577 7.26633 21.8781C7.5616 21.9566 7.83333 21.7248 7.83333 21.4193V6.26912C7.83333 6.0202 7.64964 5.81013 7.40837 5.74893C7.01914 5.6502 6.55127 5.488 5.91002 5.26568C4.35676 4.72719 3.58014 4.45795 2.98922 4.73137C2.77941 4.82845 2.59116 4.96957 2.43627 5.14588Z" fill="#1C274C"/>
<path d="M12.6204 3.47998L11.0844 4.54498C10.5287 4.93027 10.1215 5.21263 9.77375 5.41394C9.60895 5.50934 9.5 5.68193 9.5 5.87236V20.9193C9.5 21.2899 9.88398 21.5213 10.1962 21.3216C10.5312 21.1072 10.9149 20.8412 11.3796 20.519L12.9156 19.454C13.4712 19.0687 13.8785 18.7863 14.2262 18.585C14.3911 18.4896 14.5 18.317 14.5 18.1266V3.07966C14.5 2.70907 14.116 2.47768 13.8038 2.67739C13.4688 2.89173 13.0851 3.15776 12.6204 3.47998Z" fill="#1C274C"/>
<path d="M19.7208 3.11996L18.4266 2.67128C17.7256 2.42825 17.1863 2.2413 16.7337 2.1209C16.4384 2.04235 16.1667 2.27412 16.1667 2.57966V17.7298C16.1667 17.9787 16.3504 18.1888 16.5916 18.25C16.9809 18.3487 17.4488 18.511 18.09 18.7333C19.6432 19.2718 20.4199 19.541 21.0108 19.2676C21.2206 19.1705 21.4088 19.0294 21.5637 18.8531C22 18.3565 22 17.5051 22 15.8022V6.40891C22 5.20292 22 4.59993 21.6854 4.14597C21.3708 3.69201 20.8208 3.50132 19.7208 3.11996Z" fill="#1C274C"/>
</svg>
