<svg width="24" height="24" viewBox="0 0 24 24" fill="#1C274C" xmlns="http://www.w3.org/2000/svg">
<path d="M14.5 4.5C14.5 5.88071 13.3808 7 12 7C10.6193 7 9.50004 5.88071 9.50004 4.5C9.50004 3.11929 10.6193 2 12 2C13.3808 2 14.5 3.11929 14.5 4.5Z" fill="#1C274C"/>
<path fill-rule="evenodd" clip-rule="evenodd" d="M12.8688 9.82208C12.2982 9.72597 11.7019 9.72597 11.1313 9.82208C8.6236 10.2445 6.75004 12.4461 6.75004 15.0196C6.75004 15.5842 6.43436 16.1049 5.92716 16.3612L3.33829 17.6694C2.96859 17.8562 2.51745 17.7079 2.33064 17.3382C2.14384 16.9685 2.2921 16.5174 2.66179 16.3306L5.24929 15.0231L5.25004 15.0196C5.25004 11.7143 7.65187 8.88701 10.8821 8.34292C11.6177 8.21903 12.3824 8.21903 13.1179 8.34292C16.3482 8.88701 18.75 11.7143 18.75 15.0196L18.7505 15.0224L21.3383 16.3306C21.708 16.5174 21.8562 16.9685 21.6694 17.3382C21.4826 17.7079 21.0315 17.8562 20.6618 17.6694L18.0729 16.3612C17.5657 16.1049 17.25 15.5842 17.25 15.0196C17.25 12.4461 15.3765 10.2445 12.8688 9.82208ZM9.95004 15.4C10.2814 15.6485 10.3486 16.1186 10.1 16.45L9.05347 17.8454C9.02631 17.8816 9.00489 17.9102 8.98278 17.9381C8.62107 18.3954 8.12342 18.7258 7.56167 18.8817C7.5273 18.8913 7.49259 18.8999 7.44859 18.9109L7.44096 18.9129L5.95617 19.284C5.24732 19.4613 4.75004 20.0982 4.75004 20.8288C4.75004 21.0614 4.9386 21.25 5.1712 21.25H6.72731C7.34373 21.25 7.59234 21.2488 7.82949 21.2209C8.40767 21.153 8.96573 20.967 9.46905 20.6744C9.67548 20.5544 9.87511 20.4062 10.3682 20.0364L12.55 18.4C12.8814 18.1515 13.3515 18.2186 13.6 18.55C13.8486 18.8814 13.7814 19.3515 13.45 19.6L12.5454 20.2785L13.803 20.7501C14.4298 20.9851 14.6826 21.0784 14.9395 21.1385C15.0781 21.1709 15.2181 21.1963 15.3592 21.2146C15.6208 21.2486 15.8903 21.25 16.5597 21.25H18.8289C19.0615 21.25 19.25 21.0614 19.25 20.8288C19.25 20.0982 18.7528 19.4613 18.0439 19.284L16.5512 18.9109C16.5074 18.8999 16.4727 18.8913 16.4384 18.8817C15.8767 18.7258 15.379 18.3954 15.0173 17.9381C14.9952 17.9102 14.9736 17.8814 14.9464 17.8452L13.9 16.45C13.6515 16.1186 13.7187 15.6485 14.05 15.4C14.3814 15.1515 14.8515 15.2186 15.1 15.55L16.1418 16.939C16.1757 16.9843 16.1851 16.9966 16.1937 17.0075C16.3581 17.2153 16.5843 17.3655 16.8396 17.4364C16.853 17.4401 16.8679 17.4439 16.9229 17.4576L18.4077 17.8288C19.7843 18.173 20.75 19.4099 20.75 20.8288C20.75 21.8899 19.8899 22.75 18.8289 22.75L16.5079 22.75C15.9061 22.75 15.5353 22.7501 15.1659 22.7021C14.9751 22.6773 14.7856 22.6429 14.5982 22.5991C14.2355 22.5144 13.8883 22.3841 13.3249 22.1728L11.1214 21.3465C10.7409 21.6316 10.4898 21.8161 10.2228 21.9713C9.54185 22.3671 8.78684 22.6187 8.00459 22.7107C7.66968 22.7501 7.32898 22.75 6.77549 22.75L5.1712 22.75C4.11017 22.75 3.25004 21.8899 3.25004 20.8288C3.25004 19.4099 4.21576 18.173 5.59237 17.8288L7.07715 17.4576C7.13219 17.4439 7.14707 17.4401 7.16043 17.4364C7.41577 17.3655 7.64199 17.2153 7.80641 17.0075C7.81501 16.9966 7.82423 16.9844 7.85831 16.939L8.90004 15.55C9.14857 15.2186 9.61867 15.1515 9.95004 15.4Z" fill="#1C274C"/>
</svg>
