<svg width="24" height="24" viewBox="0 0 24 24" fill="#1C274C" xmlns="http://www.w3.org/2000/svg">
<path d="M6 4.5C6 3.56538 6 3.09808 6.20096 2.75C6.33261 2.52197 6.52197 2.33261 6.75 2.20096C7.09808 2 7.56538 2 8.5 2H15.5C16.4346 2 16.9019 2 17.25 2.20096C17.478 2.33261 17.6674 2.52197 17.799 2.75C18 3.09808 18 3.56538 18 4.5C18 5.43462 18 5.90192 17.799 6.25C17.6674 6.47803 17.478 6.66739 17.25 6.79904C16.9019 7 16.4346 7 15.5 7H8.5C7.56538 7 7.09808 7 6.75 6.79904C6.52197 6.66739 6.33261 6.47803 6.20096 6.25C6 5.90192 6 5.43462 6 4.5Z" fill="#1C274C"/>
<path d="M5.00214 3.93896C4.84746 4.07635 4.75 4.27674 4.75 4.4999C4.75 4.72305 4.84746 4.92344 5.00214 5.06083C4.99998 4.89607 4.99999 4.72193 5 4.54013V4.45968C4.99999 4.27787 4.99998 4.10373 5.00214 3.93896Z" fill="#1C274C"/>
<path d="M10 16V20C10 20.9428 10 21.4142 10.2929 21.7071C10.5858 22 11.0572 22 12 22C12.9428 22 13.4142 22 13.7071 21.7071C14 21.4142 14 20.9428 14 20V16C14 15.0572 14 14.5858 13.7071 14.2929C13.4142 14 12.9428 14 12 14C11.0572 14 10.5858 14 10.2929 14.2929C10 14.5858 10 15.0572 10 16Z" fill="#1C274C"/>
<path d="M18.9943 5.25H19.0451C19.4998 5.25 19.8049 5.25037 20.0415 5.26579C20.2717 5.2808 20.3841 5.30776 20.4582 5.3369C20.7809 5.46395 21.0363 5.71937 21.1633 6.04208C21.1925 6.11609 21.2194 6.22858 21.2344 6.45878C21.2499 6.6953 21.2502 7.00044 21.2502 7.4551C21.2502 8.29243 21.2397 8.52185 21.1789 8.69392C21.0746 8.98918 20.8633 9.23455 20.5868 9.38148C20.4256 9.4671 20.2003 9.5116 19.3722 9.63581L15.2489 10.2543C14.4762 10.3702 13.8276 10.4675 13.3151 10.6116C12.772 10.7643 12.2915 10.9923 11.9164 11.4278C11.5333 11.8727 11.3751 12.4055 11.307 13.0062C11.5112 12.9999 11.7268 13 11.9457 13H12.0545C12.3195 13 12.5798 12.9999 12.8207 13.011C12.8707 12.6902 12.9481 12.5286 13.0531 12.4067C13.1625 12.2796 13.3305 12.1654 13.7211 12.0556C14.132 11.94 14.6864 11.8555 15.5181 11.7307L19.7139 11.1014C20.3646 11.0044 20.8715 10.9288 21.2906 10.7061C21.8989 10.3829 22.3638 9.84304 22.5933 9.19346C22.7513 8.74599 22.7509 8.23353 22.7503 7.57559L22.7502 7.43098C22.7502 7.00661 22.7502 6.65233 22.7313 6.3612C22.7115 6.05823 22.669 5.77171 22.5591 5.49258C22.2795 4.78261 21.7176 4.22069 21.0077 3.94117C20.7285 3.83128 20.442 3.78872 20.139 3.76897C19.8479 3.74999 19.4936 3.74999 19.0692 3.75H18.9943C19.0001 3.96867 19.0001 4.20681 19.0001 4.45976V4.54024C19.0001 4.7932 19.0001 5.03133 18.9943 5.25Z" fill="#1C274C"/>
</svg>
