<svg width="24" height="24" viewBox="0 0 24 24" fill="#1C274C" xmlns="http://www.w3.org/2000/svg">
<path d="M21 16.8282V11.1615C21 10.1179 21 9.59613 20.7169 9.2033C20.4881 8.88597 20.1212 8.7173 19.4667 8.49023C19.3328 10.0964 18.8009 11.7367 17.9655 13.1724C16.9928 14.844 15.5484 16.3385 13.697 17.1462C12.618 17.6169 11.382 17.6169 10.303 17.1462C8.45164 16.3385 7.00718 14.844 6.03449 13.1724C5.40086 12.0835 4.9418 10.8768 4.69862 9.65654C4.31607 9.6002 4.0225 9.6291 3.76917 9.77044C3.66809 9.82684 3.57388 9.89474 3.48841 9.9728C3 10.4189 3 11.2483 3 12.9072V17.8369C3 18.8805 3 19.4023 3.28314 19.7951C3.56627 20.188 4.06129 20.353 5.05132 20.683L5.43488 20.8108L5.43489 20.8109C7.01186 21.3365 7.80035 21.5993 8.60688 21.6009C8.8498 21.6013 9.09242 21.5841 9.33284 21.5493C10.131 21.4337 10.8809 21.0588 12.3806 20.3089C13.5299 19.7343 14.1046 19.4469 14.715 19.3136C14.9292 19.2668 15.1463 19.2342 15.3648 19.2159C15.9875 19.1638 16.6157 19.2685 17.8721 19.4779C19.1455 19.6901 19.7821 19.7962 20.247 19.5293C20.4048 19.4387 20.5449 19.32 20.6603 19.1792C21 18.7646 21 18.1191 21 16.8282Z" fill="#1C274C"/>
<path fill-rule="evenodd" clip-rule="evenodd" d="M12 2C8.68629 2 6 4.55211 6 7.70031C6 10.8238 7.91499 14.4687 10.9028 15.7721C11.5993 16.076 12.4007 16.076 13.0972 15.7721C16.085 14.4687 18 10.8238 18 7.70031C18 4.55211 15.3137 2 12 2ZM12 10C13.1046 10 14 9.10457 14 8C14 6.89543 13.1046 6 12 6C10.8954 6 10 6.89543 10 8C10 9.10457 10.8954 10 12 10Z" fill="#1C274C"/>
</svg>
