<svg width="24" height="24" viewBox="0 0 24 24" fill="#1C274C" xmlns="http://www.w3.org/2000/svg">
<path d="M7.60379 4.60379C9.33965 2.86793 10.2076 2 11.2861 2C12.3646 2 13.2326 2.86793 14.9684 4.60379L19.3872 9.02256C21.123 10.7584 21.991 11.6263 21.991 12.7049C21.991 13.7834 21.123 14.6513 19.3872 16.3872C17.6513 18.123 16.7834 18.991 15.7049 18.991C14.6263 18.991 13.7584 18.123 12.0226 16.3872L7.60379 11.9684C5.86793 10.2326 5 9.36462 5 8.2861C5 7.20757 5.86793 6.33965 7.60379 4.60379Z" fill="#1C274C"/>
<path d="M7.284 13.7704L2.82581 18.2286C2.48337 18.5711 2.31214 18.7423 2.2093 18.9204C1.93023 19.4038 1.93023 19.9993 2.2093 20.4827C2.31214 20.6608 2.48336 20.832 2.82578 21.1744C3.16823 21.5169 3.33948 21.6881 3.5176 21.791C4.00097 22.07 4.5965 22.07 5.07987 21.791C5.25799 21.6881 5.42921 21.5169 5.77166 21.1745L10.2298 16.7163L7.284 13.7704Z" fill="#1C274C"/>
<path d="M8.34466 12.7098L8.34905 12.7054L11.2949 15.6512L11.2905 15.6556L8.34466 12.7098Z" fill="#1C274C"/>
<path d="M19.6686 7.1831C19.9233 6.70779 19.9153 6.13313 19.6445 5.66408C19.5416 5.48596 19.3704 5.31474 19.028 4.97229C18.6855 4.62985 18.5143 4.45863 18.3362 4.35579C17.8671 4.08498 17.2925 4.07696 16.8172 4.33172L19.6686 7.1831Z" fill="#1C274C"/>
</svg>
