<svg width="24" height="24" viewBox="0 0 24 24" fill="#1C274C" xmlns="http://www.w3.org/2000/svg">
<path fill-rule="evenodd" clip-rule="evenodd" d="M12 1.25C12.4142 1.25 12.75 1.58579 12.75 2V4.18934L14.4696 2.46967C14.7625 2.17678 15.2374 2.17678 15.5303 2.46967C15.8232 2.76256 15.8232 3.23744 15.5303 3.53033L12.75 6.31066V10.701L16.552 8.50588L17.5696 4.70788C17.6769 4.30778 18.0881 4.07034 18.4882 4.17755C18.8883 4.28475 19.1257 4.69601 19.0185 5.09611L18.3891 7.44522L20.2851 6.35055C20.6438 6.14344 21.1025 6.26635 21.3096 6.62507C21.5167 6.98379 21.3938 7.44248 21.0351 7.64959L19.1391 8.74426L21.4882 9.3737C21.8883 9.48091 22.1257 9.89216 22.0185 10.2923C21.9113 10.6924 21.5001 10.9298 21.1 10.8226L17.302 9.80492L13.5 12L17.3022 14.1952L21.1002 13.1775C21.5003 13.0703 21.9115 13.3078 22.0187 13.7079C22.1259 14.108 21.8885 14.5192 21.4884 14.6264L19.1393 15.2559L21.0353 16.3505C21.394 16.5577 21.5169 17.0163 21.3098 17.3751C21.1027 17.7338 20.644 17.8567 20.2853 17.6496L18.3893 16.5549L19.0187 18.904C19.1259 19.3041 18.8885 19.7154 18.4884 19.8226C18.0883 19.9298 17.677 19.6924 17.5698 19.2923L16.5522 15.4943L12.75 13.299V17.6893L15.5303 20.4697C15.8232 20.7626 15.8232 21.2374 15.5303 21.5303C15.2374 21.8232 14.7625 21.8232 14.4696 21.5303L12.75 19.8107V22C12.75 22.4142 12.4142 22.75 12 22.75C11.5857 22.75 11.25 22.4142 11.25 22V19.8107L9.53029 21.5303C9.23739 21.8232 8.76252 21.8232 8.46963 21.5303C8.17673 21.2374 8.17673 20.7626 8.46963 20.4697L11.25 17.6893V13.299L7.44775 15.4943L6.43007 19.2923C6.32287 19.6924 5.91162 19.9298 5.51152 19.8226C5.11142 19.7154 4.87398 19.3041 4.98119 18.904L5.61063 16.5549L3.7146 17.6496C3.35589 17.8567 2.89719 17.7338 2.69009 17.3751C2.48298 17.0163 2.60589 16.5577 2.9646 16.3505L4.86063 15.2559L2.51152 14.6264C2.11142 14.5192 1.87398 14.108 1.98119 13.7079C2.08839 13.3078 2.49965 13.0703 2.89974 13.1775L6.69775 14.1952L10.5 12L6.69794 9.80492L2.89994 10.8226C2.49984 10.9298 2.08859 10.6924 1.98138 10.2923C1.87418 9.89216 2.11161 9.48091 2.51171 9.3737L4.86083 8.74426L2.9648 7.64959C2.60608 7.44248 2.48318 6.98379 2.69028 6.62507C2.89739 6.26635 3.35608 6.14344 3.7148 6.35055L5.61083 7.44522L4.98138 5.09611C4.87418 4.69601 5.11161 4.28475 5.51171 4.17755C5.91181 4.07034 6.32306 4.30778 6.43027 4.70788L7.44794 8.50588L11.25 10.701V6.31066L8.46963 3.53033C8.17673 3.23744 8.17673 2.76256 8.46963 2.46967C8.76252 2.17678 9.23739 2.17678 9.53029 2.46967L11.25 4.18934V2C11.25 1.58579 11.5857 1.25 12 1.25Z" fill="#1C274C"/>
</svg>
