<svg width="24" height="24" viewBox="0 0 24 24" fill="#1C274C" xmlns="http://www.w3.org/2000/svg">
<path d="M12 13.125C12.3012 13.125 12.5732 13.3052 12.6906 13.5827C12.8081 13.8601 12.7481 14.1808 12.5384 14.3971L8.53838 18.5221C8.39713 18.6678 8.20287 18.75 7.99996 18.75C7.79704 18.75 7.60279 18.6678 7.46153 18.5221L3.46153 14.3971C3.25182 14.1808 3.19186 13.8601 3.30928 13.5827C3.4267 13.3052 3.69871 13.125 3.99996 13.125H7.24996V6C7.24996 5.58579 7.58574 5.25 7.99996 5.25C8.41417 5.25 8.74996 5.58579 8.74996 6V13.125H12Z" fill="#1C274C"/>
<path d="M20 10.875C20.3012 10.875 20.5732 10.6948 20.6906 10.4173C20.8081 10.1399 20.7481 9.81916 20.5384 9.60289L16.5384 5.47789C16.3971 5.33222 16.2029 5.25 16 5.25C15.797 5.25 15.6028 5.33222 15.4615 5.47789L11.4615 9.60289C11.2518 9.81916 11.1919 10.1399 11.3093 10.4173C11.4267 10.6948 11.6987 10.875 12 10.875H15.25V18C15.25 18.4142 15.5857 18.75 16 18.75C16.4142 18.75 16.75 18.4142 16.75 18L16.75 10.875H20Z" fill="#1C274C"/>
</svg>
