<svg width="24" height="24" viewBox="0 0 24 24" fill="#1C274C" xmlns="http://www.w3.org/2000/svg">
<path d="M11.5803 4.77604C12.275 3.00516 12.6224 2.11971 13.3488 2.01056C14.0753 1.90141 14.6997 2.64083 15.9486 4.11967L16.2716 4.50226C16.6265 4.9225 16.804 5.13263 17.0452 5.25261C17.2865 5.37259 17.5643 5.38884 18.1198 5.42135L18.6256 5.45095C20.5806 5.56537 21.5581 5.62258 21.8973 6.26168C22.2365 6.90079 21.7128 7.69853 20.6654 9.29403L20.3944 9.7068C20.0967 10.1602 19.9479 10.3869 19.9077 10.6457C19.8675 10.9045 19.9405 11.1662 20.0864 11.6895L20.2193 12.166C20.7328 14.0076 20.9895 14.9284 20.4727 15.4325C19.9559 15.9367 19.0078 15.6903 17.1116 15.1975L16.621 15.07C16.0822 14.93 15.8128 14.86 15.5467 14.8999C15.2805 14.9399 15.0479 15.0854 14.5825 15.3763L14.1588 15.6412C12.5212 16.6649 11.7024 17.1768 11.0438 16.8493C10.3852 16.5217 10.3229 15.5717 10.1984 13.6717L10.1662 13.1801C10.1309 12.6402 10.1132 12.3702 9.9889 12.1361C9.86464 11.902 9.64787 11.7302 9.21434 11.3867L8.81965 11.0739C7.29404 9.86506 6.53124 9.26062 6.641 8.55405C6.75075 7.84748 7.66038 7.50672 9.47963 6.8252L9.9503 6.64888C10.4673 6.45522 10.7258 6.35839 10.9151 6.17371C11.1044 5.98903 11.2031 5.73742 11.4005 5.23419L11.5803 4.77604Z" fill="#1C274C"/>
<path d="M5.31003 9.59277C2.87292 11.9213 1.27501 15.8058 2.33125 22.0002C3.27403 19.3966 5.85726 17.2407 8.91219 15.9528C8.80559 15.3601 8.7583 14.6364 8.70844 13.8733L8.66945 13.2782C8.66038 13.1397 8.65346 13.0347 8.64607 12.9443C8.643 12.9068 8.64012 12.8754 8.63743 12.8489C8.61421 12.829 8.58591 12.8053 8.55117 12.7769C8.47874 12.7177 8.39377 12.6503 8.28278 12.5623L7.80759 12.1858C7.11448 11.6368 6.46884 11.1254 6.02493 10.6538C5.77182 10.385 5.48876 10.0304 5.31003 9.59277Z" fill="#1C274C"/>
<path d="M10.3466 15.4231C10.3415 15.3857 10.3365 15.3475 10.3316 15.3086L10.3877 15.41C10.374 15.4144 10.3603 15.4187 10.3466 15.4231Z" fill="#1C274C"/>
</svg>
