<svg width="24" height="24" viewBox="0 0 24 24" fill="#1C274C" xmlns="http://www.w3.org/2000/svg">
<path fill-rule="evenodd" clip-rule="evenodd" d="M15.6983 3.7536C16.6293 3.29889 17.6652 3.04415 18.5284 3.46151C18.9885 3.68399 19.3068 4.05664 19.4994 4.50023C19.6743 4.90322 19.7457 5.36164 19.7498 5.83576C19.7532 6.23436 19.7093 6.66491 19.6253 7.11782C19.4982 7.80246 19.2779 8.5467 18.9816 9.32271C18.9506 9.40394 18.907 9.47667 18.8539 9.53952C19.0391 9.60206 19.2199 9.66638 19.396 9.73238L19.3976 9.73299C19.4443 9.75052 19.4955 9.77 19.5414 9.7877C19.6748 9.83919 19.8053 9.89165 19.9328 9.94504C20.2588 10.0815 20.5652 10.224 20.8499 10.3719C21.1425 10.5239 21.4156 10.6833 21.6655 10.8499C22.5278 11.4244 23.2703 12.1904 23.3453 13.1462C23.3853 13.6557 23.2241 14.1185 22.9382 14.5086C22.6785 14.8629 22.3187 15.1558 21.9114 15.3985C21.5689 15.6025 21.175 15.7818 20.7415 15.9377C20.0863 16.1733 19.3325 16.3585 18.513 16.4941C18.1044 16.5617 17.7183 16.2853 17.6506 15.8766C17.583 15.4679 17.8595 15.0818 18.2681 15.0142C18.8299 14.9212 19.3338 14.8067 19.775 14.676L19.7801 14.6744C20.3461 14.5064 20.8017 14.3136 21.1435 14.1099C21.4378 13.9346 21.6227 13.766 21.7284 13.6219C21.8336 13.4782 21.8579 13.3649 21.8499 13.2636C21.8314 13.0276 21.6029 12.6106 20.8338 12.0982C20.6352 11.9658 20.4097 11.8336 20.1584 11.703L18.862 11.1341C17.1091 10.478 14.7612 9.97604 12.1765 9.79571C11.8558 9.77333 11.5395 9.75647 11.2285 9.74492C10.8121 10.2712 10.4009 10.8295 10.0016 11.4152C9.25788 12.5061 8.63306 13.5782 8.13612 14.5844C8.45081 14.7636 8.59757 15.1499 8.46601 15.4997C8.32324 15.8793 7.90563 16.0752 7.52433 15.9464C7.29813 16.5091 7.11985 17.0399 6.99144 17.5285C6.97792 17.5799 6.96501 17.6307 6.95269 17.6808L6.95048 17.6901C6.75492 18.489 6.71192 19.115 6.78057 19.5518C6.80721 19.7214 6.84715 19.8469 6.8932 19.9404C6.96353 20.0829 7.04811 20.1512 7.12067 20.1871L7.12457 20.189C7.16783 20.2099 7.22119 20.2276 7.2882 20.2385C7.41078 20.2586 7.57887 20.2562 7.80013 20.2085C8.19989 20.1224 8.70688 19.9032 9.30108 19.5308C9.43832 19.4448 9.57899 19.3514 9.72272 19.2508C9.96235 19.0829 10.2097 18.8955 10.4631 18.6891L11.6385 17.734C11.96 17.4728 12.4324 17.5217 12.6936 17.8431C12.9548 18.1646 12.9059 18.637 12.5845 18.8982L11.4102 19.8524C11.1315 20.0793 10.8552 20.2889 10.5832 20.4794C10.42 20.5937 10.258 20.7014 10.0975 20.8019C9.42001 21.2265 8.74716 21.5389 8.11604 21.6749C7.75968 21.7516 7.39691 21.7764 7.04544 21.7188C6.84843 21.6865 6.65539 21.6283 6.4716 21.5394L6.45527 21.5314C5.72578 21.1703 5.38977 20.4583 5.28786 19.7107C5.18687 18.9698 5.29359 18.0875 5.54071 17.1472C5.68122 16.6126 5.8716 16.0425 6.10868 15.4467L5.60192 15.2678C5.26541 15.1416 4.94503 15.0088 4.64336 14.8701C4.46229 14.7868 4.28762 14.7012 4.11992 14.6134C3.41158 14.2425 2.8024 13.8191 2.36665 13.3428C2.1206 13.0738 1.91622 12.7731 1.7887 12.4405C1.71723 12.2541 1.67011 12.058 1.65414 11.8545L1.6528 11.8364C1.5966 11.0244 2.04192 10.3751 2.63607 9.90997C3.22487 9.44904 4.0405 9.09617 4.97703 8.83525C6.46459 8.42082 8.38692 8.20311 10.5288 8.22755C11.5422 7.01274 12.5876 5.96465 13.5885 5.1496L13.5899 5.1485C13.6285 5.11705 13.6712 5.0826 13.7096 5.05194C13.8214 4.96273 13.9325 4.87649 14.043 4.7933C14.3252 4.58067 14.6029 4.38799 14.8741 4.21681C15.1529 4.04083 15.4284 3.88542 15.6983 3.7536ZM12.4459 8.31129C14.2718 8.44839 16.01 8.74028 17.5361 9.14469C17.522 9.02764 17.5353 8.90552 17.5803 8.78771C17.7834 8.25569 17.9387 7.76283 18.0483 7.31596L18.0496 7.3108C18.1899 6.73733 18.2533 6.24661 18.2498 5.84877C18.2469 5.5062 18.1946 5.26149 18.1234 5.09761C18.0525 4.93426 17.9669 4.85617 17.8754 4.81193C17.6622 4.70886 17.187 4.69585 16.3566 5.10143C16.1421 5.20618 15.9142 5.33413 15.6747 5.48531L14.5295 6.31768C13.8599 6.86356 13.1547 7.53546 12.4459 8.31129ZM9.3484 9.73983C7.80008 9.79171 6.44276 9.98403 5.3796 10.2802C5.32837 10.2945 5.27801 10.309 5.22852 10.3236L5.21942 10.3264C4.43091 10.5605 3.86876 10.8391 3.5262 11.1187C3.39323 11.2273 3.30496 11.3251 3.24745 11.412C3.1599 11.5446 3.14363 11.6521 3.14922 11.7328L3.14954 11.7372C3.1533 11.7851 3.16496 11.8401 3.18927 11.9035C3.23374 12.0194 3.32067 12.1633 3.47344 12.3303C3.74945 12.6321 4.19447 12.9593 4.81569 13.2845C4.95917 13.3596 5.11077 13.434 5.27019 13.5073C5.53598 13.6296 5.82265 13.7486 6.12862 13.8633L6.71731 14.0711C7.26317 12.9456 7.95088 11.7604 8.7622 10.5703C8.95461 10.288 9.15022 10.011 9.3484 9.73983Z" fill="#1C274C"/>
<path d="M11.7647 14.2813C11.7509 13.3709 11.7441 12.9157 12.0311 12.75C12.3181 12.5843 12.7089 12.8178 13.4905 13.2849L13.6927 13.4058C13.9148 13.5385 14.0258 13.6048 14.1481 13.6203C14.2705 13.6358 14.3902 13.5986 14.6298 13.5242L14.8479 13.4565C15.6908 13.1947 16.1123 13.0638 16.3656 13.2978C16.619 13.5318 16.5364 13.9757 16.3713 14.8635L16.3286 15.0932C16.2817 15.3455 16.2582 15.4716 16.286 15.5949C16.3139 15.7181 16.3898 15.8245 16.5418 16.0372L16.6801 16.2309C17.2148 16.9795 17.4821 17.3538 17.3517 17.6641C17.2213 17.9745 16.7794 18.0153 15.8958 18.0969L15.6672 18.118C15.4161 18.1412 15.2906 18.1528 15.1854 18.2135C15.0803 18.2742 15.0075 18.3771 14.8619 18.583L14.7293 18.7704C14.2168 19.4948 13.9605 19.8571 13.6266 19.8148C13.2926 19.7726 13.1021 19.354 12.7211 18.5166L12.6226 18.3C12.5143 18.062 12.4602 17.943 12.3674 17.8573C12.2745 17.7716 12.1536 17.7288 11.9116 17.6433L11.6914 17.5655C10.8399 17.2646 10.4142 17.1141 10.3383 16.7777C10.2623 16.4413 10.5864 16.1418 11.2345 15.5426L11.4022 15.3876C11.5864 15.2174 11.6785 15.1322 11.7263 15.0186C11.774 14.9049 11.7721 14.7755 11.7682 14.5168L11.7647 14.2813Z" fill="#1C274C"/>
</svg>
