<svg width="24" height="24" viewBox="0 0 24 24" fill="#1C274C" xmlns="http://www.w3.org/2000/svg">
<path d="M17 4.5C17 5.88071 15.8807 7 14.5 7C13.1193 7 12 5.88071 12 4.5C12 3.11929 13.1193 2 14.5 2C15.8807 2 17 3.11929 17 4.5Z" fill="#1C274C"/>
<path fill-rule="evenodd" clip-rule="evenodd" d="M10.5026 9.20673C11.9873 8.57043 13.6389 9.6595 13.6389 11.2748V13.8953C13.6389 14.3654 13.5184 14.8276 13.2889 15.2379L10.5766 20.0861C10.2517 20.6668 9.7273 21.11 9.10056 21.3336L5.252 22.7064C4.86186 22.8456 4.43278 22.6421 4.29362 22.252C4.15445 21.8618 4.35791 21.4328 4.74804 21.2936L8.5966 19.9208C8.88148 19.8192 9.11985 19.6177 9.26752 19.3537L11.9798 14.5055C12.0841 14.3191 12.1389 14.1089 12.1389 13.8953V11.2748C12.1389 10.7364 11.5884 10.3733 11.0935 10.5854L8.63767 11.6379C8.14624 11.8485 8.02672 12.491 8.40954 12.8643L9.0236 13.463C9.32017 13.7522 9.32618 14.227 9.03702 14.5236C8.74786 14.8202 8.27302 14.8262 7.97645 14.537L7.36239 13.9383C6.21394 12.8186 6.5725 10.8911 8.04679 10.2592L10.5026 9.20673ZM16.5589 14.0535C18.2318 13.7817 19.75 15.0731 19.75 16.7679V22C19.75 22.4142 19.4142 22.75 19 22.75C18.5858 22.75 18.25 22.4142 18.25 22V16.7679C18.25 15.9975 17.5599 15.4105 16.7995 15.5341L15.787 15.6986C15.3781 15.7651 14.9928 15.4875 14.9264 15.0786C14.86 14.6698 15.1375 14.2845 15.5464 14.218L16.5589 14.0535Z" fill="#1C274C"/>
</svg>
