<svg width="24" height="24" viewBox="0 0 24 24" fill="#1C274C" xmlns="http://www.w3.org/2000/svg">
<path fill-rule="evenodd" clip-rule="evenodd" d="M4.31274 6.5C4.67997 6.38779 5.16504 6.27819 5.75934 6.17914C7.33609 5.91634 9.54289 5.75 12 5.75C12.4142 5.75 12.75 5.41421 12.75 5C12.75 4.58579 12.4142 4.25 12 4.25C9.48655 4.25 7.19335 4.41944 5.51274 4.69954C4.67845 4.83859 3.95965 5.01055 3.43231 5.21835C3.17237 5.32078 2.91483 5.44871 2.70921 5.61618C2.51293 5.77605 2.25 6.0689 2.25 6.5C2.25 6.9311 2.51293 7.22395 2.70921 7.38382C2.91483 7.55129 3.17237 7.67922 3.43231 7.78165C3.95965 7.98945 4.67845 8.16141 5.51274 8.30046C7.19335 8.58056 9.48655 8.75 12 8.75C14.5135 8.75 16.8067 8.58056 18.4873 8.30046C19.3215 8.16141 20.0403 7.98945 20.5677 7.78165C20.8276 7.67922 21.0852 7.55129 21.2908 7.38382C21.4871 7.22395 21.75 6.9311 21.75 6.5C21.75 5.96462 21.3529 5.64298 21.1206 5.49321C20.8491 5.31812 20.4993 5.17957 20.1234 5.06485C19.361 4.83211 18.3088 4.64395 17.0832 4.50722C16.6715 4.46129 16.3006 4.75778 16.2546 5.16944C16.2087 5.58109 16.5052 5.95204 16.9168 5.99797C18.1032 6.13032 19.051 6.30583 19.6855 6.49951C19.6861 6.49968 19.6866 6.49985 19.6872 6.50002C19.32 6.61222 18.8349 6.72182 18.2407 6.82086C16.6639 7.08366 14.4571 7.25 12 7.25C9.54289 7.25 7.33609 7.08366 5.75934 6.82086C5.16504 6.72181 4.67997 6.61221 4.31274 6.5ZM3.64796 6.78666C3.64789 6.78666 3.64884 6.78572 3.65099 6.78384C3.64911 6.78572 3.64803 6.78667 3.64796 6.78666ZM20.3582 6.79149C20.3576 6.79154 20.3527 6.78778 20.3454 6.78004C20.3551 6.78757 20.3588 6.79144 20.3582 6.79149ZM20.349 6.21616C20.3509 6.21428 20.352 6.21333 20.352 6.21334C20.3521 6.21334 20.3512 6.21428 20.349 6.21616ZM3.65099 6.21616C3.64883 6.21428 3.64789 6.21334 3.64796 6.21334C3.64803 6.21333 3.64911 6.21428 3.65099 6.21616Z" fill="#1C274C"/>
<path fill-rule="evenodd" clip-rule="evenodd" d="M20.7061 9.74722C20.8458 10.1372 20.6429 10.5665 20.253 10.7062L20 10.0002C20.253 10.7062 20.2532 10.7062 20.253 10.7062L20.252 10.7066L20.2507 10.707L20.2475 10.7082L20.2379 10.7115L20.2064 10.7223C20.1799 10.7312 20.1425 10.7435 20.0942 10.7587C19.9975 10.789 19.8573 10.831 19.6736 10.8805C19.3063 10.9797 18.7653 11.1094 18.0522 11.2382C16.626 11.496 14.5124 11.7502 11.7241 11.7502C8.93608 11.7502 6.95539 11.496 5.65768 11.2355C5.00888 11.1053 4.53113 10.9735 4.2089 10.8714C4.0478 10.8203 3.92565 10.7766 3.84049 10.7442C3.79791 10.728 3.76459 10.7147 3.74029 10.7047L3.71057 10.6922L3.70072 10.6879L3.69705 10.6863L3.69552 10.6856C3.6952 10.6855 3.69419 10.685 4 10.0002L3.69419 10.685C3.31598 10.5161 3.14629 10.0726 3.31518 9.69438C3.4836 9.31723 3.92508 9.14743 4.30259 9.31394C4.30205 9.3137 4.30207 9.31371 4.30259 9.31394M4.30259 9.31394C4.30205 9.3137 4.30207 9.31371 4.30259 9.31394L4.3127 9.31817C4.32387 9.32279 4.34402 9.33092 4.37339 9.34208C4.43212 9.3644 4.52777 9.39886 4.66231 9.44152C4.93136 9.52684 5.35625 9.64509 5.95289 9.76485C7.14607 10.0044 9.02744 10.2502 11.7241 10.2502C14.4207 10.2502 16.445 10.0044 17.7855 9.76214C18.4558 9.641 18.9554 9.5207 19.2828 9.43234C19.4465 9.38817 19.5671 9.35197 19.6446 9.32764C19.6833 9.31547 19.7112 9.30628 19.7283 9.30053L19.747 9.29414L19.9812 9.94776C19.747 9.29413 19.7468 9.2942 19.747 9.29414C20.1369 9.15471 20.5664 9.35741 20.7061 9.74722M19.747 9.29414C19.7469 9.29418 19.7472 9.29409 19.747 9.29414V9.29414Z" fill="#1C274C"/>
<path fill-rule="evenodd" clip-rule="evenodd" d="M8.27308 15.3017C7.88916 15.1515 7.45558 15.3395 7.30308 15.7231C7.15005 16.108 7.33802 16.5441 7.72293 16.6971L8.00002 16.0002C7.72293 16.6971 7.72319 16.6972 7.72345 16.6973L7.72401 16.6976L7.7252 16.698L7.72794 16.6991L7.73481 16.7018L7.75416 16.7091C7.76956 16.7148 7.78997 16.7221 7.81545 16.7309C7.86639 16.7484 7.93757 16.7716 8.02941 16.7983C8.21313 16.8519 8.47933 16.92 8.83149 16.987C9.53602 17.121 10.583 17.2502 12 17.2502C13.4171 17.2502 14.464 17.121 15.1685 16.987C15.5207 16.92 15.7869 16.8519 15.9706 16.7983C16.0625 16.7716 16.1336 16.7484 16.1846 16.7309C16.2101 16.7221 16.2305 16.7148 16.2459 16.7091L16.2652 16.7018L16.2721 16.6991L16.2748 16.698L16.276 16.6976L16.2766 16.6973C16.2768 16.6972 16.2771 16.6971 16 16.0002L16.2771 16.6971C16.662 16.5441 16.85 16.108 16.697 15.7231C16.5445 15.3395 16.1109 15.1515 15.7269 15.3017C15.7274 15.3015 15.7276 15.3014 15.7274 15.3015L15.7261 15.302L15.7247 15.3025M15.7246 15.3026C15.7202 15.3042 15.7109 15.3076 15.6967 15.3125C15.6681 15.3223 15.6196 15.3382 15.5507 15.3583C15.4129 15.3985 15.1933 15.4554 14.8883 15.5134C14.2784 15.6294 13.3254 15.7502 12 15.7502C10.6747 15.7502 9.72164 15.6294 9.11176 15.5134C8.80672 15.4554 8.58711 15.3985 8.44932 15.3583C8.38042 15.3382 8.33192 15.3223 8.30338 15.3125C8.28911 15.3076 8.27982 15.3042 8.27546 15.3026M15.7234 15.3031L15.7239 15.3029L15.7246 15.3026" fill="#1C274C"/>
<path fill-rule="evenodd" clip-rule="evenodd" d="M16.7097 18.2577C16.8436 18.6497 16.6345 19.076 16.2425 19.2099C15.4416 19.4835 14.4567 19.7502 13 19.7502C11.6032 19.7502 10.566 19.6247 9.86189 19.4927C9.45476 19.4165 9.18656 19.0246 9.26284 18.6175C9.33912 18.2103 9.731 17.9421 10.1381 18.0184C10.7489 18.1328 11.6936 18.2502 13 18.2502C14.2465 18.2502 15.0634 18.0276 15.7575 17.7905C16.1495 17.6566 16.5758 17.8658 16.7097 18.2577Z" fill="#1C274C"/>
<path fill-rule="evenodd" clip-rule="evenodd" d="M6.59105 12.5383C6.3737 12.2595 5.98218 12.1656 5.65646 12.3335C5.28825 12.5232 5.14355 12.9755 5.33327 13.3437L5.99997 13.0002C5.33327 13.3437 5.33374 13.3446 5.33422 13.3455L5.33518 13.3474L5.33714 13.3511L5.34117 13.3586L5.34971 13.3739C5.35562 13.3842 5.36197 13.3948 5.36877 13.4056C5.38239 13.4271 5.39778 13.4494 5.41512 13.4723C5.44987 13.5181 5.49203 13.5656 5.54292 13.6141C5.6445 13.7109 5.77999 13.8107 5.96071 13.9088C6.31825 14.1029 6.87545 14.303 7.76114 14.4597C8.16902 14.5318 8.55816 14.2597 8.63031 13.8518C8.70245 13.4439 8.43028 13.0548 8.0224 12.9826C7.23533 12.8434 6.84663 12.683 6.67647 12.5906C6.63322 12.5671 6.60603 12.5491 6.59105 12.5383ZM18.3435 12.3335C18.7117 12.5232 18.8564 12.9755 18.6667 13.3437L18 13.0002C18.6667 13.3437 18.666 13.3451 18.6652 13.3465L18.6637 13.3493L18.6607 13.3551L18.6543 13.3667C18.6499 13.3746 18.6453 13.3825 18.6404 13.3906C18.6306 13.4069 18.6198 13.4236 18.6078 13.4407C18.5839 13.475 18.5557 13.5105 18.5227 13.547C18.4565 13.62 18.3717 13.6954 18.2637 13.7709C18.0495 13.9208 17.7376 14.0757 17.2769 14.2171C16.3612 14.4982 14.7774 14.7502 12 14.7502C11.5858 14.7502 11.25 14.4144 11.25 14.0002C11.25 13.5859 11.5858 13.2502 12 13.2502C14.7073 13.2502 16.1235 13.0021 16.8367 12.7832C17.1903 12.6746 17.35 12.5795 17.4038 12.5419C17.4057 12.5406 17.4073 12.5394 17.4089 12.5383C17.6263 12.2595 18.0178 12.1656 18.3435 12.3335Z" fill="#1C274C"/>
</svg>
