<svg width="24" height="24" viewBox="0 0 24 24" fill="#1C274C" xmlns="http://www.w3.org/2000/svg">
<path fill-rule="evenodd" clip-rule="evenodd" d="M20.5 14.0004V6.13784C20.5 5.7499 20.5 5.55592 20.4822 5.42326C20.359 4.50731 19.8459 3.94546 18.9449 3.73988C18.8144 3.71011 18.5428 3.68543 18 3.63608C16.9981 3.54499 15.8169 3.19627 14.7687 2.81492C13.2754 2.27164 12.5288 2 12 2C11.4712 2 10.7246 2.27164 9.23133 2.81492C8.18314 3.19627 7.00193 3.54499 6 3.63608C5.45709 3.68543 5.18562 3.71011 5.05512 3.73988C4.15409 3.94546 3.64099 4.50731 3.51784 5.42326C3.5 5.55592 3.5 5.7499 3.5 6.13784V14.0004H20.5ZM11.0303 6.47004C11.3232 6.76293 11.3232 7.2378 11.0303 7.5307L10.0303 8.5307C9.73744 8.82359 9.26256 8.82359 8.96967 8.5307C8.67678 8.2378 8.67678 7.76293 8.96967 7.47004L9.96967 6.47004C10.2626 6.17714 10.7374 6.17714 11.0303 6.47004ZM14.0303 7.47004C14.3232 7.76293 14.3232 8.2378 14.0303 8.5307L11.0303 11.5307C10.7374 11.8236 10.2626 11.8236 9.96967 11.5307C9.67678 11.2378 9.67678 10.7629 9.96967 10.47L12.9697 7.47004C13.2626 7.17714 13.7374 7.17714 14.0303 7.47004ZM15.0303 10.47C15.3232 10.7629 15.3232 11.2378 15.0303 11.5307L14.0303 12.5307C13.7374 12.8236 13.2626 12.8236 12.9697 12.5307C12.6768 12.2378 12.6768 11.7629 12.9697 11.47L13.9697 10.47C14.2626 10.1771 14.7374 10.1771 15.0303 10.47Z" fill="#1C274C"/>
<path fill-rule="evenodd" clip-rule="evenodd" d="M3.00023 15H11.25V21H8.00023C7.1228 21 6.38147 21 5.75 20.9738V22C5.75 22.4142 5.41421 22.75 5 22.75C4.58579 22.75 4.25 22.4142 4.25 22V20.8109C3.66924 20.6845 3.23107 20.4735 2.87891 20.1213C2.11053 19.3529 2.01408 18.175 2.00197 16.0001C1.99889 15.4478 2.44795 15 3.00023 15ZM6.25 18C6.25 17.5858 6.58579 17.25 7 17.25L9 17.25C9.41421 17.25 9.75 17.5858 9.75 18C9.75 18.4142 9.41421 18.75 9 18.75L7 18.75C6.58579 18.75 6.25 18.4142 6.25 18Z" fill="#1C274C"/>
<path fill-rule="evenodd" clip-rule="evenodd" d="M16.0002 21H12.75V15H21.0002C21.5525 15 22.0016 15.4478 21.9985 16.0001C21.9864 18.175 21.8899 19.3529 21.1216 20.1213C20.7693 20.4736 20.331 20.6846 19.75 20.811V22C19.75 22.4142 19.4142 22.75 19 22.75C18.5858 22.75 18.25 22.4142 18.25 22V20.9738C17.6186 21 16.8774 21 16.0002 21ZM15 17.25C14.5858 17.25 14.25 17.5858 14.25 18C14.25 18.4142 14.5858 18.75 15 18.75L17 18.75C17.4142 18.75 17.75 18.4142 17.75 18C17.75 17.5858 17.4142 17.25 17 17.25L15 17.25Z" fill="#1C274C"/>
</svg>
