<svg width="19" height="18" viewBox="0 0 19 18" fill="1C274C" xmlns="http://www.w3.org/2000/svg">
<path d="M17.0255 4.17036C14.3372 -0.00170634 8.83184 -1.23787 4.57421 1.35035C0.419482 3.93858 -0.918264 9.5786 1.77009 13.7378L1.98876 14.0726L1.08835 17.4463L4.45844 16.5449L4.79288 16.7638C6.24639 17.5493 7.82853 18 9.39781 18C11.0829 18 12.7679 17.5493 14.2214 16.6479C18.3761 13.9438 19.611 8.41969 17.0255 4.14461V4.17036ZM14.6716 12.8493C14.2214 13.5189 13.6554 13.9696 12.8708 14.0855C12.4206 14.0855 11.8546 14.3044 9.61648 13.4159C7.71277 12.5145 6.13062 11.0466 5.01155 9.3597C4.34268 8.57421 3.99538 7.55695 3.89247 6.53969C3.89247 5.63831 4.22691 4.85283 4.79288 4.28625C5.01155 4.06735 5.24308 3.95146 5.46175 3.95146H6.02772C6.24639 3.95146 6.47792 3.95146 6.59369 4.40214C6.81236 4.96872 7.37833 6.32078 7.37833 6.43667C7.4941 6.55256 7.44264 7.41531 6.92813 7.90462C6.64514 8.22654 6.59369 8.23942 6.70946 8.4712C7.15966 9.14079 7.72563 9.82326 8.27874 10.3898C8.94761 10.9564 9.62934 11.4071 10.414 11.7419C10.6327 11.8578 10.8642 11.8578 10.98 11.626C11.0957 11.4071 11.6488 10.8405 11.8804 10.6087C12.099 10.3898 12.2148 10.3898 12.4463 10.4929L14.2471 11.3942C14.4658 11.5101 14.6973 11.6131 14.8131 11.729C14.9289 12.0638 14.9289 12.5145 14.6973 12.8493H14.6716Z" fill="#1C274C"/>
</svg>
